<svg xmlns="http://www.w3.org/2000/svg" width="1280" height="720" viewBox="0 0 1280 720">
<defs>
    <linearGradient id="ground" x1="0" y1="0" x2="1" y2="1"><stop stop-color="#dce5cc"/><stop offset=".58" stop-color="#d3d6cb"/><stop offset="1" stop-color="#91b574"/></linearGradient>
    <filter id="softShadow"><feDropShadow dx="0" dy="10" stdDeviation="8" flood-color="#1a2327" flood-opacity=".28"/></filter>
    <filter id="blur"><feGaussianBlur stdDeviation="13"/></filter>
    <radialGradient id="sun" cx="12%" cy="5%" r="75%"><stop stop-color="#fff6d6" stop-opacity=".68"/><stop offset=".42" stop-color="#fff" stop-opacity="0"/></radialGradient>
    <linearGradient id="v" x1="0" y1="0" x2="0" y2="1"><stop stop-color="#ffffff" stop-opacity=".04"/><stop offset="1" stop-color="#496b4e" stop-opacity=".18"/></linearGradient>
  </defs>
<rect width="1280" height="720" fill="url(#ground)"/>
<rect width="1280" height="720" fill="url(#sun)"/>
<path d="M-30 125 C150 215 245 55 405 125 C535 180 675 120 805 65 C955 0 1115 45 1320 -25 L1320 0 C1110 90 970 55 820 120 C660 190 525 230 375 170 C225 115 155 265 -30 185Z" fill="#5f8fa3" opacity=".78"/><ellipse cx="385" cy="365" rx="190" ry="105" fill="#5d96a9" opacity=".85"/><path d="M230 365 C310 315 410 315 535 365" stroke="#dceeea" stroke-width="4" fill="none" opacity=".45"/><g opacity=".88">
    <path d="M40 410 C155 345 260 350 365 420 C245 500 135 510 40 410Z" fill="#75a766"/>
    <path d="M875 125 C980 80 1130 100 1230 175 C1100 245 980 235 875 125Z" fill="#7ca56b"/>
    <circle cx="60" cy="125" r="2" fill="#436b3c" opacity=".55"/><circle cx="133" cy="166" r="3" fill="#436b3c" opacity=".55"/><circle cx="206" cy="207" r="4" fill="#436b3c" opacity=".55"/><circle cx="279" cy="248" r="5" fill="#436b3c" opacity=".55"/><circle cx="352" cy="289" r="2" fill="#436b3c" opacity=".55"/><circle cx="425" cy="330" r="3" fill="#436b3c" opacity=".55"/><circle cx="498" cy="371" r="4" fill="#436b3c" opacity=".55"/><circle cx="571" cy="412" r="5" fill="#436b3c" opacity=".55"/><circle cx="644" cy="453" r="2" fill="#436b3c" opacity=".55"/><circle cx="717" cy="494" r="3" fill="#436b3c" opacity=".55"/><circle cx="790" cy="535" r="4" fill="#436b3c" opacity=".55"/><circle cx="863" cy="576" r="5" fill="#436b3c" opacity=".55"/><circle cx="936" cy="617" r="2" fill="#436b3c" opacity=".55"/><circle cx="1009" cy="158" r="3" fill="#436b3c" opacity=".55"/><circle cx="1082" cy="199" r="4" fill="#436b3c" opacity=".55"/><circle cx="1155" cy="240" r="5" fill="#436b3c" opacity=".55"/><circle cx="108" cy="281" r="2" fill="#436b3c" opacity=".55"/><circle cx="181" cy="322" r="3" fill="#436b3c" opacity=".55"/><circle cx="254" cy="363" r="4" fill="#436b3c" opacity=".55"/><circle cx="327" cy="404" r="5" fill="#436b3c" opacity=".55"/><circle cx="400" cy="445" r="2" fill="#436b3c" opacity=".55"/><circle cx="473" cy="486" r="3" fill="#436b3c" opacity=".55"/><circle cx="546" cy="527" r="4" fill="#436b3c" opacity=".55"/><circle cx="619" cy="568" r="5" fill="#436b3c" opacity=".55"/><circle cx="692" cy="609" r="2" fill="#436b3c" opacity=".55"/><circle cx="765" cy="150" r="3" fill="#436b3c" opacity=".55"/><circle cx="838" cy="191" r="4" fill="#436b3c" opacity=".55"/><circle cx="911" cy="232" r="5" fill="#436b3c" opacity=".55"/><circle cx="984" cy="273" r="2" fill="#436b3c" opacity=".55"/><circle cx="1057" cy="314" r="3" fill="#436b3c" opacity=".55"/><circle cx="1130" cy="355" r="4" fill="#436b3c" opacity=".55"/><circle cx="83" cy="396" r="5" fill="#436b3c" opacity=".55"/><circle cx="156" cy="437" r="2" fill="#436b3c" opacity=".55"/><circle cx="229" cy="478" r="3" fill="#436b3c" opacity=".55"/><circle cx="302" cy="519" r="4" fill="#436b3c" opacity=".55"/><circle cx="375" cy="560" r="5" fill="#436b3c" opacity=".55"/><circle cx="448" cy="601" r="2" fill="#436b3c" opacity=".55"/><circle cx="521" cy="142" r="3" fill="#436b3c" opacity=".55"/><circle cx="594" cy="183" r="4" fill="#436b3c" opacity=".55"/><circle cx="667" cy="224" r="5" fill="#436b3c" opacity=".55"/><circle cx="740" cy="265" r="2" fill="#436b3c" opacity=".55"/><circle cx="813" cy="306" r="3" fill="#436b3c" opacity=".55"/><circle cx="886" cy="347" r="4" fill="#436b3c" opacity=".55"/><circle cx="959" cy="388" r="5" fill="#436b3c" opacity=".55"/><circle cx="1032" cy="429" r="2" fill="#436b3c" opacity=".55"/><circle cx="1105" cy="470" r="3" fill="#436b3c" opacity=".55"/><circle cx="1178" cy="511" r="4" fill="#436b3c" opacity=".55"/><circle cx="131" cy="552" r="5" fill="#436b3c" opacity=".55"/><circle cx="204" cy="593" r="2" fill="#436b3c" opacity=".55"/><circle cx="277" cy="134" r="3" fill="#436b3c" opacity=".55"/><circle cx="350" cy="175" r="4" fill="#436b3c" opacity=".55"/><circle cx="423" cy="216" r="5" fill="#436b3c" opacity=".55"/><circle cx="496" cy="257" r="2" fill="#436b3c" opacity=".55"/><circle cx="569" cy="298" r="3" fill="#436b3c" opacity=".55"/><circle cx="642" cy="339" r="4" fill="#436b3c" opacity=".55"/><circle cx="715" cy="380" r="5" fill="#436b3c" opacity=".55"/><circle cx="788" cy="421" r="2" fill="#436b3c" opacity=".55"/><circle cx="861" cy="462" r="3" fill="#436b3c" opacity=".55"/><circle cx="934" cy="503" r="4" fill="#436b3c" opacity=".55"/><circle cx="1007" cy="544" r="5" fill="#436b3c" opacity=".55"/><circle cx="1080" cy="585" r="2" fill="#436b3c" opacity=".55"/><circle cx="1153" cy="126" r="3" fill="#436b3c" opacity=".55"/><circle cx="106" cy="167" r="4" fill="#436b3c" opacity=".55"/><circle cx="179" cy="208" r="5" fill="#436b3c" opacity=".55"/><circle cx="252" cy="249" r="2" fill="#436b3c" opacity=".55"/><circle cx="325" cy="290" r="3" fill="#436b3c" opacity=".55"/><circle cx="398" cy="331" r="4" fill="#436b3c" opacity=".55"/><circle cx="471" cy="372" r="5" fill="#436b3c" opacity=".55"/><circle cx="544" cy="413" r="2" fill="#436b3c" opacity=".55"/><circle cx="617" cy="454" r="3" fill="#436b3c" opacity=".55"/><circle cx="690" cy="495" r="4" fill="#436b3c" opacity=".55"/><circle cx="763" cy="536" r="5" fill="#436b3c" opacity=".55"/><circle cx="836" cy="577" r="2" fill="#436b3c" opacity=".55"/><circle cx="909" cy="618" r="3" fill="#436b3c" opacity=".55"/><circle cx="982" cy="159" r="4" fill="#436b3c" opacity=".55"/><circle cx="1055" cy="200" r="5" fill="#436b3c" opacity=".55"/><circle cx="1128" cy="241" r="2" fill="#436b3c" opacity=".55"/><circle cx="81" cy="282" r="3" fill="#436b3c" opacity=".55"/><circle cx="154" cy="323" r="4" fill="#436b3c" opacity=".55"/><circle cx="227" cy="364" r="5" fill="#436b3c" opacity=".55"/>
  </g>
<g class="roads">
    <path d="M-40 575 C190 500 365 500 565 545 C775 595 1005 575 1320 455" stroke="#464d50" stroke-width="54" fill="none"/>
    <path d="M-40 575 C190 500 365 500 565 545 C775 595 1005 575 1320 455" stroke="#eef0e8" stroke-width="4" fill="none" opacity=".65"/>
    <path d="M1020 -30 C900 120 850 285 900 505 C925 610 1005 685 1115 760" stroke="#4c5356" stroke-width="36" fill="none"/>
    <path d="M130 720 C235 540 330 390 445 270 C560 150 740 85 1110 35" stroke="#454c50" stroke-width="34" fill="none"/>
    <path d="M120 365 C330 305 520 315 685 365 C815 405 915 405 1045 360" stroke="#595f62" stroke-width="18" fill="none" opacity=".92"/>
    <path d="M120 365 C330 305 520 315 685 365 C815 405 915 405 1045 360" stroke="#f5f1df" stroke-width="2" fill="none" opacity=".6"/>
  </g>
<g filter="url(#softShadow)"><g class="b"><polygon points="95,123 113,129.8 113,151.8 95,145" fill="#b4b9ad" opacity=".88"/><polygon points="113,129.8 145,123 145,145 113,151.8" fill="#8f9ba0" opacity=".72"/><polygon points="95,123 127,116.2 145,123 113,129.8" fill="#eef1ea"/><path d="M103 133h16" stroke="#fff" stroke-opacity=".45"/></g><g class="b"><polygon points="380,87 413,99.5 413,160.5 380,148" fill="#b4b9ad" opacity=".88"/><polygon points="413,99.5 466,87 466,148 413,160.5" fill="#8f9ba0" opacity=".72"/><polygon points="380,87 433,74.5 466,87 413,99.5" fill="#eef1ea"/><path d="M388 97h37" stroke="#fff" stroke-opacity=".45"/></g><g class="b"><polygon points="665,109 697,121.2 697,163.2 665,151" fill="#b4b9ad" opacity=".88"/><polygon points="697,121.2 741,109 741,151 697,163.2" fill="#8f9ba0" opacity=".72"/><polygon points="665,109 709,96.8 741,109 697,121.2" fill="#eef1ea"/><path d="M673 119h28" stroke="#fff" stroke-opacity=".45"/></g><g class="b"><polygon points="950,131 981,142.8 981,165.8 950,154" fill="#b4b9ad" opacity=".88"/><polygon points="981,142.8 1016,131 1016,154 981,165.8" fill="#8f9ba0" opacity=".72"/><polygon points="950,131 985,119.2 1016,131 981,142.8" fill="#eef1ea"/><path d="M958 141h19" stroke="#fff" stroke-opacity=".45"/></g><g class="b"><polygon points="223,147 253,158.4 253,220.4 223,209" fill="#b4b9ad" opacity=".88"/><polygon points="253,158.4 309,147 309,209 253,220.4" fill="#8f9ba0" opacity=".72"/><polygon points="223,147 279,135.6 309,147 253,158.4" fill="#eef1ea"/><path d="M231 157h40" stroke="#fff" stroke-opacity=".45"/></g><g class="b"><polygon points="508,169 537,180 537,223 508,212" fill="#b4b9ad" opacity=".88"/><polygon points="537,180 584,169 584,212 537,223" fill="#8f9ba0" opacity=".72"/><polygon points="508,169 555,158 584,169 537,180" fill="#eef1ea"/><path d="M516 179h31" stroke="#fff" stroke-opacity=".45"/></g><g class="b"><polygon points="793,191 821,201.6 821,225.6 793,215" fill="#b4b9ad" opacity=".88"/><polygon points="821,201.6 859,191 859,215 821,225.6" fill="#8f9ba0" opacity=".72"/><polygon points="793,191 831,180.4 859,191 821,201.6" fill="#eef1ea"/><path d="M801 201h22" stroke="#fff" stroke-opacity=".45"/></g><g class="b"><polygon points="1078,155 1105,165.3 1105,228.3 1078,218" fill="#b4b9ad" opacity=".88"/><polygon points="1105,165.3 1164,155 1164,218 1105,228.3" fill="#8f9ba0" opacity=".72"/><polygon points="1078,155 1137,144.7 1164,155 1105,165.3" fill="#eef1ea"/><path d="M1086 165h43" stroke="#fff" stroke-opacity=".45"/></g><g class="b"><polygon points="283,207 309,216.9 309,260.9 283,251" fill="#b4b9ad" opacity=".88"/><polygon points="309,216.9 359,207 359,251 309,260.9" fill="#8f9ba0" opacity=".72"/><polygon points="283,207 333,197.1 359,207 309,216.9" fill="#eef1ea"/><path d="M291 217h34" stroke="#fff" stroke-opacity=".45"/></g></g>
<circle cx="955" cy="535" r="142" fill="#ffd66b" opacity=".18"/><circle cx="955" cy="535" r="88" fill="none" stroke="#ffe08a" stroke-width="7" opacity=".9"/>
<g transform="translate(360 250)" filter="url(#softShadow)">
      <ellipse cx="0" cy="28" rx="92" ry="34" fill="#263238" opacity=".16"/>
      <rect x="-54" y="-58" width="108" height="96" rx="6" fill="#f6f1de" opacity=".98"/>
      <path d="M-54 -58 L0 -84 L54 -58 Z" fill="#d9e6ea"/>
      <path d="M-36 -30 H36 M-36 -6 H36 M-36 18 H36" stroke="#8a9aa0" stroke-width="4" opacity=".55"/>
    </g><g transform="translate(360 156)" class="marker">
    <path d="M0 -22 C24 -22 40 -7 40 13 C40 43 0 64 0 64 C0 64 -40 43 -40 13 C-40 -7 -24 -22 0 -22Z" fill="#f4ead1" stroke="#5a533f" stroke-width="3"/>
    <circle cx="0" cy="12" r="13" fill="#b8c9d0"/>
    <text x="0" y="92" text-anchor="middle" font-size="21" font-weight="800" fill="#2f312d" paint-order="stroke" stroke="#fff5da" stroke-width="5">茶馆</text>
  </g><g transform="translate(610 245)" filter="url(#softShadow)">
      <ellipse cx="0" cy="28" rx="92" ry="34" fill="#263238" opacity=".16"/>
      <rect x="-54" y="-58" width="108" height="96" rx="6" fill="#f6f1de" opacity=".98"/>
      <path d="M-54 -58 L0 -84 L54 -58 Z" fill="#d9e6ea"/>
      <path d="M-36 -30 H36 M-36 -6 H36 M-36 18 H36" stroke="#8a9aa0" stroke-width="4" opacity=".55"/>
    </g><g transform="translate(610 151)" class="marker">
    <path d="M0 -22 C24 -22 40 -7 40 13 C40 43 0 64 0 64 C0 64 -40 43 -40 13 C-40 -7 -24 -22 0 -22Z" fill="#f4ead1" stroke="#5a533f" stroke-width="3"/>
    <circle cx="0" cy="12" r="13" fill="#b8c9d0"/>
    <text x="0" y="92" text-anchor="middle" font-size="21" font-weight="800" fill="#2f312d" paint-order="stroke" stroke="#fff5da" stroke-width="5">棋牌角</text>
  </g><g transform="translate(780 390)" filter="url(#softShadow)">
      <ellipse cx="0" cy="28" rx="92" ry="34" fill="#263238" opacity=".16"/>
      <rect x="-54" y="-58" width="108" height="96" rx="6" fill="#f6f1de" opacity=".98"/>
      <path d="M-54 -58 L0 -84 L54 -58 Z" fill="#d9e6ea"/>
      <path d="M-36 -30 H36 M-36 -6 H36 M-36 18 H36" stroke="#8a9aa0" stroke-width="4" opacity=".55"/>
    </g><g transform="translate(780 296)" class="marker">
    <path d="M0 -22 C24 -22 40 -7 40 13 C40 43 0 64 0 64 C0 64 -40 43 -40 13 C-40 -7 -24 -22 0 -22Z" fill="#f4ead1" stroke="#5a533f" stroke-width="3"/>
    <circle cx="0" cy="12" r="13" fill="#b8c9d0"/>
    <text x="0" y="92" text-anchor="middle" font-size="21" font-weight="800" fill="#2f312d" paint-order="stroke" stroke="#fff5da" stroke-width="5">湖边步道</text>
  </g><g transform="translate(470 500)" filter="url(#softShadow)">
      <ellipse cx="0" cy="28" rx="92" ry="34" fill="#263238" opacity=".16"/>
      <rect x="-54" y="-58" width="108" height="96" rx="6" fill="#f6f1de" opacity=".98"/>
      <path d="M-54 -58 L0 -84 L54 -58 Z" fill="#d9e6ea"/>
      <path d="M-36 -30 H36 M-36 -6 H36 M-36 18 H36" stroke="#8a9aa0" stroke-width="4" opacity=".55"/>
    </g><g transform="translate(470 406)" class="marker">
    <path d="M0 -22 C24 -22 40 -7 40 13 C40 43 0 64 0 64 C0 64 -40 43 -40 13 C-40 -7 -24 -22 0 -22Z" fill="#f4ead1" stroke="#5a533f" stroke-width="3"/>
    <circle cx="0" cy="12" r="13" fill="#b8c9d0"/>
    <text x="0" y="92" text-anchor="middle" font-size="21" font-weight="800" fill="#2f312d" paint-order="stroke" stroke="#fff5da" stroke-width="5">健身器材</text>
  </g><g transform="translate(910 555)" filter="url(#softShadow)">
    <rect x="-82" y="-26" width="164" height="52" rx="8" fill="#d7d9d5"/>
    <path d="M-70 6 H70" stroke="#6c7172" stroke-width="8"/>
    <path d="M-48 -11 H48" stroke="#9aa1a2" stroke-width="4"/>
    <circle cx="-36" cy="19" r="6" fill="#44525a"/><circle cx="36" cy="19" r="6" fill="#44525a"/>
  </g><g transform="translate(955 441)" class="marker">
    <path d="M0 -22 C24 -22 40 -7 40 13 C40 43 0 64 0 64 C0 64 -40 43 -40 13 C-40 -7 -24 -22 0 -22Z" fill="#ffd66b" stroke="#5a533f" stroke-width="3"/>
    <circle cx="0" cy="12" r="13" fill="#fff7cf"/>
    <text x="0" y="92" text-anchor="middle" font-size="25" font-weight="800" fill="#2f312d" paint-order="stroke" stroke="#fff5da" stroke-width="5">地铁站</text>
  </g>
<g>
  <rect x="44" y="38" width="430" height="86" rx="12" fill="#fff8e7" opacity=".86"/>
  <text x="68" y="82" font-size="34" fill="#263238" font-weight="800">地铁站</text>
  <text x="70" y="110" font-size="18" fill="#627073">人民公园 · 设施放大图</text>
</g>
<g opacity=".42" filter="url(#blur)">
    <ellipse cx="80" cy="40" rx="130" ry="42" fill="#fff"/>
    <ellipse cx="1230" cy="62" rx="145" ry="46" fill="#fff"/>
    <ellipse cx="1160" cy="695" rx="170" ry="50" fill="#fff"/>
    <ellipse cx="35" cy="680" rx="140" ry="44" fill="#fff"/>
  </g>
<rect width="1280" height="720" fill="url(#v)"/>
</svg>