<svg xmlns="http://www.w3.org/2000/svg" width="1280" height="720" viewBox="0 0 1280 720"><defs><linearGradient id="bg" x1="0" x2="1" y1="0" y2="1"><stop stop-color="#26394d"/><stop offset="1" stop-color="#182432"/></linearGradient><filter id="shadow"><feDropShadow dx="0" dy="14" stdDeviation="16" flood-color="#000" flood-opacity=".38"/></filter></defs>
<rect width="1280" height="720" fill="url(#bg)"/><circle cx="1030" cy="110" r="220" fill="#8aa4bd" opacity=".18"/><path d="M130 520 L360 330 H920 L1150 520 V650 H130 Z" fill="#edf3f4" opacity=".16" filter="url(#shadow)"/><path d="M140 590 H1140" stroke="#fff" stroke-opacity=".2" stroke-width="6"/>
<circle cx="210" cy="555" r="18" fill="#f5dcc0" opacity=".36"/><circle cx="315" cy="527" r="26" fill="#f5dcc0" opacity=".36"/><circle cx="420" cy="499" r="18" fill="#f5dcc0" opacity=".36"/><circle cx="525" cy="555" r="26" fill="#f5dcc0" opacity=".36"/><circle cx="630" cy="527" r="18" fill="#f5dcc0" opacity=".36"/><circle cx="735" cy="499" r="26" fill="#f5dcc0" opacity=".36"/><circle cx="840" cy="555" r="18" fill="#f5dcc0" opacity=".36"/><circle cx="945" cy="527" r="26" fill="#f5dcc0" opacity=".36"/><circle cx="1050" cy="499" r="18" fill="#f5dcc0" opacity=".36"/>
<g transform="translate(90 96)"><text font-size="42" fill="#fff2cf" font-weight="800">📊 会议室</text><text y="42" font-size="22" fill="#d8e2ef">高新区写字楼 · 设施场景图</text></g>
<g transform="translate(850 240)" opacity=".95"><rect x="0" y="0" width="290" height="180" rx="18" fill="#111923" opacity=".72"/><text x="145" y="78" text-anchor="middle" font-size="58">📊</text><text x="145" y="128" text-anchor="middle" font-size="26" fill="#f8ead0" font-weight="700">会议室</text></g></svg>