<svg xmlns="http://www.w3.org/2000/svg" width="1280" height="720" viewBox="0 0 1280 720">
<defs>
    <linearGradient id="ground" x1="0" y1="0" x2="1" y2="1"><stop stop-color="#e1e7e7"/><stop offset=".58" stop-color="#d3d6cb"/><stop offset="1" stop-color="#c7d2d4"/></linearGradient>
    <filter id="softShadow"><feDropShadow dx="0" dy="10" stdDeviation="8" flood-color="#1a2327" flood-opacity=".28"/></filter>
    <filter id="blur"><feGaussianBlur stdDeviation="13"/></filter>
    <radialGradient id="sun" cx="12%" cy="5%" r="75%"><stop stop-color="#fff6d6" stop-opacity=".68"/><stop offset=".42" stop-color="#fff" stop-opacity="0"/></radialGradient>
    <linearGradient id="v" x1="0" y1="0" x2="0" y2="1"><stop stop-color="#ffffff" stop-opacity=".04"/><stop offset="1" stop-color="#70848b" stop-opacity=".18"/></linearGradient>
  </defs>
<rect width="1280" height="720" fill="url(#ground)"/>
<rect width="1280" height="720" fill="url(#sun)"/>
<path d="M-30 125 C150 215 245 55 405 125 C535 180 675 120 805 65 C955 0 1115 45 1320 -25 L1320 0 C1110 90 970 55 820 120 C660 190 525 230 375 170 C225 115 155 265 -30 185Z" fill="#5f8fa3" opacity=".78"/><g opacity=".88">
    <path d="M40 410 C155 345 260 350 365 420 C245 500 135 510 40 410Z" fill="#75a766"/>
    <path d="M875 125 C980 80 1130 100 1230 175 C1100 245 980 235 875 125Z" fill="#7ca56b"/>
    <circle cx="60" cy="125" r="2" fill="#436b3c" opacity=".55"/><circle cx="133" cy="166" r="3" fill="#436b3c" opacity=".55"/><circle cx="206" cy="207" r="4" fill="#436b3c" opacity=".55"/><circle cx="279" cy="248" r="5" fill="#436b3c" opacity=".55"/><circle cx="352" cy="289" r="2" fill="#436b3c" opacity=".55"/><circle cx="425" cy="330" r="3" fill="#436b3c" opacity=".55"/><circle cx="498" cy="371" r="4" fill="#436b3c" opacity=".55"/><circle cx="571" cy="412" r="5" fill="#436b3c" opacity=".55"/><circle cx="644" cy="453" r="2" fill="#436b3c" opacity=".55"/><circle cx="717" cy="494" r="3" fill="#436b3c" opacity=".55"/><circle cx="790" cy="535" r="4" fill="#436b3c" opacity=".55"/><circle cx="863" cy="576" r="5" fill="#436b3c" opacity=".55"/><circle cx="936" cy="617" r="2" fill="#436b3c" opacity=".55"/><circle cx="1009" cy="158" r="3" fill="#436b3c" opacity=".55"/><circle cx="1082" cy="199" r="4" fill="#436b3c" opacity=".55"/><circle cx="1155" cy="240" r="5" fill="#436b3c" opacity=".55"/><circle cx="108" cy="281" r="2" fill="#436b3c" opacity=".55"/><circle cx="181" cy="322" r="3" fill="#436b3c" opacity=".55"/><circle cx="254" cy="363" r="4" fill="#436b3c" opacity=".55"/><circle cx="327" cy="404" r="5" fill="#436b3c" opacity=".55"/><circle cx="400" cy="445" r="2" fill="#436b3c" opacity=".55"/><circle cx="473" cy="486" r="3" fill="#436b3c" opacity=".55"/><circle cx="546" cy="527" r="4" fill="#436b3c" opacity=".55"/><circle cx="619" cy="568" r="5" fill="#436b3c" opacity=".55"/><circle cx="692" cy="609" r="2" fill="#436b3c" opacity=".55"/><circle cx="765" cy="150" r="3" fill="#436b3c" opacity=".55"/><circle cx="838" cy="191" r="4" fill="#436b3c" opacity=".55"/><circle cx="911" cy="232" r="5" fill="#436b3c" opacity=".55"/><circle cx="984" cy="273" r="2" fill="#436b3c" opacity=".55"/><circle cx="1057" cy="314" r="3" fill="#436b3c" opacity=".55"/><circle cx="1130" cy="355" r="4" fill="#436b3c" opacity=".55"/><circle cx="83" cy="396" r="5" fill="#436b3c" opacity=".55"/><circle cx="156" cy="437" r="2" fill="#436b3c" opacity=".55"/><circle cx="229" cy="478" r="3" fill="#436b3c" opacity=".55"/><circle cx="302" cy="519" r="4" fill="#436b3c" opacity=".55"/><circle cx="375" cy="560" r="5" fill="#436b3c" opacity=".55"/><circle cx="448" cy="601" r="2" fill="#436b3c" opacity=".55"/><circle cx="521" cy="142" r="3" fill="#436b3c" opacity=".55"/><circle cx="594" cy="183" r="4" fill="#436b3c" opacity=".55"/><circle cx="667" cy="224" r="5" fill="#436b3c" opacity=".55"/><circle cx="740" cy="265" r="2" fill="#436b3c" opacity=".55"/><circle cx="813" cy="306" r="3" fill="#436b3c" opacity=".55"/><circle cx="886" cy="347" r="4" fill="#436b3c" opacity=".55"/><circle cx="959" cy="388" r="5" fill="#436b3c" opacity=".55"/><circle cx="1032" cy="429" r="2" fill="#436b3c" opacity=".55"/><circle cx="1105" cy="470" r="3" fill="#436b3c" opacity=".55"/><circle cx="1178" cy="511" r="4" fill="#436b3c" opacity=".55"/><circle cx="131" cy="552" r="5" fill="#436b3c" opacity=".55"/><circle cx="204" cy="593" r="2" fill="#436b3c" opacity=".55"/><circle cx="277" cy="134" r="3" fill="#436b3c" opacity=".55"/><circle cx="350" cy="175" r="4" fill="#436b3c" opacity=".55"/><circle cx="423" cy="216" r="5" fill="#436b3c" opacity=".55"/><circle cx="496" cy="257" r="2" fill="#436b3c" opacity=".55"/><circle cx="569" cy="298" r="3" fill="#436b3c" opacity=".55"/><circle cx="642" cy="339" r="4" fill="#436b3c" opacity=".55"/><circle cx="715" cy="380" r="5" fill="#436b3c" opacity=".55"/><circle cx="788" cy="421" r="2" fill="#436b3c" opacity=".55"/><circle cx="861" cy="462" r="3" fill="#436b3c" opacity=".55"/><circle cx="934" cy="503" r="4" fill="#436b3c" opacity=".55"/><circle cx="1007" cy="544" r="5" fill="#436b3c" opacity=".55"/><circle cx="1080" cy="585" r="2" fill="#436b3c" opacity=".55"/><circle cx="1153" cy="126" r="3" fill="#436b3c" opacity=".55"/><circle cx="106" cy="167" r="4" fill="#436b3c" opacity=".55"/><circle cx="179" cy="208" r="5" fill="#436b3c" opacity=".55"/><circle cx="252" cy="249" r="2" fill="#436b3c" opacity=".55"/><circle cx="325" cy="290" r="3" fill="#436b3c" opacity=".55"/><circle cx="398" cy="331" r="4" fill="#436b3c" opacity=".55"/><circle cx="471" cy="372" r="5" fill="#436b3c" opacity=".55"/><circle cx="544" cy="413" r="2" fill="#436b3c" opacity=".55"/><circle cx="617" cy="454" r="3" fill="#436b3c" opacity=".55"/><circle cx="690" cy="495" r="4" fill="#436b3c" opacity=".55"/><circle cx="763" cy="536" r="5" fill="#436b3c" opacity=".55"/><circle cx="836" cy="577" r="2" fill="#436b3c" opacity=".55"/><circle cx="909" cy="618" r="3" fill="#436b3c" opacity=".55"/><circle cx="982" cy="159" r="4" fill="#436b3c" opacity=".55"/><circle cx="1055" cy="200" r="5" fill="#436b3c" opacity=".55"/><circle cx="1128" cy="241" r="2" fill="#436b3c" opacity=".55"/><circle cx="81" cy="282" r="3" fill="#436b3c" opacity=".55"/><circle cx="154" cy="323" r="4" fill="#436b3c" opacity=".55"/><circle cx="227" cy="364" r="5" fill="#436b3c" opacity=".55"/>
  </g>
<g class="roads">
    <path d="M-40 575 C190 500 365 500 565 545 C775 595 1005 575 1320 455" stroke="#464d50" stroke-width="54" fill="none"/>
    <path d="M-40 575 C190 500 365 500 565 545 C775 595 1005 575 1320 455" stroke="#eef0e8" stroke-width="4" fill="none" opacity=".65"/>
    <path d="M1020 -30 C900 120 850 285 900 505 C925 610 1005 685 1115 760" stroke="#4c5356" stroke-width="36" fill="none"/>
    <path d="M130 720 C235 540 330 390 445 270 C560 150 740 85 1110 35" stroke="#454c50" stroke-width="34" fill="none"/>
    <path d="M120 365 C330 305 520 315 685 365 C815 405 915 405 1045 360" stroke="#595f62" stroke-width="18" fill="none" opacity=".92"/>
    <path d="M120 365 C330 305 520 315 685 365 C815 405 915 405 1045 360" stroke="#f5f1df" stroke-width="2" fill="none" opacity=".6"/>
  </g>
<g filter="url(#softShadow)"><g class="b"><polygon points="95,115 117,123.4 117,153.4 95,145" fill="#c7d4d7" opacity=".88"/><polygon points="117,123.4 163,115 163,145 117,153.4" fill="#8f9ba0" opacity=".72"/><polygon points="95,115 141,106.6 163,115 117,123.4" fill="#eef1ea"/><path d="M103 125h30" stroke="#fff" stroke-opacity=".45"/></g><g class="b"><polygon points="206,107 228,115.4 228,154.4 206,146" fill="#c7d4d7" opacity=".88"/><polygon points="228,115.4 277,107 277,146 228,154.4" fill="#8f9ba0" opacity=".72"/><polygon points="206,107 255,98.6 277,107 228,115.4" fill="#eef1ea"/><path d="M214 117h33" stroke="#fff" stroke-opacity=".45"/></g><g class="b"><polygon points="293,99 315,107.4 315,155.4 293,147" fill="#c7d4d7" opacity=".88"/><polygon points="315,107.4 367,99 367,147 315,155.4" fill="#8f9ba0" opacity=".72"/><polygon points="293,99 345,90.6 367,99 315,107.4" fill="#eef1ea"/><path d="M301 109h36" stroke="#fff" stroke-opacity=".45"/></g><g class="b"><polygon points="380,91 402,99.4 402,156.4 380,148" fill="#c7d4d7" opacity=".88"/><polygon points="402,99.4 457,91 457,148 402,156.4" fill="#8f9ba0" opacity=".72"/><polygon points="380,91 435,82.6 457,91 402,99.4" fill="#eef1ea"/><path d="M388 101h39" stroke="#fff" stroke-opacity=".45"/></g><g class="b"><polygon points="491,83 513,91.4 513,157.4 491,149" fill="#c7d4d7" opacity=".88"/><polygon points="513,91.4 571,83 571,149 513,157.4" fill="#8f9ba0" opacity=".72"/><polygon points="491,83 549,74.6 571,83 513,91.4" fill="#eef1ea"/><path d="M499 93h42" stroke="#fff" stroke-opacity=".45"/></g><g class="b"><polygon points="578,113 600,121.4 600,158.4 578,150" fill="#c7d4d7" opacity=".88"/><polygon points="600,121.4 661,113 661,150 600,158.4" fill="#8f9ba0" opacity=".72"/><polygon points="578,113 639,104.6 661,113 600,121.4" fill="#eef1ea"/><path d="M586 123h45" stroke="#fff" stroke-opacity=".45"/></g><g class="b"><polygon points="665,105 687,113.4 687,159.4 665,151" fill="#c7d4d7" opacity=".88"/><polygon points="687,113.4 751,105 751,151 687,159.4" fill="#8f9ba0" opacity=".72"/><polygon points="665,105 729,96.6 751,105 687,113.4" fill="#eef1ea"/><path d="M673 115h48" stroke="#fff" stroke-opacity=".45"/></g><g class="b"><polygon points="776,97 798,105.4 798,160.4 776,152" fill="#c7d4d7" opacity=".88"/><polygon points="798,105.4 865,97 865,152 798,160.4" fill="#8f9ba0" opacity=".72"/><polygon points="776,97 843,88.6 865,97 798,105.4" fill="#eef1ea"/><path d="M784 107h51" stroke="#fff" stroke-opacity=".45"/></g><g class="b"><polygon points="863,89 885,97.4 885,161.4 863,153" fill="#c7d4d7" opacity=".88"/><polygon points="885,97.4 955,89 955,153 885,161.4" fill="#8f9ba0" opacity=".72"/><polygon points="863,89 933,80.6 955,89 885,97.4" fill="#eef1ea"/><path d="M871 99h54" stroke="#fff" stroke-opacity=".45"/></g><g class="b"><polygon points="950,119 972,127.4 972,162.4 950,154" fill="#c7d4d7" opacity=".88"/><polygon points="972,127.4 1045,119 1045,154 972,162.4" fill="#8f9ba0" opacity=".72"/><polygon points="950,119 1023,110.6 1045,119 972,127.4" fill="#eef1ea"/><path d="M958 129h57" stroke="#fff" stroke-opacity=".45"/></g><g class="b"><polygon points="1037,111 1059,119.4 1059,163.4 1037,155" fill="#c7d4d7" opacity=".88"/><polygon points="1059,119.4 1135,111 1135,155 1059,163.4" fill="#8f9ba0" opacity=".72"/><polygon points="1037,111 1113,102.6 1135,111 1059,119.4" fill="#eef1ea"/><path d="M1045 121h60" stroke="#fff" stroke-opacity=".45"/></g><g class="b"><polygon points="136,155 158,163.4 158,216.4 136,208" fill="#c7d4d7" opacity=".88"/><polygon points="158,163.4 237,155 237,208 158,216.4" fill="#8f9ba0" opacity=".72"/><polygon points="136,155 215,146.6 237,155 158,163.4" fill="#eef1ea"/><path d="M144 165h63" stroke="#fff" stroke-opacity=".45"/></g><g class="b"><polygon points="223,147 245,155.4 245,217.4 223,209" fill="#c7d4d7" opacity=".88"/><polygon points="245,155.4 291,147 291,209 245,217.4" fill="#8f9ba0" opacity=".72"/><polygon points="223,147 269,138.6 291,147 245,155.4" fill="#eef1ea"/><path d="M231 157h30" stroke="#fff" stroke-opacity=".45"/></g><g class="b"><polygon points="310,177 332,185.4 332,218.4 310,210" fill="#c7d4d7" opacity=".88"/><polygon points="332,185.4 381,177 381,210 332,218.4" fill="#8f9ba0" opacity=".72"/><polygon points="310,177 359,168.6 381,177 332,185.4" fill="#eef1ea"/><path d="M318 187h33" stroke="#fff" stroke-opacity=".45"/></g><g class="b"><polygon points="421,169 443,177.4 443,219.4 421,211" fill="#c7d4d7" opacity=".88"/><polygon points="443,177.4 495,169 495,211 443,219.4" fill="#8f9ba0" opacity=".72"/><polygon points="421,169 473,160.6 495,169 443,177.4" fill="#eef1ea"/><path d="M429 179h36" stroke="#fff" stroke-opacity=".45"/></g><g class="b"><polygon points="508,161 530,169.4 530,220.4 508,212" fill="#c7d4d7" opacity=".88"/><polygon points="530,169.4 585,161 585,212 530,220.4" fill="#8f9ba0" opacity=".72"/><polygon points="508,161 563,152.6 585,161 530,169.4" fill="#eef1ea"/><path d="M516 171h39" stroke="#fff" stroke-opacity=".45"/></g><g class="b"><polygon points="595,153 617,161.4 617,221.4 595,213" fill="#c7d4d7" opacity=".88"/><polygon points="617,161.4 675,153 675,213 617,221.4" fill="#8f9ba0" opacity=".72"/><polygon points="595,153 653,144.6 675,153 617,161.4" fill="#eef1ea"/><path d="M603 163h42" stroke="#fff" stroke-opacity=".45"/></g><g class="b"><polygon points="682,183 704,191.4 704,222.4 682,214" fill="#c7d4d7" opacity=".88"/><polygon points="704,191.4 765,183 765,214 704,222.4" fill="#8f9ba0" opacity=".72"/><polygon points="682,183 743,174.6 765,183 704,191.4" fill="#eef1ea"/><path d="M690 193h45" stroke="#fff" stroke-opacity=".45"/></g><g class="b"><polygon points="793,175 815,183.4 815,223.4 793,215" fill="#c7d4d7" opacity=".88"/><polygon points="815,183.4 879,175 879,215 815,223.4" fill="#8f9ba0" opacity=".72"/><polygon points="793,175 857,166.6 879,175 815,183.4" fill="#eef1ea"/><path d="M801 185h48" stroke="#fff" stroke-opacity=".45"/></g><g class="b"><polygon points="880,167 902,175.4 902,224.4 880,216" fill="#c7d4d7" opacity=".88"/><polygon points="902,175.4 969,167 969,216 902,224.4" fill="#8f9ba0" opacity=".72"/><polygon points="880,167 947,158.6 969,167 902,175.4" fill="#eef1ea"/><path d="M888 177h51" stroke="#fff" stroke-opacity=".45"/></g><g class="b"><polygon points="967,159 989,167.4 989,225.4 967,217" fill="#c7d4d7" opacity=".88"/><polygon points="989,167.4 1059,159 1059,217 989,225.4" fill="#8f9ba0" opacity=".72"/><polygon points="967,159 1037,150.6 1059,159 989,167.4" fill="#eef1ea"/><path d="M975 169h54" stroke="#fff" stroke-opacity=".45"/></g><g class="b"><polygon points="1078,151 1100,159.4 1100,226.4 1078,218" fill="#c7d4d7" opacity=".88"/><polygon points="1100,159.4 1173,151 1173,218 1100,226.4" fill="#8f9ba0" opacity=".72"/><polygon points="1078,151 1151,142.6 1173,151 1100,159.4" fill="#eef1ea"/><path d="M1086 161h57" stroke="#fff" stroke-opacity=".45"/></g><g class="b"><polygon points="109,211 131,219.4 131,257.4 109,249" fill="#c7d4d7" opacity=".88"/><polygon points="131,219.4 207,211 207,249 131,257.4" fill="#8f9ba0" opacity=".72"/><polygon points="109,211 185,202.6 207,211 131,219.4" fill="#eef1ea"/><path d="M117 221h60" stroke="#fff" stroke-opacity=".45"/></g><g class="b"><polygon points="196,203 218,211.4 218,258.4 196,250" fill="#c7d4d7" opacity=".88"/><polygon points="218,211.4 297,203 297,250 218,258.4" fill="#8f9ba0" opacity=".72"/><polygon points="196,203 275,194.6 297,203 218,211.4" fill="#eef1ea"/><path d="M204 213h63" stroke="#fff" stroke-opacity=".45"/></g><g class="b"><polygon points="283,195 305,203.4 305,259.4 283,251" fill="#c7d4d7" opacity=".88"/><polygon points="305,203.4 351,195 351,251 305,259.4" fill="#8f9ba0" opacity=".72"/><polygon points="283,195 329,186.6 351,195 305,203.4" fill="#eef1ea"/><path d="M291 205h30" stroke="#fff" stroke-opacity=".45"/></g><g class="b"><polygon points="394,187 416,195.4 416,260.4 394,252" fill="#c7d4d7" opacity=".88"/><polygon points="416,195.4 465,187 465,252 416,260.4" fill="#8f9ba0" opacity=".72"/><polygon points="394,187 443,178.6 465,187 416,195.4" fill="#eef1ea"/><path d="M402 197h33" stroke="#fff" stroke-opacity=".45"/></g><g class="b"><polygon points="481,217 503,225.4 503,261.4 481,253" fill="#c7d4d7" opacity=".88"/><polygon points="503,225.4 555,217 555,253 503,261.4" fill="#8f9ba0" opacity=".72"/><polygon points="481,217 533,208.6 555,217 503,225.4" fill="#eef1ea"/><path d="M489 227h36" stroke="#fff" stroke-opacity=".45"/></g><g class="b"><polygon points="568,209 590,217.4 590,262.4 568,254" fill="#c7d4d7" opacity=".88"/><polygon points="590,217.4 645,209 645,254 590,262.4" fill="#8f9ba0" opacity=".72"/><polygon points="568,209 623,200.6 645,209 590,217.4" fill="#eef1ea"/><path d="M576 219h39" stroke="#fff" stroke-opacity=".45"/></g><g class="b"><polygon points="679,201 701,209.4 701,263.4 679,255" fill="#c7d4d7" opacity=".88"/><polygon points="701,209.4 759,201 759,255 701,263.4" fill="#8f9ba0" opacity=".72"/><polygon points="679,201 737,192.6 759,201 701,209.4" fill="#eef1ea"/><path d="M687 211h42" stroke="#fff" stroke-opacity=".45"/></g><g class="b"><polygon points="766,193 788,201.4 788,264.4 766,256" fill="#c7d4d7" opacity=".88"/><polygon points="788,201.4 849,193 849,256 788,264.4" fill="#8f9ba0" opacity=".72"/><polygon points="766,193 827,184.6 849,193 788,201.4" fill="#eef1ea"/><path d="M774 203h45" stroke="#fff" stroke-opacity=".45"/></g><g class="b"><polygon points="853,223 875,231.4 875,265.4 853,257" fill="#c7d4d7" opacity=".88"/><polygon points="875,231.4 939,223 939,257 875,265.4" fill="#8f9ba0" opacity=".72"/><polygon points="853,223 917,214.6 939,223 875,231.4" fill="#eef1ea"/><path d="M861 233h48" stroke="#fff" stroke-opacity=".45"/></g><g class="b"><polygon points="964,215 986,223.4 986,266.4 964,258" fill="#c7d4d7" opacity=".88"/><polygon points="986,223.4 1053,215 1053,258 986,266.4" fill="#8f9ba0" opacity=".72"/><polygon points="964,215 1031,206.6 1053,215 986,223.4" fill="#eef1ea"/><path d="M972 225h51" stroke="#fff" stroke-opacity=".45"/></g><g class="b"><polygon points="1051,207 1073,215.4 1073,267.4 1051,259" fill="#c7d4d7" opacity=".88"/><polygon points="1073,215.4 1143,207 1143,259 1073,267.4" fill="#8f9ba0" opacity=".72"/><polygon points="1051,207 1121,198.6 1143,207 1073,215.4" fill="#eef1ea"/><path d="M1059 217h54" stroke="#fff" stroke-opacity=".45"/></g><g class="b"><polygon points="126,251 148,259.4 148,320.4 126,312" fill="#c7d4d7" opacity=".88"/><polygon points="148,259.4 221,251 221,312 148,320.4" fill="#8f9ba0" opacity=".72"/><polygon points="126,251 199,242.6 221,251 148,259.4" fill="#eef1ea"/><path d="M134 261h57" stroke="#fff" stroke-opacity=".45"/></g><g class="b"><polygon points="213,281 235,289.4 235,321.4 213,313" fill="#c7d4d7" opacity=".88"/><polygon points="235,289.4 311,281 311,313 235,321.4" fill="#8f9ba0" opacity=".72"/><polygon points="213,281 289,272.6 311,281 235,289.4" fill="#eef1ea"/><path d="M221 291h60" stroke="#fff" stroke-opacity=".45"/></g><g class="b"><polygon points="324,273 346,281.4 346,322.4 324,314" fill="#c7d4d7" opacity=".88"/><polygon points="346,281.4 425,273 425,314 346,322.4" fill="#8f9ba0" opacity=".72"/><polygon points="324,273 403,264.6 425,273 346,281.4" fill="#eef1ea"/><path d="M332 283h63" stroke="#fff" stroke-opacity=".45"/></g><g class="b"><polygon points="411,265 433,273.4 433,323.4 411,315" fill="#c7d4d7" opacity=".88"/><polygon points="433,273.4 479,265 479,315 433,323.4" fill="#8f9ba0" opacity=".72"/><polygon points="411,265 457,256.6 479,265 433,273.4" fill="#eef1ea"/><path d="M419 275h30" stroke="#fff" stroke-opacity=".45"/></g><g class="b"><polygon points="498,257 520,265.4 520,324.4 498,316" fill="#c7d4d7" opacity=".88"/><polygon points="520,265.4 569,257 569,316 520,324.4" fill="#8f9ba0" opacity=".72"/><polygon points="498,257 547,248.6 569,257 520,265.4" fill="#eef1ea"/><path d="M506 267h33" stroke="#fff" stroke-opacity=".45"/></g><g class="b"><polygon points="609,287 631,295.4 631,325.4 609,317" fill="#c7d4d7" opacity=".88"/><polygon points="631,295.4 683,287 683,317 631,325.4" fill="#8f9ba0" opacity=".72"/><polygon points="609,287 661,278.6 683,287 631,295.4" fill="#eef1ea"/><path d="M617 297h36" stroke="#fff" stroke-opacity=".45"/></g><g class="b"><polygon points="696,279 718,287.4 718,326.4 696,318" fill="#c7d4d7" opacity=".88"/><polygon points="718,287.4 773,279 773,318 718,326.4" fill="#8f9ba0" opacity=".72"/><polygon points="696,279 751,270.6 773,279 718,287.4" fill="#eef1ea"/><path d="M704 289h39" stroke="#fff" stroke-opacity=".45"/></g><g class="b"><polygon points="783,271 805,279.4 805,327.4 783,319" fill="#c7d4d7" opacity=".88"/><polygon points="805,279.4 863,271 863,319 805,327.4" fill="#8f9ba0" opacity=".72"/><polygon points="783,271 841,262.6 863,271 805,279.4" fill="#eef1ea"/><path d="M791 281h42" stroke="#fff" stroke-opacity=".45"/></g><g class="b"><polygon points="870,263 892,271.4 892,328.4 870,320" fill="#c7d4d7" opacity=".88"/><polygon points="892,271.4 953,263 953,320 892,328.4" fill="#8f9ba0" opacity=".72"/><polygon points="870,263 931,254.6 953,263 892,271.4" fill="#eef1ea"/><path d="M878 273h45" stroke="#fff" stroke-opacity=".45"/></g></g>
<circle cx="470" cy="500" r="142" fill="#ffd66b" opacity=".18"/><circle cx="470" cy="500" r="88" fill="none" stroke="#ffe08a" stroke-width="7" opacity=".9"/>
<g transform="translate(360 250)" filter="url(#softShadow)">
      <ellipse cx="0" cy="28" rx="92" ry="34" fill="#263238" opacity=".16"/>
      <rect x="-54" y="-58" width="108" height="96" rx="6" fill="#f6f1de" opacity=".98"/>
      <path d="M-54 -58 L0 -84 L54 -58 Z" fill="#d9e6ea"/>
      <path d="M-36 -30 H36 M-36 -6 H36 M-36 18 H36" stroke="#8a9aa0" stroke-width="4" opacity=".55"/>
    </g><g transform="translate(360 156)" class="marker">
    <path d="M0 -22 C24 -22 40 -7 40 13 C40 43 0 64 0 64 C0 64 -40 43 -40 13 C-40 -7 -24 -22 0 -22Z" fill="#f4ead1" stroke="#5a533f" stroke-width="3"/>
    <circle cx="0" cy="12" r="13" fill="#b8c9d0"/>
    <text x="0" y="92" text-anchor="middle" font-size="21" font-weight="800" fill="#2f312d" paint-order="stroke" stroke="#fff5da" stroke-width="5">门诊楼</text>
  </g><g transform="translate(610 245)" filter="url(#softShadow)">
      <ellipse cx="0" cy="28" rx="92" ry="34" fill="#263238" opacity=".16"/>
      <rect x="-54" y="-58" width="108" height="96" rx="6" fill="#f6f1de" opacity=".98"/>
      <path d="M-54 -58 L0 -84 L54 -58 Z" fill="#d9e6ea"/>
      <path d="M-36 -30 H36 M-36 -6 H36 M-36 18 H36" stroke="#8a9aa0" stroke-width="4" opacity=".55"/>
    </g><g transform="translate(610 151)" class="marker">
    <path d="M0 -22 C24 -22 40 -7 40 13 C40 43 0 64 0 64 C0 64 -40 43 -40 13 C-40 -7 -24 -22 0 -22Z" fill="#f4ead1" stroke="#5a533f" stroke-width="3"/>
    <circle cx="0" cy="12" r="13" fill="#b8c9d0"/>
    <text x="0" y="92" text-anchor="middle" font-size="21" font-weight="800" fill="#2f312d" paint-order="stroke" stroke="#fff5da" stroke-width="5">体检中心</text>
  </g><g transform="translate(780 390)" filter="url(#softShadow)">
      <ellipse cx="0" cy="28" rx="92" ry="34" fill="#263238" opacity=".16"/>
      <rect x="-54" y="-58" width="108" height="96" rx="6" fill="#f6f1de" opacity=".98"/>
      <path d="M-54 -58 L0 -84 L54 -58 Z" fill="#d9e6ea"/>
      <path d="M-36 -30 H36 M-36 -6 H36 M-36 18 H36" stroke="#8a9aa0" stroke-width="4" opacity=".55"/>
    </g><g transform="translate(780 296)" class="marker">
    <path d="M0 -22 C24 -22 40 -7 40 13 C40 43 0 64 0 64 C0 64 -40 43 -40 13 C-40 -7 -24 -22 0 -22Z" fill="#f4ead1" stroke="#5a533f" stroke-width="3"/>
    <circle cx="0" cy="12" r="13" fill="#b8c9d0"/>
    <text x="0" y="92" text-anchor="middle" font-size="21" font-weight="800" fill="#2f312d" paint-order="stroke" stroke="#fff5da" stroke-width="5">药房</text>
  </g><g transform="translate(470 500)" filter="url(#softShadow)">
      <ellipse cx="0" cy="28" rx="92" ry="34" fill="#263238" opacity=".16"/>
      <rect x="-54" y="-58" width="108" height="96" rx="6" fill="#fff7c2" opacity=".98"/>
      <path d="M-54 -58 L0 -84 L54 -58 Z" fill="#d9e6ea"/>
      <path d="M-36 -30 H36 M-36 -6 H36 M-36 18 H36" stroke="#8a9aa0" stroke-width="4" opacity=".55"/>
    </g><g transform="translate(470 406)" class="marker">
    <path d="M0 -22 C24 -22 40 -7 40 13 C40 43 0 64 0 64 C0 64 -40 43 -40 13 C-40 -7 -24 -22 0 -22Z" fill="#ffd66b" stroke="#5a533f" stroke-width="3"/>
    <circle cx="0" cy="12" r="13" fill="#fff7cf"/>
    <text x="0" y="92" text-anchor="middle" font-size="25" font-weight="800" fill="#2f312d" paint-order="stroke" stroke="#fff5da" stroke-width="5">急诊入口</text>
  </g><g transform="translate(910 555)" filter="url(#softShadow)">
    <rect x="-82" y="-26" width="164" height="52" rx="8" fill="#d7d9d5"/>
    <path d="M-70 6 H70" stroke="#6c7172" stroke-width="8"/>
    <path d="M-48 -11 H48" stroke="#9aa1a2" stroke-width="4"/>
    <circle cx="-36" cy="19" r="6" fill="#44525a"/><circle cx="36" cy="19" r="6" fill="#44525a"/>
  </g><g transform="translate(955 441)" class="marker">
    <path d="M0 -22 C24 -22 40 -7 40 13 C40 43 0 64 0 64 C0 64 -40 43 -40 13 C-40 -7 -24 -22 0 -22Z" fill="#f4ead1" stroke="#5a533f" stroke-width="3"/>
    <circle cx="0" cy="12" r="13" fill="#b8c9d0"/>
    <text x="0" y="92" text-anchor="middle" font-size="21" font-weight="800" fill="#2f312d" paint-order="stroke" stroke="#fff5da" stroke-width="5">地铁站</text>
  </g>
<g>
  <rect x="44" y="38" width="430" height="86" rx="12" fill="#fff8e7" opacity=".86"/>
  <text x="68" y="82" font-size="34" fill="#263238" font-weight="800">急诊入口</text>
  <text x="70" y="110" font-size="18" fill="#627073">华西医院片区 · 设施放大图</text>
</g>
<g opacity=".42" filter="url(#blur)">
    <ellipse cx="80" cy="40" rx="130" ry="42" fill="#fff"/>
    <ellipse cx="1230" cy="62" rx="145" ry="46" fill="#fff"/>
    <ellipse cx="1160" cy="695" rx="170" ry="50" fill="#fff"/>
    <ellipse cx="35" cy="680" rx="140" ry="44" fill="#fff"/>
  </g>
<rect width="1280" height="720" fill="url(#v)"/>
</svg>