<svg xmlns="http://www.w3.org/2000/svg" width="1280" height="720" viewBox="0 0 1280 720">
<defs>
    <linearGradient id="ground" x1="0" y1="0" x2="1" y2="1"><stop stop-color="#dfe4d4"/><stop offset=".58" stop-color="#d3d6cb"/><stop offset="1" stop-color="#a9b88c"/></linearGradient>
    <filter id="softShadow"><feDropShadow dx="0" dy="10" stdDeviation="8" flood-color="#1a2327" flood-opacity=".28"/></filter>
    <filter id="blur"><feGaussianBlur stdDeviation="13"/></filter>
    <radialGradient id="sun" cx="12%" cy="5%" r="75%"><stop stop-color="#fff6d6" stop-opacity=".68"/><stop offset=".42" stop-color="#fff" stop-opacity="0"/></radialGradient>
    <linearGradient id="v" x1="0" y1="0" x2="0" y2="1"><stop stop-color="#ffffff" stop-opacity=".04"/><stop offset="1" stop-color="#607948" stop-opacity=".18"/></linearGradient>
  </defs>
<rect width="1280" height="720" fill="url(#ground)"/>
<rect width="1280" height="720" fill="url(#sun)"/>
<path d="M-30 125 C150 215 245 55 405 125 C535 180 675 120 805 65 C955 0 1115 45 1320 -25 L1320 0 C1110 90 970 55 820 120 C660 190 525 230 375 170 C225 115 155 265 -30 185Z" fill="#5f8fa3" opacity=".78"/><g opacity=".88">
    <path d="M40 410 C155 345 260 350 365 420 C245 500 135 510 40 410Z" fill="#75a766"/>
    <path d="M875 125 C980 80 1130 100 1230 175 C1100 245 980 235 875 125Z" fill="#7ca56b"/>
    <circle cx="60" cy="125" r="2" fill="#436b3c" opacity=".55"/><circle cx="133" cy="166" r="3" fill="#436b3c" opacity=".55"/><circle cx="206" cy="207" r="4" fill="#436b3c" opacity=".55"/><circle cx="279" cy="248" r="5" fill="#436b3c" opacity=".55"/><circle cx="352" cy="289" r="2" fill="#436b3c" opacity=".55"/><circle cx="425" cy="330" r="3" fill="#436b3c" opacity=".55"/><circle cx="498" cy="371" r="4" fill="#436b3c" opacity=".55"/><circle cx="571" cy="412" r="5" fill="#436b3c" opacity=".55"/><circle cx="644" cy="453" r="2" fill="#436b3c" opacity=".55"/><circle cx="717" cy="494" r="3" fill="#436b3c" opacity=".55"/><circle cx="790" cy="535" r="4" fill="#436b3c" opacity=".55"/><circle cx="863" cy="576" r="5" fill="#436b3c" opacity=".55"/><circle cx="936" cy="617" r="2" fill="#436b3c" opacity=".55"/><circle cx="1009" cy="158" r="3" fill="#436b3c" opacity=".55"/><circle cx="1082" cy="199" r="4" fill="#436b3c" opacity=".55"/><circle cx="1155" cy="240" r="5" fill="#436b3c" opacity=".55"/><circle cx="108" cy="281" r="2" fill="#436b3c" opacity=".55"/><circle cx="181" cy="322" r="3" fill="#436b3c" opacity=".55"/><circle cx="254" cy="363" r="4" fill="#436b3c" opacity=".55"/><circle cx="327" cy="404" r="5" fill="#436b3c" opacity=".55"/><circle cx="400" cy="445" r="2" fill="#436b3c" opacity=".55"/><circle cx="473" cy="486" r="3" fill="#436b3c" opacity=".55"/><circle cx="546" cy="527" r="4" fill="#436b3c" opacity=".55"/><circle cx="619" cy="568" r="5" fill="#436b3c" opacity=".55"/><circle cx="692" cy="609" r="2" fill="#436b3c" opacity=".55"/><circle cx="765" cy="150" r="3" fill="#436b3c" opacity=".55"/><circle cx="838" cy="191" r="4" fill="#436b3c" opacity=".55"/><circle cx="911" cy="232" r="5" fill="#436b3c" opacity=".55"/><circle cx="984" cy="273" r="2" fill="#436b3c" opacity=".55"/><circle cx="1057" cy="314" r="3" fill="#436b3c" opacity=".55"/><circle cx="1130" cy="355" r="4" fill="#436b3c" opacity=".55"/><circle cx="83" cy="396" r="5" fill="#436b3c" opacity=".55"/><circle cx="156" cy="437" r="2" fill="#436b3c" opacity=".55"/><circle cx="229" cy="478" r="3" fill="#436b3c" opacity=".55"/><circle cx="302" cy="519" r="4" fill="#436b3c" opacity=".55"/><circle cx="375" cy="560" r="5" fill="#436b3c" opacity=".55"/><circle cx="448" cy="601" r="2" fill="#436b3c" opacity=".55"/><circle cx="521" cy="142" r="3" fill="#436b3c" opacity=".55"/><circle cx="594" cy="183" r="4" fill="#436b3c" opacity=".55"/><circle cx="667" cy="224" r="5" fill="#436b3c" opacity=".55"/><circle cx="740" cy="265" r="2" fill="#436b3c" opacity=".55"/><circle cx="813" cy="306" r="3" fill="#436b3c" opacity=".55"/><circle cx="886" cy="347" r="4" fill="#436b3c" opacity=".55"/><circle cx="959" cy="388" r="5" fill="#436b3c" opacity=".55"/><circle cx="1032" cy="429" r="2" fill="#436b3c" opacity=".55"/><circle cx="1105" cy="470" r="3" fill="#436b3c" opacity=".55"/><circle cx="1178" cy="511" r="4" fill="#436b3c" opacity=".55"/><circle cx="131" cy="552" r="5" fill="#436b3c" opacity=".55"/><circle cx="204" cy="593" r="2" fill="#436b3c" opacity=".55"/><circle cx="277" cy="134" r="3" fill="#436b3c" opacity=".55"/><circle cx="350" cy="175" r="4" fill="#436b3c" opacity=".55"/><circle cx="423" cy="216" r="5" fill="#436b3c" opacity=".55"/><circle cx="496" cy="257" r="2" fill="#436b3c" opacity=".55"/><circle cx="569" cy="298" r="3" fill="#436b3c" opacity=".55"/><circle cx="642" cy="339" r="4" fill="#436b3c" opacity=".55"/><circle cx="715" cy="380" r="5" fill="#436b3c" opacity=".55"/><circle cx="788" cy="421" r="2" fill="#436b3c" opacity=".55"/><circle cx="861" cy="462" r="3" fill="#436b3c" opacity=".55"/><circle cx="934" cy="503" r="4" fill="#436b3c" opacity=".55"/><circle cx="1007" cy="544" r="5" fill="#436b3c" opacity=".55"/><circle cx="1080" cy="585" r="2" fill="#436b3c" opacity=".55"/><circle cx="1153" cy="126" r="3" fill="#436b3c" opacity=".55"/><circle cx="106" cy="167" r="4" fill="#436b3c" opacity=".55"/><circle cx="179" cy="208" r="5" fill="#436b3c" opacity=".55"/><circle cx="252" cy="249" r="2" fill="#436b3c" opacity=".55"/><circle cx="325" cy="290" r="3" fill="#436b3c" opacity=".55"/><circle cx="398" cy="331" r="4" fill="#436b3c" opacity=".55"/><circle cx="471" cy="372" r="5" fill="#436b3c" opacity=".55"/><circle cx="544" cy="413" r="2" fill="#436b3c" opacity=".55"/><circle cx="617" cy="454" r="3" fill="#436b3c" opacity=".55"/><circle cx="690" cy="495" r="4" fill="#436b3c" opacity=".55"/><circle cx="763" cy="536" r="5" fill="#436b3c" opacity=".55"/><circle cx="836" cy="577" r="2" fill="#436b3c" opacity=".55"/><circle cx="909" cy="618" r="3" fill="#436b3c" opacity=".55"/><circle cx="982" cy="159" r="4" fill="#436b3c" opacity=".55"/><circle cx="1055" cy="200" r="5" fill="#436b3c" opacity=".55"/><circle cx="1128" cy="241" r="2" fill="#436b3c" opacity=".55"/><circle cx="81" cy="282" r="3" fill="#436b3c" opacity=".55"/><circle cx="154" cy="323" r="4" fill="#436b3c" opacity=".55"/><circle cx="227" cy="364" r="5" fill="#436b3c" opacity=".55"/>
  </g>
<g class="roads">
    <path d="M-40 575 C190 500 365 500 565 545 C775 595 1005 575 1320 455" stroke="#464d50" stroke-width="54" fill="none"/>
    <path d="M-40 575 C190 500 365 500 565 545 C775 595 1005 575 1320 455" stroke="#eef0e8" stroke-width="4" fill="none" opacity=".65"/>
    <path d="M1020 -30 C900 120 850 285 900 505 C925 610 1005 685 1115 760" stroke="#4c5356" stroke-width="36" fill="none"/>
    <path d="M130 720 C235 540 330 390 445 270 C560 150 740 85 1110 35" stroke="#454c50" stroke-width="34" fill="none"/>
    <path d="M120 365 C330 305 520 315 685 365 C815 405 915 405 1045 360" stroke="#595f62" stroke-width="18" fill="none" opacity=".92"/>
    <path d="M120 365 C330 305 520 315 685 365 C815 405 915 405 1045 360" stroke="#f5f1df" stroke-width="2" fill="none" opacity=".6"/>
  </g>
<g filter="url(#softShadow)"><g class="b"><polygon points="95,127 113,133.8 113,151.8 95,145" fill="#b4b9ad" opacity=".88"/><polygon points="113,133.8 155,127 155,145 113,151.8" fill="#8f9ba0" opacity=".72"/><polygon points="95,127 137,120.2 155,127 113,133.8" fill="#eef1ea"/><path d="M103 137h26" stroke="#fff" stroke-opacity=".45"/></g><g class="b"><polygon points="206,123 229,131.7 229,154.7 206,146" fill="#b4b9ad" opacity=".88"/><polygon points="229,131.7 274,123 274,146 229,154.7" fill="#8f9ba0" opacity=".72"/><polygon points="206,123 251,114.3 274,123 229,131.7" fill="#eef1ea"/><path d="M214 133h29" stroke="#fff" stroke-opacity=".45"/></g><g class="b"><polygon points="293,119 321,129.6 321,157.6 293,147" fill="#b4b9ad" opacity=".88"/><polygon points="321,129.6 369,119 369,147 321,157.6" fill="#8f9ba0" opacity=".72"/><polygon points="293,119 341,108.4 369,119 321,129.6" fill="#eef1ea"/><path d="M301 129h32" stroke="#fff" stroke-opacity=".45"/></g><g class="b"><polygon points="380,115 413,127.5 413,160.5 380,148" fill="#b4b9ad" opacity=".88"/><polygon points="413,127.5 464,115 464,148 413,160.5" fill="#8f9ba0" opacity=".72"/><polygon points="380,115 431,102.5 464,115 413,127.5" fill="#eef1ea"/><path d="M388 125h35" stroke="#fff" stroke-opacity=".45"/></g><g class="b"><polygon points="491,111 513,119.4 513,157.4 491,149" fill="#b4b9ad" opacity=".88"/><polygon points="513,119.4 567,111 567,149 513,157.4" fill="#8f9ba0" opacity=".72"/><polygon points="491,111 545,102.6 567,111 513,119.4" fill="#eef1ea"/><path d="M499 121h38" stroke="#fff" stroke-opacity=".45"/></g><g class="b"><polygon points="578,107 605,117.3 605,160.3 578,150" fill="#b4b9ad" opacity=".88"/><polygon points="605,117.3 662,107 662,150 605,160.3" fill="#8f9ba0" opacity=".72"/><polygon points="578,107 635,96.7 662,107 605,117.3" fill="#eef1ea"/><path d="M586 117h41" stroke="#fff" stroke-opacity=".45"/></g><g class="b"><polygon points="665,103 697,115.2 697,163.2 665,151" fill="#b4b9ad" opacity=".88"/><polygon points="697,115.2 757,103 757,151 697,163.2" fill="#8f9ba0" opacity=".72"/><polygon points="665,103 725,90.8 757,103 697,115.2" fill="#eef1ea"/><path d="M673 113h44" stroke="#fff" stroke-opacity=".45"/></g><g class="b"><polygon points="776,133 797,141 797,160 776,152" fill="#b4b9ad" opacity=".88"/><polygon points="797,141 860,133 860,152 797,160" fill="#8f9ba0" opacity=".72"/><polygon points="776,133 839,125 860,133 797,141" fill="#eef1ea"/><path d="M784 143h47" stroke="#fff" stroke-opacity=".45"/></g><g class="b"><polygon points="863,129 889,138.9 889,162.9 863,153" fill="#b4b9ad" opacity=".88"/><polygon points="889,138.9 955,129 955,153 889,162.9" fill="#8f9ba0" opacity=".72"/><polygon points="863,129 929,119.1 955,129 889,138.9" fill="#eef1ea"/><path d="M871 139h50" stroke="#fff" stroke-opacity=".45"/></g><g class="b"><polygon points="950,125 981,136.8 981,165.8 950,154" fill="#b4b9ad" opacity=".88"/><polygon points="981,136.8 1050,125 1050,154 981,165.8" fill="#8f9ba0" opacity=".72"/><polygon points="950,125 1019,113.2 1050,125 981,136.8" fill="#eef1ea"/><path d="M958 135h53" stroke="#fff" stroke-opacity=".45"/></g><g class="b"><polygon points="1037,121 1057,128.6 1057,162.6 1037,155" fill="#b4b9ad" opacity=".88"/><polygon points="1057,128.6 1129,121 1129,155 1057,162.6" fill="#8f9ba0" opacity=".72"/><polygon points="1037,121 1109,113.4 1129,121 1057,128.6" fill="#eef1ea"/><path d="M1045 131h56" stroke="#fff" stroke-opacity=".45"/></g><g class="b"><polygon points="136,169 161,178.5 161,217.5 136,208" fill="#b4b9ad" opacity=".88"/><polygon points="161,178.5 236,169 236,208 161,217.5" fill="#8f9ba0" opacity=".72"/><polygon points="136,169 211,159.5 236,169 161,178.5" fill="#eef1ea"/><path d="M144 179h59" stroke="#fff" stroke-opacity=".45"/></g><g class="b"><polygon points="223,165 253,176.4 253,220.4 223,209" fill="#b4b9ad" opacity=".88"/><polygon points="253,176.4 297,165 297,209 253,220.4" fill="#8f9ba0" opacity=".72"/><polygon points="223,165 267,153.6 297,165 253,176.4" fill="#eef1ea"/><path d="M231 175h28" stroke="#fff" stroke-opacity=".45"/></g><g class="b"><polygon points="310,161 329,168.2 329,217.2 310,210" fill="#b4b9ad" opacity=".88"/><polygon points="329,168.2 376,161 376,210 329,217.2" fill="#8f9ba0" opacity=".72"/><polygon points="310,161 357,153.8 376,161 329,168.2" fill="#eef1ea"/><path d="M318 171h31" stroke="#fff" stroke-opacity=".45"/></g><g class="b"><polygon points="421,191 445,200.1 445,220.1 421,211" fill="#b4b9ad" opacity=".88"/><polygon points="445,200.1 495,191 495,211 445,220.1" fill="#8f9ba0" opacity=".72"/><polygon points="421,191 471,181.9 495,191 445,200.1" fill="#eef1ea"/><path d="M429 201h34" stroke="#fff" stroke-opacity=".45"/></g><g class="b"><polygon points="508,187 537,198 537,223 508,212" fill="#b4b9ad" opacity=".88"/><polygon points="537,198 590,187 590,212 537,223" fill="#8f9ba0" opacity=".72"/><polygon points="508,187 561,176 590,187 537,198" fill="#eef1ea"/><path d="M516 197h37" stroke="#fff" stroke-opacity=".45"/></g><g class="b"><polygon points="595,183 613,189.8 613,219.8 595,213" fill="#b4b9ad" opacity=".88"/><polygon points="613,189.8 669,183 669,213 613,219.8" fill="#8f9ba0" opacity=".72"/><polygon points="595,183 651,176.2 669,183 613,189.8" fill="#eef1ea"/><path d="M603 193h40" stroke="#fff" stroke-opacity=".45"/></g><g class="b"><polygon points="682,179 705,187.7 705,222.7 682,214" fill="#b4b9ad" opacity=".88"/><polygon points="705,187.7 764,179 764,214 705,222.7" fill="#8f9ba0" opacity=".72"/><polygon points="682,179 741,170.3 764,179 705,187.7" fill="#eef1ea"/><path d="M690 189h43" stroke="#fff" stroke-opacity=".45"/></g><g class="b"><polygon points="793,175 821,185.6 821,225.6 793,215" fill="#b4b9ad" opacity=".88"/><polygon points="821,185.6 883,175 883,215 821,225.6" fill="#8f9ba0" opacity=".72"/><polygon points="793,175 855,164.4 883,175 821,185.6" fill="#eef1ea"/><path d="M801 185h46" stroke="#fff" stroke-opacity=".45"/></g><g class="b"><polygon points="880,171 913,183.5 913,228.5 880,216" fill="#b4b9ad" opacity=".88"/><polygon points="913,183.5 978,171 978,216 913,228.5" fill="#8f9ba0" opacity=".72"/><polygon points="880,171 945,158.5 978,171 913,183.5" fill="#eef1ea"/><path d="M888 181h49" stroke="#fff" stroke-opacity=".45"/></g><g class="b"><polygon points="967,167 989,175.4 989,225.4 967,217" fill="#b4b9ad" opacity=".88"/><polygon points="989,175.4 1057,167 1057,217 989,225.4" fill="#8f9ba0" opacity=".72"/><polygon points="967,167 1035,158.6 1057,167 989,175.4" fill="#eef1ea"/><path d="M975 177h52" stroke="#fff" stroke-opacity=".45"/></g><g class="b"><polygon points="1078,197 1105,207.3 1105,228.3 1078,218" fill="#b4b9ad" opacity=".88"/><polygon points="1105,207.3 1176,197 1176,218 1105,228.3" fill="#8f9ba0" opacity=".72"/><polygon points="1078,197 1149,186.7 1176,197 1105,207.3" fill="#eef1ea"/><path d="M1086 207h55" stroke="#fff" stroke-opacity=".45"/></g><g class="b"><polygon points="109,223 141,235.2 141,261.2 109,249" fill="#b4b9ad" opacity=".88"/><polygon points="141,235.2 215,223 215,249 141,261.2" fill="#8f9ba0" opacity=".72"/><polygon points="109,223 183,210.8 215,223 141,235.2" fill="#eef1ea"/><path d="M117 233h58" stroke="#fff" stroke-opacity=".45"/></g><g class="b"><polygon points="196,219 217,227 217,258 196,250" fill="#b4b9ad" opacity=".88"/><polygon points="217,227 260,219 260,250 217,258" fill="#8f9ba0" opacity=".72"/><polygon points="196,219 239,211 260,219 217,227" fill="#eef1ea"/><path d="M204 229h27" stroke="#fff" stroke-opacity=".45"/></g><g class="b"><polygon points="283,215 309,224.9 309,260.9 283,251" fill="#b4b9ad" opacity=".88"/><polygon points="309,224.9 355,215 355,251 309,260.9" fill="#8f9ba0" opacity=".72"/><polygon points="283,215 329,205.1 355,215 309,224.9" fill="#eef1ea"/><path d="M291 225h30" stroke="#fff" stroke-opacity=".45"/></g><g class="b"><polygon points="394,211 425,222.8 425,263.8 394,252" fill="#b4b9ad" opacity=".88"/><polygon points="425,222.8 474,211 474,252 425,263.8" fill="#8f9ba0" opacity=".72"/><polygon points="394,211 443,199.2 474,211 425,222.8" fill="#eef1ea"/><path d="M402 221h33" stroke="#fff" stroke-opacity=".45"/></g><g class="b"><polygon points="481,207 501,214.6 501,260.6 481,253" fill="#b4b9ad" opacity=".88"/><polygon points="501,214.6 553,207 553,253 501,260.6" fill="#8f9ba0" opacity=".72"/><polygon points="481,207 533,199.4 553,207 501,214.6" fill="#eef1ea"/><path d="M489 217h36" stroke="#fff" stroke-opacity=".45"/></g><g class="b"><polygon points="568,203 593,212.5 593,263.5 568,254" fill="#b4b9ad" opacity=".88"/><polygon points="593,212.5 648,203 648,254 593,263.5" fill="#8f9ba0" opacity=".72"/><polygon points="568,203 623,193.5 648,203 593,212.5" fill="#eef1ea"/><path d="M576 213h39" stroke="#fff" stroke-opacity=".45"/></g><g class="b"><polygon points="679,233 709,244.4 709,266.4 679,255" fill="#b4b9ad" opacity=".88"/><polygon points="709,244.4 767,233 767,255 709,266.4" fill="#8f9ba0" opacity=".72"/><polygon points="679,233 737,221.6 767,233 709,244.4" fill="#eef1ea"/><path d="M687 243h42" stroke="#fff" stroke-opacity=".45"/></g><g class="b"><polygon points="766,229 785,236.2 785,263.2 766,256" fill="#b4b9ad" opacity=".88"/><polygon points="785,236.2 846,229 846,256 785,263.2" fill="#8f9ba0" opacity=".72"/><polygon points="766,229 827,221.8 846,229 785,236.2" fill="#eef1ea"/><path d="M774 239h45" stroke="#fff" stroke-opacity=".45"/></g><g class="b"><polygon points="853,225 877,234.1 877,266.1 853,257" fill="#b4b9ad" opacity=".88"/><polygon points="877,234.1 941,225 941,257 877,266.1" fill="#8f9ba0" opacity=".72"/><polygon points="853,225 917,215.9 941,225 877,234.1" fill="#eef1ea"/><path d="M861 235h48" stroke="#fff" stroke-opacity=".45"/></g><g class="b"><polygon points="964,221 993,232 993,269 964,258" fill="#b4b9ad" opacity=".88"/><polygon points="993,232 1060,221 1060,258 993,269" fill="#8f9ba0" opacity=".72"/><polygon points="964,221 1031,210 1060,221 993,232" fill="#eef1ea"/><path d="M972 231h51" stroke="#fff" stroke-opacity=".45"/></g><g class="b"><polygon points="1051,217 1069,223.8 1069,265.8 1051,259" fill="#b4b9ad" opacity=".88"/><polygon points="1069,223.8 1139,217 1139,259 1069,265.8" fill="#8f9ba0" opacity=".72"/><polygon points="1051,217 1121,210.2 1139,217 1069,223.8" fill="#eef1ea"/><path d="M1059 227h54" stroke="#fff" stroke-opacity=".45"/></g><g class="b"><polygon points="126,265 149,273.7 149,320.7 126,312" fill="#b4b9ad" opacity=".88"/><polygon points="149,273.7 222,265 222,312 149,320.7" fill="#8f9ba0" opacity=".72"/><polygon points="126,265 199,256.3 222,265 149,273.7" fill="#eef1ea"/><path d="M134 275h57" stroke="#fff" stroke-opacity=".45"/></g><g class="b"><polygon points="213,295 241,305.6 241,323.6 213,313" fill="#b4b9ad" opacity=".88"/><polygon points="241,305.6 283,295 283,313 241,323.6" fill="#8f9ba0" opacity=".72"/><polygon points="213,295 255,284.4 283,295 241,305.6" fill="#eef1ea"/><path d="M221 305h26" stroke="#fff" stroke-opacity=".45"/></g><g class="b"><polygon points="324,291 357,303.5 357,326.5 324,314" fill="#b4b9ad" opacity=".88"/><polygon points="357,303.5 402,291 402,314 357,326.5" fill="#8f9ba0" opacity=".72"/><polygon points="324,291 369,278.5 402,291 357,303.5" fill="#eef1ea"/><path d="M332 301h29" stroke="#fff" stroke-opacity=".45"/></g><g class="b"><polygon points="411,287 433,295.4 433,323.4 411,315" fill="#b4b9ad" opacity=".88"/><polygon points="433,295.4 481,287 481,315 433,323.4" fill="#8f9ba0" opacity=".72"/><polygon points="411,287 459,278.6 481,287 433,295.4" fill="#eef1ea"/><path d="M419 297h32" stroke="#fff" stroke-opacity=".45"/></g><g class="b"><polygon points="498,283 525,293.3 525,326.3 498,316" fill="#b4b9ad" opacity=".88"/><polygon points="525,293.3 576,283 576,316 525,326.3" fill="#8f9ba0" opacity=".72"/><polygon points="498,283 549,272.7 576,283 525,293.3" fill="#eef1ea"/><path d="M506 293h35" stroke="#fff" stroke-opacity=".45"/></g><g class="b"><polygon points="609,279 641,291.2 641,329.2 609,317" fill="#b4b9ad" opacity=".88"/><polygon points="641,291.2 695,279 695,317 641,329.2" fill="#8f9ba0" opacity=".72"/><polygon points="609,279 663,266.8 695,279 641,291.2" fill="#eef1ea"/><path d="M617 289h38" stroke="#fff" stroke-opacity=".45"/></g><g class="b"><polygon points="696,275 717,283 717,326 696,318" fill="#d5e6ed" opacity=".88"/><polygon points="717,283 774,275 774,318 717,326" fill="#8f9ba0" opacity=".72"/><polygon points="696,275 753,267 774,275 717,283" fill="#ffffff"/><path d="M704 285h41" stroke="#fff" stroke-opacity=".45"/></g><g class="b"><polygon points="783,271 809,280.9 809,328.9 783,319" fill="#d5e6ed" opacity=".88"/><polygon points="809,280.9 869,271 869,319 809,328.9" fill="#8f9ba0" opacity=".72"/><polygon points="783,271 843,261.1 869,271 809,280.9" fill="#ffffff"/><path d="M791 281h44" stroke="#fff" stroke-opacity=".45"/></g><g class="b"><polygon points="870,301 901,312.8 901,331.8 870,320" fill="#d5e6ed" opacity=".88"/><polygon points="901,312.8 964,301 964,320 901,331.8" fill="#8f9ba0" opacity=".72"/><polygon points="870,301 933,289.2 964,301 901,312.8" fill="#ffffff"/><path d="M878 311h47" stroke="#fff" stroke-opacity=".45"/></g><g class="b"><polygon points="981,297 1001,304.6 1001,328.6 981,321" fill="#b4b9ad" opacity=".88"/><polygon points="1001,304.6 1067,297 1067,321 1001,328.6" fill="#8f9ba0" opacity=".72"/><polygon points="981,297 1047,289.4 1067,297 1001,304.6" fill="#eef1ea"/><path d="M989 307h50" stroke="#fff" stroke-opacity=".45"/></g><g class="b"><polygon points="1068,293 1093,302.5 1093,331.5 1068,322" fill="#b4b9ad" opacity=".88"/><polygon points="1093,302.5 1162,293 1162,322 1093,331.5" fill="#8f9ba0" opacity=".72"/><polygon points="1068,293 1137,283.5 1162,293 1093,302.5" fill="#eef1ea"/><path d="M1076 303h53" stroke="#fff" stroke-opacity=".45"/></g><g class="b"><polygon points="99,319 129,330.4 129,364.4 99,353" fill="#b4b9ad" opacity=".88"/><polygon points="129,330.4 201,319 201,353 129,364.4" fill="#8f9ba0" opacity=".72"/><polygon points="99,319 171,307.6 201,319 129,330.4" fill="#eef1ea"/><path d="M107 329h56" stroke="#fff" stroke-opacity=".45"/></g><g class="b"><polygon points="210,315 229,322.2 229,361.2 210,354" fill="#b4b9ad" opacity=".88"/><polygon points="229,322.2 304,315 304,354 229,361.2" fill="#8f9ba0" opacity=".72"/><polygon points="210,315 285,307.8 304,315 229,322.2" fill="#eef1ea"/><path d="M218 325h59" stroke="#fff" stroke-opacity=".45"/></g><g class="b"><polygon points="297,311 321,320.1 321,364.1 297,355" fill="#b4b9ad" opacity=".88"/><polygon points="321,320.1 365,311 365,355 321,364.1" fill="#8f9ba0" opacity=".72"/><polygon points="297,311 341,301.9 365,311 321,320.1" fill="#eef1ea"/><path d="M305 321h28" stroke="#fff" stroke-opacity=".45"/></g><g class="b"><polygon points="384,307 413,318 413,367 384,356" fill="#b4b9ad" opacity=".88"/><polygon points="413,318 460,307 460,356 413,367" fill="#8f9ba0" opacity=".72"/><polygon points="384,307 431,296 460,307 413,318" fill="#eef1ea"/><path d="M392 317h31" stroke="#fff" stroke-opacity=".45"/></g><g class="b"><polygon points="471,337 489,343.8 489,363.8 471,357" fill="#b4b9ad" opacity=".88"/><polygon points="489,343.8 539,337 539,357 489,363.8" fill="#8f9ba0" opacity=".72"/><polygon points="471,337 521,330.2 539,337 489,343.8" fill="#eef1ea"/><path d="M479 347h34" stroke="#fff" stroke-opacity=".45"/></g><g class="b"><polygon points="582,333 605,341.7 605,366.7 582,358" fill="#b4b9ad" opacity=".88"/><polygon points="605,341.7 658,333 658,358 605,366.7" fill="#8f9ba0" opacity=".72"/><polygon points="582,333 635,324.3 658,333 605,341.7" fill="#eef1ea"/><path d="M590 343h37" stroke="#fff" stroke-opacity=".45"/></g><g class="b"><polygon points="669,329 697,339.6 697,369.6 669,359" fill="#b4b9ad" opacity=".88"/><polygon points="697,339.6 753,329 753,359 697,369.6" fill="#8f9ba0" opacity=".72"/><polygon points="669,329 725,318.4 753,329 697,339.6" fill="#eef1ea"/><path d="M677 339h40" stroke="#fff" stroke-opacity=".45"/></g><g class="b"><polygon points="756,325 789,337.5 789,372.5 756,360" fill="#d5e6ed" opacity=".88"/><polygon points="789,337.5 848,325 848,360 789,372.5" fill="#8f9ba0" opacity=".72"/><polygon points="756,325 815,312.5 848,325 789,337.5" fill="#ffffff"/><path d="M764 335h43" stroke="#fff" stroke-opacity=".45"/></g><g class="b"><polygon points="867,321 889,329.4 889,369.4 867,361" fill="#d5e6ed" opacity=".88"/><polygon points="889,329.4 951,321 951,361 889,369.4" fill="#8f9ba0" opacity=".72"/><polygon points="867,321 929,312.6 951,321 889,329.4" fill="#ffffff"/><path d="M875 331h46" stroke="#fff" stroke-opacity=".45"/></g><g class="b"><polygon points="954,317 981,327.3 981,372.3 954,362" fill="#b4b9ad" opacity=".88"/><polygon points="981,327.3 1046,317 1046,362 981,372.3" fill="#8f9ba0" opacity=".72"/><polygon points="954,317 1019,306.7 1046,317 981,327.3" fill="#eef1ea"/><path d="M962 327h49" stroke="#fff" stroke-opacity=".45"/></g><g class="b"><polygon points="1041,313 1073,325.2 1073,375.2 1041,363" fill="#b4b9ad" opacity=".88"/><polygon points="1073,325.2 1141,313 1141,363 1073,375.2" fill="#8f9ba0" opacity=".72"/><polygon points="1041,313 1109,300.8 1141,313 1073,325.2" fill="#eef1ea"/><path d="M1049 323h52" stroke="#fff" stroke-opacity=".45"/></g><g class="b"><polygon points="140,395 161,403 161,424 140,416" fill="#b4b9ad" opacity=".88"/><polygon points="161,403 232,395 232,416 161,424" fill="#8f9ba0" opacity=".72"/><polygon points="140,395 211,387 232,395 161,403" fill="#eef1ea"/><path d="M148 405h55" stroke="#fff" stroke-opacity=".45"/></g></g>
<circle cx="780" cy="390" r="142" fill="#ffd66b" opacity=".18"/><circle cx="780" cy="390" r="88" fill="none" stroke="#ffe08a" stroke-width="7" opacity=".9"/>
<g transform="translate(360 250)" filter="url(#softShadow)">
      <ellipse cx="0" cy="28" rx="92" ry="34" fill="#263238" opacity=".16"/>
      <rect x="-54" y="-58" width="108" height="96" rx="6" fill="#f6f1de" opacity=".98"/>
      <path d="M-54 -58 L0 -84 L54 -58 Z" fill="#d9e6ea"/>
      <path d="M-36 -30 H36 M-36 -6 H36 M-36 18 H36" stroke="#8a9aa0" stroke-width="4" opacity=".55"/>
    </g><g transform="translate(360 156)" class="marker">
    <path d="M0 -22 C24 -22 40 -7 40 13 C40 43 0 64 0 64 C0 64 -40 43 -40 13 C-40 -7 -24 -22 0 -22Z" fill="#f4ead1" stroke="#5a533f" stroke-width="3"/>
    <circle cx="0" cy="12" r="13" fill="#b8c9d0"/>
    <text x="0" y="92" text-anchor="middle" font-size="21" font-weight="800" fill="#2f312d" paint-order="stroke" stroke="#fff5da" stroke-width="5">教学楼</text>
  </g><g transform="translate(610 245)" filter="url(#softShadow)">
      <ellipse cx="0" cy="28" rx="92" ry="34" fill="#263238" opacity=".16"/>
      <rect x="-54" y="-58" width="108" height="96" rx="6" fill="#f6f1de" opacity=".98"/>
      <path d="M-54 -58 L0 -84 L54 -58 Z" fill="#d9e6ea"/>
      <path d="M-36 -30 H36 M-36 -6 H36 M-36 18 H36" stroke="#8a9aa0" stroke-width="4" opacity=".55"/>
    </g><g transform="translate(610 151)" class="marker">
    <path d="M0 -22 C24 -22 40 -7 40 13 C40 43 0 64 0 64 C0 64 -40 43 -40 13 C-40 -7 -24 -22 0 -22Z" fill="#f4ead1" stroke="#5a533f" stroke-width="3"/>
    <circle cx="0" cy="12" r="13" fill="#b8c9d0"/>
    <text x="0" y="92" text-anchor="middle" font-size="21" font-weight="800" fill="#2f312d" paint-order="stroke" stroke="#fff5da" stroke-width="5">自习室</text>
  </g><g transform="translate(780 390)" filter="url(#softShadow)">
      <ellipse cx="0" cy="28" rx="92" ry="34" fill="#263238" opacity=".16"/>
      <rect x="-54" y="-58" width="108" height="96" rx="6" fill="#fff7c2" opacity=".98"/>
      <path d="M-54 -58 L0 -84 L54 -58 Z" fill="#d9e6ea"/>
      <path d="M-36 -30 H36 M-36 -6 H36 M-36 18 H36" stroke="#8a9aa0" stroke-width="4" opacity=".55"/>
    </g><g transform="translate(780 296)" class="marker">
    <path d="M0 -22 C24 -22 40 -7 40 13 C40 43 0 64 0 64 C0 64 -40 43 -40 13 C-40 -7 -24 -22 0 -22Z" fill="#ffd66b" stroke="#5a533f" stroke-width="3"/>
    <circle cx="0" cy="12" r="13" fill="#fff7cf"/>
    <text x="0" y="92" text-anchor="middle" font-size="25" font-weight="800" fill="#2f312d" paint-order="stroke" stroke="#fff5da" stroke-width="5">校招宣讲厅</text>
  </g><g transform="translate(470 500)" filter="url(#softShadow)">
      <ellipse cx="0" cy="28" rx="92" ry="34" fill="#263238" opacity=".16"/>
      <rect x="-54" y="-58" width="108" height="96" rx="6" fill="#f6f1de" opacity=".98"/>
      <path d="M-54 -58 L0 -84 L54 -58 Z" fill="#d9e6ea"/>
      <path d="M-36 -30 H36 M-36 -6 H36 M-36 18 H36" stroke="#8a9aa0" stroke-width="4" opacity=".55"/>
    </g><g transform="translate(470 406)" class="marker">
    <path d="M0 -22 C24 -22 40 -7 40 13 C40 43 0 64 0 64 C0 64 -40 43 -40 13 C-40 -7 -24 -22 0 -22Z" fill="#f4ead1" stroke="#5a533f" stroke-width="3"/>
    <circle cx="0" cy="12" r="13" fill="#b8c9d0"/>
    <text x="0" y="92" text-anchor="middle" font-size="21" font-weight="800" fill="#2f312d" paint-order="stroke" stroke="#fff5da" stroke-width="5">食堂</text>
  </g><g transform="translate(910 555)" filter="url(#softShadow)">
    <rect x="-82" y="-26" width="164" height="52" rx="8" fill="#d7d9d5"/>
    <path d="M-70 6 H70" stroke="#6c7172" stroke-width="8"/>
    <path d="M-48 -11 H48" stroke="#9aa1a2" stroke-width="4"/>
    <circle cx="-36" cy="19" r="6" fill="#44525a"/><circle cx="36" cy="19" r="6" fill="#44525a"/>
  </g><g transform="translate(955 441)" class="marker">
    <path d="M0 -22 C24 -22 40 -7 40 13 C40 43 0 64 0 64 C0 64 -40 43 -40 13 C-40 -7 -24 -22 0 -22Z" fill="#f4ead1" stroke="#5a533f" stroke-width="3"/>
    <circle cx="0" cy="12" r="13" fill="#b8c9d0"/>
    <text x="0" y="92" text-anchor="middle" font-size="21" font-weight="800" fill="#2f312d" paint-order="stroke" stroke="#fff5da" stroke-width="5">宿舍区</text>
  </g>
<g>
  <rect x="44" y="38" width="430" height="86" rx="12" fill="#fff8e7" opacity=".86"/>
  <text x="68" y="82" font-size="34" fill="#263238" font-weight="800">校招宣讲厅</text>
  <text x="70" y="110" font-size="18" fill="#627073">川大望江校园 · 设施放大图</text>
</g>
<g opacity=".42" filter="url(#blur)">
    <ellipse cx="80" cy="40" rx="130" ry="42" fill="#fff"/>
    <ellipse cx="1230" cy="62" rx="145" ry="46" fill="#fff"/>
    <ellipse cx="1160" cy="695" rx="170" ry="50" fill="#fff"/>
    <ellipse cx="35" cy="680" rx="140" ry="44" fill="#fff"/>
  </g>
<rect width="1280" height="720" fill="url(#v)"/>
</svg>