<svg xmlns="http://www.w3.org/2000/svg" width="1280" height="720" viewBox="0 0 1280 720">
<defs>
    <linearGradient id="ground" x1="0" y1="0" x2="1" y2="1"><stop stop-color="#dce5e8"/><stop offset=".58" stop-color="#d3d6cb"/><stop offset="1" stop-color="#b9c6cf"/></linearGradient>
    <filter id="softShadow"><feDropShadow dx="0" dy="10" stdDeviation="8" flood-color="#1a2327" flood-opacity=".28"/></filter>
    <filter id="blur"><feGaussianBlur stdDeviation="13"/></filter>
    <radialGradient id="sun" cx="12%" cy="5%" r="75%"><stop stop-color="#fff6d6" stop-opacity=".68"/><stop offset=".42" stop-color="#fff" stop-opacity="0"/></radialGradient>
    <linearGradient id="v" x1="0" y1="0" x2="0" y2="1"><stop stop-color="#ffffff" stop-opacity=".04"/><stop offset="1" stop-color="#5d7184" stop-opacity=".18"/></linearGradient>
  </defs>
<rect width="1280" height="720" fill="url(#ground)"/>
<rect width="1280" height="720" fill="url(#sun)"/>
<path d="M-30 125 C150 215 245 55 405 125 C535 180 675 120 805 65 C955 0 1115 45 1320 -25 L1320 0 C1110 90 970 55 820 120 C660 190 525 230 375 170 C225 115 155 265 -30 185Z" fill="#5f8fa3" opacity=".78"/><g opacity=".88">
    <path d="M40 410 C155 345 260 350 365 420 C245 500 135 510 40 410Z" fill="#75a766"/>
    <path d="M875 125 C980 80 1130 100 1230 175 C1100 245 980 235 875 125Z" fill="#7ca56b"/>
    <circle cx="60" cy="125" r="2" fill="#436b3c" opacity=".55"/><circle cx="133" cy="166" r="3" fill="#436b3c" opacity=".55"/><circle cx="206" cy="207" r="4" fill="#436b3c" opacity=".55"/><circle cx="279" cy="248" r="5" fill="#436b3c" opacity=".55"/><circle cx="352" cy="289" r="2" fill="#436b3c" opacity=".55"/><circle cx="425" cy="330" r="3" fill="#436b3c" opacity=".55"/><circle cx="498" cy="371" r="4" fill="#436b3c" opacity=".55"/><circle cx="571" cy="412" r="5" fill="#436b3c" opacity=".55"/><circle cx="644" cy="453" r="2" fill="#436b3c" opacity=".55"/><circle cx="717" cy="494" r="3" fill="#436b3c" opacity=".55"/><circle cx="790" cy="535" r="4" fill="#436b3c" opacity=".55"/><circle cx="863" cy="576" r="5" fill="#436b3c" opacity=".55"/><circle cx="936" cy="617" r="2" fill="#436b3c" opacity=".55"/><circle cx="1009" cy="158" r="3" fill="#436b3c" opacity=".55"/><circle cx="1082" cy="199" r="4" fill="#436b3c" opacity=".55"/><circle cx="1155" cy="240" r="5" fill="#436b3c" opacity=".55"/><circle cx="108" cy="281" r="2" fill="#436b3c" opacity=".55"/><circle cx="181" cy="322" r="3" fill="#436b3c" opacity=".55"/><circle cx="254" cy="363" r="4" fill="#436b3c" opacity=".55"/><circle cx="327" cy="404" r="5" fill="#436b3c" opacity=".55"/><circle cx="400" cy="445" r="2" fill="#436b3c" opacity=".55"/><circle cx="473" cy="486" r="3" fill="#436b3c" opacity=".55"/><circle cx="546" cy="527" r="4" fill="#436b3c" opacity=".55"/><circle cx="619" cy="568" r="5" fill="#436b3c" opacity=".55"/><circle cx="692" cy="609" r="2" fill="#436b3c" opacity=".55"/><circle cx="765" cy="150" r="3" fill="#436b3c" opacity=".55"/><circle cx="838" cy="191" r="4" fill="#436b3c" opacity=".55"/><circle cx="911" cy="232" r="5" fill="#436b3c" opacity=".55"/><circle cx="984" cy="273" r="2" fill="#436b3c" opacity=".55"/><circle cx="1057" cy="314" r="3" fill="#436b3c" opacity=".55"/><circle cx="1130" cy="355" r="4" fill="#436b3c" opacity=".55"/><circle cx="83" cy="396" r="5" fill="#436b3c" opacity=".55"/><circle cx="156" cy="437" r="2" fill="#436b3c" opacity=".55"/><circle cx="229" cy="478" r="3" fill="#436b3c" opacity=".55"/><circle cx="302" cy="519" r="4" fill="#436b3c" opacity=".55"/><circle cx="375" cy="560" r="5" fill="#436b3c" opacity=".55"/><circle cx="448" cy="601" r="2" fill="#436b3c" opacity=".55"/><circle cx="521" cy="142" r="3" fill="#436b3c" opacity=".55"/><circle cx="594" cy="183" r="4" fill="#436b3c" opacity=".55"/><circle cx="667" cy="224" r="5" fill="#436b3c" opacity=".55"/><circle cx="740" cy="265" r="2" fill="#436b3c" opacity=".55"/><circle cx="813" cy="306" r="3" fill="#436b3c" opacity=".55"/><circle cx="886" cy="347" r="4" fill="#436b3c" opacity=".55"/><circle cx="959" cy="388" r="5" fill="#436b3c" opacity=".55"/><circle cx="1032" cy="429" r="2" fill="#436b3c" opacity=".55"/><circle cx="1105" cy="470" r="3" fill="#436b3c" opacity=".55"/><circle cx="1178" cy="511" r="4" fill="#436b3c" opacity=".55"/><circle cx="131" cy="552" r="5" fill="#436b3c" opacity=".55"/><circle cx="204" cy="593" r="2" fill="#436b3c" opacity=".55"/><circle cx="277" cy="134" r="3" fill="#436b3c" opacity=".55"/><circle cx="350" cy="175" r="4" fill="#436b3c" opacity=".55"/><circle cx="423" cy="216" r="5" fill="#436b3c" opacity=".55"/><circle cx="496" cy="257" r="2" fill="#436b3c" opacity=".55"/><circle cx="569" cy="298" r="3" fill="#436b3c" opacity=".55"/><circle cx="642" cy="339" r="4" fill="#436b3c" opacity=".55"/><circle cx="715" cy="380" r="5" fill="#436b3c" opacity=".55"/><circle cx="788" cy="421" r="2" fill="#436b3c" opacity=".55"/><circle cx="861" cy="462" r="3" fill="#436b3c" opacity=".55"/><circle cx="934" cy="503" r="4" fill="#436b3c" opacity=".55"/><circle cx="1007" cy="544" r="5" fill="#436b3c" opacity=".55"/><circle cx="1080" cy="585" r="2" fill="#436b3c" opacity=".55"/><circle cx="1153" cy="126" r="3" fill="#436b3c" opacity=".55"/><circle cx="106" cy="167" r="4" fill="#436b3c" opacity=".55"/><circle cx="179" cy="208" r="5" fill="#436b3c" opacity=".55"/><circle cx="252" cy="249" r="2" fill="#436b3c" opacity=".55"/><circle cx="325" cy="290" r="3" fill="#436b3c" opacity=".55"/><circle cx="398" cy="331" r="4" fill="#436b3c" opacity=".55"/><circle cx="471" cy="372" r="5" fill="#436b3c" opacity=".55"/><circle cx="544" cy="413" r="2" fill="#436b3c" opacity=".55"/><circle cx="617" cy="454" r="3" fill="#436b3c" opacity=".55"/><circle cx="690" cy="495" r="4" fill="#436b3c" opacity=".55"/><circle cx="763" cy="536" r="5" fill="#436b3c" opacity=".55"/><circle cx="836" cy="577" r="2" fill="#436b3c" opacity=".55"/><circle cx="909" cy="618" r="3" fill="#436b3c" opacity=".55"/><circle cx="982" cy="159" r="4" fill="#436b3c" opacity=".55"/><circle cx="1055" cy="200" r="5" fill="#436b3c" opacity=".55"/><circle cx="1128" cy="241" r="2" fill="#436b3c" opacity=".55"/><circle cx="81" cy="282" r="3" fill="#436b3c" opacity=".55"/><circle cx="154" cy="323" r="4" fill="#436b3c" opacity=".55"/><circle cx="227" cy="364" r="5" fill="#436b3c" opacity=".55"/>
  </g>
<g class="roads">
    <path d="M-40 575 C190 500 365 500 565 545 C775 595 1005 575 1320 455" stroke="#464d50" stroke-width="54" fill="none"/>
    <path d="M-40 575 C190 500 365 500 565 545 C775 595 1005 575 1320 455" stroke="#eef0e8" stroke-width="4" fill="none" opacity=".65"/>
    <path d="M1020 -30 C900 120 850 285 900 505 C925 610 1005 685 1115 760" stroke="#4c5356" stroke-width="36" fill="none"/>
    <path d="M130 720 C235 540 330 390 445 270 C560 150 740 85 1110 35" stroke="#454c50" stroke-width="34" fill="none"/>
    <path d="M120 365 C330 305 520 315 685 365 C815 405 915 405 1045 360" stroke="#595f62" stroke-width="18" fill="none" opacity=".92"/>
    <path d="M120 365 C330 305 520 315 685 365 C815 405 915 405 1045 360" stroke="#f5f1df" stroke-width="2" fill="none" opacity=".6"/>
  </g>
<g filter="url(#softShadow)"><g class="b"><polygon points="95,101 113,107.8 113,151.8 95,145" fill="#9fb5c2" opacity=".88"/><polygon points="113,107.8 145,101 145,145 113,151.8" fill="#8f9ba0" opacity=".72"/><polygon points="95,101 127,94.2 145,101 113,107.8" fill="#eef1ea"/><path d="M103 111h16" stroke="#fff" stroke-opacity=".45"/></g><g class="b"><polygon points="206,89 229,97.7 229,154.7 206,146" fill="#9fb5c2" opacity=".88"/><polygon points="229,97.7 268,89 268,146 229,154.7" fill="#8f9ba0" opacity=".72"/><polygon points="206,89 245,80.3 268,89 229,97.7" fill="#eef1ea"/><path d="M214 99h23" stroke="#fff" stroke-opacity=".45"/></g><g class="b"><polygon points="293,77 321,87.6 321,157.6 293,147" fill="#9fb5c2" opacity=".88"/><polygon points="321,87.6 367,77 367,147 321,157.6" fill="#8f9ba0" opacity=".72"/><polygon points="293,77 339,66.4 367,77 321,87.6" fill="#eef1ea"/><path d="M301 87h30" stroke="#fff" stroke-opacity=".45"/></g><g class="b"><polygon points="380,65 413,77.5 413,160.5 380,148" fill="#9fb5c2" opacity=".88"/><polygon points="413,77.5 466,65 466,148 413,160.5" fill="#8f9ba0" opacity=".72"/><polygon points="380,65 433,52.5 466,65 413,77.5" fill="#eef1ea"/><path d="M388 75h37" stroke="#fff" stroke-opacity=".45"/></g><g class="b"><polygon points="491,3 513,11.4 513,157.4 491,149" fill="#9fb5c2" opacity=".88"/><polygon points="513,11.4 573,3 573,149 513,157.4" fill="#8f9ba0" opacity=".72"/><polygon points="491,3 551,-5.4 573,3 513,11.4" fill="#eef1ea"/><path d="M499 13h44" stroke="#fff" stroke-opacity=".45"/></g><g class="b"><polygon points="578,49 605,59.3 605,160.3 578,150" fill="#9fb5c2" opacity=".88"/><polygon points="605,59.3 642,49 642,150 605,160.3" fill="#8f9ba0" opacity=".72"/><polygon points="578,49 615,38.7 642,49 605,59.3" fill="#eef1ea"/><path d="M586 59h21" stroke="#fff" stroke-opacity=".45"/></g><g class="b"><polygon points="665,37 697,49.2 697,163.2 665,151" fill="#9fb5c2" opacity=".88"/><polygon points="697,49.2 741,37 741,151 697,163.2" fill="#8f9ba0" opacity=".72"/><polygon points="665,37 709,24.8 741,37 697,49.2" fill="#eef1ea"/><path d="M673 47h28" stroke="#fff" stroke-opacity=".45"/></g><g class="b"><polygon points="776,25 797,33 797,160 776,152" fill="#9fb5c2" opacity=".88"/><polygon points="797,33 848,25 848,152 797,160" fill="#8f9ba0" opacity=".72"/><polygon points="776,25 827,17 848,25 797,33" fill="#eef1ea"/><path d="M784 35h35" stroke="#fff" stroke-opacity=".45"/></g><g class="b"><polygon points="863,63 889,72.9 889,162.9 863,153" fill="#9fb5c2" opacity=".88"/><polygon points="889,72.9 947,63 947,153 889,162.9" fill="#8f9ba0" opacity=".72"/><polygon points="863,63 921,53.1 947,63 889,72.9" fill="#eef1ea"/><path d="M871 73h42" stroke="#fff" stroke-opacity=".45"/></g><g class="b"><polygon points="950,109 981,120.8 981,165.8 950,154" fill="#9fb5c2" opacity=".88"/><polygon points="981,120.8 1016,109 1016,154 981,165.8" fill="#8f9ba0" opacity=".72"/><polygon points="950,109 985,97.2 1016,109 981,120.8" fill="#eef1ea"/><path d="M958 119h19" stroke="#fff" stroke-opacity=".45"/></g><g class="b"><polygon points="1037,97 1057,104.6 1057,162.6 1037,155" fill="#9fb5c2" opacity=".88"/><polygon points="1057,104.6 1099,97 1099,155 1057,162.6" fill="#8f9ba0" opacity=".72"/><polygon points="1037,97 1079,89.4 1099,97 1057,104.6" fill="#eef1ea"/><path d="M1045 107h26" stroke="#fff" stroke-opacity=".45"/></g><g class="b"><polygon points="136,137 161,146.5 161,217.5 136,208" fill="#9fb5c2" opacity=".88"/><polygon points="161,146.5 210,137 210,208 161,217.5" fill="#8f9ba0" opacity=".72"/><polygon points="136,137 185,127.5 210,137 161,146.5" fill="#eef1ea"/><path d="M144 147h33" stroke="#fff" stroke-opacity=".45"/></g><g class="b"><polygon points="223,125 253,136.4 253,220.4 223,209" fill="#9fb5c2" opacity=".88"/><polygon points="253,136.4 309,125 309,209 253,220.4" fill="#8f9ba0" opacity=".72"/><polygon points="223,125 279,113.6 309,125 253,136.4" fill="#eef1ea"/><path d="M231 135h40" stroke="#fff" stroke-opacity=".45"/></g><g class="b"><polygon points="310,113 329,120.2 329,217.2 310,210" fill="#9fb5c2" opacity=".88"/><polygon points="329,120.2 362,113 362,210 329,217.2" fill="#8f9ba0" opacity=".72"/><polygon points="310,113 343,105.8 362,113 329,120.2" fill="#eef1ea"/><path d="M318 123h17" stroke="#fff" stroke-opacity=".45"/></g><g class="b"><polygon points="421,159 445,168.1 445,220.1 421,211" fill="#9fb5c2" opacity=".88"/><polygon points="445,168.1 485,159 485,211 445,220.1" fill="#8f9ba0" opacity=".72"/><polygon points="421,159 461,149.9 485,159 445,168.1" fill="#eef1ea"/><path d="M429 169h24" stroke="#fff" stroke-opacity=".45"/></g><g class="b"><polygon points="508,97 537,108 537,223 508,212" fill="#9fb5c2" opacity=".88"/><polygon points="537,108 584,97 584,212 537,223" fill="#8f9ba0" opacity=".72"/><polygon points="508,97 555,86 584,97 537,108" fill="#eef1ea"/><path d="M516 107h31" stroke="#fff" stroke-opacity=".45"/></g><g class="b"><polygon points="595,85 613,91.8 613,219.8 595,213" fill="#9fb5c2" opacity=".88"/><polygon points="613,91.8 667,85 667,213 613,219.8" fill="#8f9ba0" opacity=".72"/><polygon points="595,85 649,78.2 667,85 613,91.8" fill="#eef1ea"/><path d="M603 95h38" stroke="#fff" stroke-opacity=".45"/></g><g class="b"><polygon points="682,73 705,81.7 705,222.7 682,214" fill="#9fb5c2" opacity=".88"/><polygon points="705,81.7 766,73 766,214 705,222.7" fill="#8f9ba0" opacity=".72"/><polygon points="682,73 743,64.3 766,73 705,81.7" fill="#eef1ea"/><path d="M690 83h45" stroke="#fff" stroke-opacity=".45"/></g><g class="b"><polygon points="793,119 821,129.6 821,225.6 793,215" fill="#9fb5c2" opacity=".88"/><polygon points="821,129.6 859,119 859,215 821,225.6" fill="#8f9ba0" opacity=".72"/><polygon points="793,119 831,108.4 859,119 821,129.6" fill="#eef1ea"/><path d="M801 129h22" stroke="#fff" stroke-opacity=".45"/></g><g class="b"><polygon points="880,157 913,169.5 913,228.5 880,216" fill="#9fb5c2" opacity=".88"/><polygon points="913,169.5 958,157 958,216 913,228.5" fill="#8f9ba0" opacity=".72"/><polygon points="880,157 925,144.5 958,157 913,169.5" fill="#eef1ea"/><path d="M888 167h29" stroke="#fff" stroke-opacity=".45"/></g><g class="b"><polygon points="967,145 989,153.4 989,225.4 967,217" fill="#9fb5c2" opacity=".88"/><polygon points="989,153.4 1041,145 1041,217 989,225.4" fill="#8f9ba0" opacity=".72"/><polygon points="967,145 1019,136.6 1041,145 989,153.4" fill="#eef1ea"/><path d="M975 155h36" stroke="#fff" stroke-opacity=".45"/></g><g class="b"><polygon points="1078,133 1105,143.3 1105,228.3 1078,218" fill="#9fb5c2" opacity=".88"/><polygon points="1105,143.3 1164,133 1164,218 1105,228.3" fill="#8f9ba0" opacity=".72"/><polygon points="1078,133 1137,122.7 1164,133 1105,143.3" fill="#eef1ea"/><path d="M1086 143h43" stroke="#fff" stroke-opacity=".45"/></g><g class="b"><polygon points="109,151 141,163.2 141,261.2 109,249" fill="#9fb5c2" opacity=".88"/><polygon points="141,163.2 177,151 177,249 141,261.2" fill="#8f9ba0" opacity=".72"/><polygon points="109,151 145,138.8 177,151 141,163.2" fill="#eef1ea"/><path d="M117 161h20" stroke="#fff" stroke-opacity=".45"/></g><g class="b"><polygon points="196,197 217,205 217,258 196,250" fill="#9fb5c2" opacity=".88"/><polygon points="217,205 260,197 260,250 217,258" fill="#8f9ba0" opacity=".72"/><polygon points="196,197 239,189 260,197 217,205" fill="#eef1ea"/><path d="M204 207h27" stroke="#fff" stroke-opacity=".45"/></g><g class="b"><polygon points="283,185 309,194.9 309,260.9 283,251" fill="#9fb5c2" opacity=".88"/><polygon points="309,194.9 359,185 359,251 309,260.9" fill="#8f9ba0" opacity=".72"/><polygon points="283,185 333,175.1 359,185 309,194.9" fill="#eef1ea"/><path d="M291 195h34" stroke="#fff" stroke-opacity=".45"/></g><g class="b"><polygon points="394,173 425,184.8 425,263.8 394,252" fill="#9fb5c2" opacity=".88"/><polygon points="425,184.8 482,173 482,252 425,263.8" fill="#8f9ba0" opacity=".72"/><polygon points="394,173 451,161.2 482,173 425,184.8" fill="#eef1ea"/><path d="M402 183h41" stroke="#fff" stroke-opacity=".45"/></g><g class="b"><polygon points="481,111 501,118.6 501,260.6 481,253" fill="#9fb5c2" opacity=".88"/><polygon points="501,118.6 535,111 535,253 501,260.6" fill="#8f9ba0" opacity=".72"/><polygon points="481,111 515,103.4 535,111 501,118.6" fill="#eef1ea"/><path d="M489 121h18" stroke="#fff" stroke-opacity=".45"/></g><g class="b"><polygon points="568,157 593,166.5 593,263.5 568,254" fill="#9fb5c2" opacity=".88"/><polygon points="593,166.5 634,157 634,254 593,263.5" fill="#8f9ba0" opacity=".72"/><polygon points="568,157 609,147.5 634,157 593,166.5" fill="#eef1ea"/><path d="M576 167h25" stroke="#fff" stroke-opacity=".45"/></g><g class="b"><polygon points="679,145 709,156.4 709,266.4 679,255" fill="#9fb5c2" opacity=".88"/><polygon points="709,156.4 757,145 757,255 709,266.4" fill="#8f9ba0" opacity=".72"/><polygon points="679,145 727,133.6 757,145 709,156.4" fill="#eef1ea"/><path d="M687 155h32" stroke="#fff" stroke-opacity=".45"/></g><g class="b"><polygon points="766,133 785,140.2 785,263.2 766,256" fill="#9fb5c2" opacity=".88"/><polygon points="785,140.2 840,133 840,256 785,263.2" fill="#8f9ba0" opacity=".72"/><polygon points="766,133 821,125.8 840,133 785,140.2" fill="#eef1ea"/><path d="M774 143h39" stroke="#fff" stroke-opacity=".45"/></g><g class="b"><polygon points="853,171 877,180.1 877,266.1 853,257" fill="#9fb5c2" opacity=".88"/><polygon points="877,180.1 909,171 909,257 877,266.1" fill="#8f9ba0" opacity=".72"/><polygon points="853,171 885,161.9 909,171 877,180.1" fill="#eef1ea"/><path d="M861 181h16" stroke="#fff" stroke-opacity=".45"/></g><g class="b"><polygon points="964,159 993,170 993,269 964,258" fill="#9fb5c2" opacity=".88"/><polygon points="993,170 1032,159 1032,258 993,269" fill="#8f9ba0" opacity=".72"/><polygon points="964,159 1003,148 1032,159 993,170" fill="#eef1ea"/><path d="M972 169h23" stroke="#fff" stroke-opacity=".45"/></g><g class="b"><polygon points="1051,205 1069,211.8 1069,265.8 1051,259" fill="#9fb5c2" opacity=".88"/><polygon points="1069,211.8 1115,205 1115,259 1069,265.8" fill="#8f9ba0" opacity=".72"/><polygon points="1051,205 1097,198.2 1115,205 1069,211.8" fill="#eef1ea"/><path d="M1059 215h30" stroke="#fff" stroke-opacity=".45"/></g><g class="b"><polygon points="126,245 149,253.7 149,320.7 126,312" fill="#9fb5c2" opacity=".88"/><polygon points="149,253.7 202,245 202,312 149,320.7" fill="#8f9ba0" opacity=".72"/><polygon points="126,245 179,236.3 202,245 149,253.7" fill="#eef1ea"/><path d="M134 255h37" stroke="#fff" stroke-opacity=".45"/></g><g class="b"><polygon points="213,233 241,243.6 241,323.6 213,313" fill="#9fb5c2" opacity=".88"/><polygon points="241,243.6 301,233 301,313 241,323.6" fill="#8f9ba0" opacity=".72"/><polygon points="213,233 273,222.4 301,233 241,243.6" fill="#eef1ea"/><path d="M221 243h44" stroke="#fff" stroke-opacity=".45"/></g><g class="b"><polygon points="324,221 357,233.5 357,326.5 324,314" fill="#9fb5c2" opacity=".88"/><polygon points="357,233.5 394,221 394,314 357,326.5" fill="#8f9ba0" opacity=".72"/><polygon points="324,221 361,208.5 394,221 357,233.5" fill="#eef1ea"/><path d="M332 231h21" stroke="#fff" stroke-opacity=".45"/></g><g class="b"><polygon points="411,267 433,275.4 433,323.4 411,315" fill="#9fb5c2" opacity=".88"/><polygon points="433,275.4 477,267 477,315 433,323.4" fill="#8f9ba0" opacity=".72"/><polygon points="411,267 455,258.6 477,267 433,275.4" fill="#eef1ea"/><path d="M419 277h28" stroke="#fff" stroke-opacity=".45"/></g><g class="b"><polygon points="498,205 525,215.3 525,326.3 498,316" fill="#9fb5c2" opacity=".88"/><polygon points="525,215.3 576,205 576,316 525,326.3" fill="#8f9ba0" opacity=".72"/><polygon points="498,205 549,194.7 576,205 525,215.3" fill="#eef1ea"/><path d="M506 215h35" stroke="#fff" stroke-opacity=".45"/></g><g class="b"><polygon points="609,193 641,205.2 641,329.2 609,317" fill="#9fb5c2" opacity=".88"/><polygon points="641,205.2 699,193 699,317 641,329.2" fill="#8f9ba0" opacity=".72"/><polygon points="609,193 667,180.8 699,193 641,205.2" fill="#eef1ea"/><path d="M617 203h42" stroke="#fff" stroke-opacity=".45"/></g><g class="b"><polygon points="696,181 717,189 717,326 696,318" fill="#9fb5c2" opacity=".88"/><polygon points="717,189 752,181 752,318 717,326" fill="#8f9ba0" opacity=".72"/><polygon points="696,181 731,173 752,181 717,189" fill="#eef1ea"/><path d="M704 191h19" stroke="#fff" stroke-opacity=".45"/></g><g class="b"><polygon points="783,169 809,178.9 809,328.9 783,319" fill="#9fb5c2" opacity=".88"/><polygon points="809,178.9 851,169 851,319 809,328.9" fill="#8f9ba0" opacity=".72"/><polygon points="783,169 825,159.1 851,169 809,178.9" fill="#eef1ea"/><path d="M791 179h26" stroke="#fff" stroke-opacity=".45"/></g><g class="b"><polygon points="870,265 901,276.8 901,331.8 870,320" fill="#9fb5c2" opacity=".88"/><polygon points="901,276.8 950,265 950,320 901,331.8" fill="#8f9ba0" opacity=".72"/><polygon points="870,265 919,253.2 950,265 901,276.8" fill="#eef1ea"/><path d="M878 275h33" stroke="#fff" stroke-opacity=".45"/></g><g class="b"><polygon points="981,253 1001,260.6 1001,328.6 981,321" fill="#9fb5c2" opacity=".88"/><polygon points="1001,260.6 1057,253 1057,321 1001,328.6" fill="#8f9ba0" opacity=".72"/><polygon points="981,253 1037,245.4 1057,253 1001,260.6" fill="#eef1ea"/><path d="M989 263h40" stroke="#fff" stroke-opacity=".45"/></g><g class="b"><polygon points="1068,241 1093,250.5 1093,331.5 1068,322" fill="#9fb5c2" opacity=".88"/><polygon points="1093,250.5 1126,241 1126,322 1093,331.5" fill="#8f9ba0" opacity=".72"/><polygon points="1068,241 1101,231.5 1126,241 1093,250.5" fill="#eef1ea"/><path d="M1076 251h17" stroke="#fff" stroke-opacity=".45"/></g><g class="b"><polygon points="99,259 129,270.4 129,364.4 99,353" fill="#9fb5c2" opacity=".88"/><polygon points="129,270.4 169,259 169,353 129,364.4" fill="#8f9ba0" opacity=".72"/><polygon points="99,259 139,247.6 169,259 129,270.4" fill="#eef1ea"/><path d="M107 269h24" stroke="#fff" stroke-opacity=".45"/></g><g class="b"><polygon points="210,305 229,312.2 229,361.2 210,354" fill="#9fb5c2" opacity=".88"/><polygon points="229,312.2 276,305 276,354 229,361.2" fill="#8f9ba0" opacity=".72"/><polygon points="210,305 257,297.8 276,305 229,312.2" fill="#eef1ea"/><path d="M218 315h31" stroke="#fff" stroke-opacity=".45"/></g><g class="b"><polygon points="297,293 321,302.1 321,364.1 297,355" fill="#9fb5c2" opacity=".88"/><polygon points="321,302.1 375,293 375,355 321,364.1" fill="#8f9ba0" opacity=".72"/><polygon points="297,293 351,283.9 375,293 321,302.1" fill="#eef1ea"/><path d="M305 303h38" stroke="#fff" stroke-opacity=".45"/></g><g class="b"><polygon points="384,281 413,292 413,367 384,356" fill="#9fb5c2" opacity=".88"/><polygon points="413,292 474,281 474,356 413,367" fill="#8f9ba0" opacity=".72"/><polygon points="384,281 445,270 474,281 413,292" fill="#eef1ea"/><path d="M392 291h45" stroke="#fff" stroke-opacity=".45"/></g><g class="b"><polygon points="471,219 489,225.8 489,363.8 471,357" fill="#9fb5c2" opacity=".88"/><polygon points="489,225.8 527,219 527,357 489,363.8" fill="#8f9ba0" opacity=".72"/><polygon points="471,219 509,212.2 527,219 489,225.8" fill="#eef1ea"/><path d="M479 229h22" stroke="#fff" stroke-opacity=".45"/></g><g class="b"><polygon points="582,207 605,215.7 605,366.7 582,358" fill="#9fb5c2" opacity=".88"/><polygon points="605,215.7 650,207 650,358 605,366.7" fill="#8f9ba0" opacity=".72"/><polygon points="582,207 627,198.3 650,207 605,215.7" fill="#eef1ea"/><path d="M590 217h29" stroke="#fff" stroke-opacity=".45"/></g><g class="b"><polygon points="669,253 697,263.6 697,369.6 669,359" fill="#9fb5c2" opacity=".88"/><polygon points="697,263.6 749,253 749,359 697,369.6" fill="#8f9ba0" opacity=".72"/><polygon points="669,253 721,242.4 749,253 697,263.6" fill="#eef1ea"/><path d="M677 263h36" stroke="#fff" stroke-opacity=".45"/></g><g class="b"><polygon points="756,241 789,253.5 789,372.5 756,360" fill="#9fb5c2" opacity=".88"/><polygon points="789,253.5 848,241 848,360 789,372.5" fill="#8f9ba0" opacity=".72"/><polygon points="756,241 815,228.5 848,241 789,253.5" fill="#eef1ea"/><path d="M764 251h43" stroke="#fff" stroke-opacity=".45"/></g><g class="b"><polygon points="867,279 889,287.4 889,369.4 867,361" fill="#9fb5c2" opacity=".88"/><polygon points="889,287.4 925,279 925,361 889,369.4" fill="#8f9ba0" opacity=".72"/><polygon points="867,279 903,270.6 925,279 889,287.4" fill="#eef1ea"/><path d="M875 289h20" stroke="#fff" stroke-opacity=".45"/></g><g class="b"><polygon points="954,267 981,277.3 981,372.3 954,362" fill="#9fb5c2" opacity=".88"/><polygon points="981,277.3 1024,267 1024,362 981,372.3" fill="#8f9ba0" opacity=".72"/><polygon points="954,267 997,256.7 1024,267 981,277.3" fill="#eef1ea"/><path d="M962 277h27" stroke="#fff" stroke-opacity=".45"/></g><g class="b"><polygon points="1041,313 1073,325.2 1073,375.2 1041,363" fill="#9fb5c2" opacity=".88"/><polygon points="1073,325.2 1123,313 1123,363 1073,375.2" fill="#8f9ba0" opacity=".72"/><polygon points="1041,313 1091,300.8 1123,313 1073,325.2" fill="#eef1ea"/><path d="M1049 323h34" stroke="#fff" stroke-opacity=".45"/></g><g class="b"><polygon points="140,353 161,361 161,424 140,416" fill="#9fb5c2" opacity=".88"/><polygon points="161,361 218,353 218,416 161,424" fill="#8f9ba0" opacity=".72"/><polygon points="140,353 197,345 218,353 161,361" fill="#eef1ea"/><path d="M148 363h41" stroke="#fff" stroke-opacity=".45"/></g><g class="b"><polygon points="227,341 253,350.9 253,426.9 227,417" fill="#9fb5c2" opacity=".88"/><polygon points="253,350.9 287,341 287,417 253,426.9" fill="#8f9ba0" opacity=".72"/><polygon points="227,341 261,331.1 287,341 253,350.9" fill="#eef1ea"/><path d="M235 351h18" stroke="#fff" stroke-opacity=".45"/></g><g class="b"><polygon points="314,329 345,340.8 345,429.8 314,418" fill="#9fb5c2" opacity=".88"/><polygon points="345,340.8 386,329 386,418 345,429.8" fill="#8f9ba0" opacity=".72"/><polygon points="314,329 355,317.2 386,329 345,340.8" fill="#eef1ea"/><path d="M322 339h25" stroke="#fff" stroke-opacity=".45"/></g><g class="b"><polygon points="401,375 421,382.6 421,426.6 401,419" fill="#d5e6ed" opacity=".88"/><polygon points="421,382.6 469,375 469,419 421,426.6" fill="#8f9ba0" opacity=".72"/><polygon points="401,375 449,367.4 469,375 421,382.6" fill="#ffffff"/><path d="M409 385h32" stroke="#fff" stroke-opacity=".45"/></g><g class="b"><polygon points="512,313 537,322.5 537,429.5 512,420" fill="#d5e6ed" opacity=".88"/><polygon points="537,322.5 592,313 592,420 537,429.5" fill="#8f9ba0" opacity=".72"/><polygon points="512,313 567,303.5 592,313 537,322.5" fill="#ffffff"/><path d="M520 323h39" stroke="#fff" stroke-opacity=".45"/></g><g class="b"><polygon points="599,301 629,312.4 629,432.4 599,421" fill="#9fb5c2" opacity=".88"/><polygon points="629,312.4 661,301 661,421 629,432.4" fill="#8f9ba0" opacity=".72"/><polygon points="599,301 631,289.6 661,301 629,312.4" fill="#eef1ea"/><path d="M607 311h16" stroke="#fff" stroke-opacity=".45"/></g><g class="b"><polygon points="686,289 705,296.2 705,429.2 686,422" fill="#9fb5c2" opacity=".88"/><polygon points="705,296.2 744,289 744,422 705,429.2" fill="#8f9ba0" opacity=".72"/><polygon points="686,289 725,281.8 744,289 705,296.2" fill="#eef1ea"/><path d="M694 299h23" stroke="#fff" stroke-opacity=".45"/></g><g class="b"><polygon points="797,277 821,286.1 821,432.1 797,423" fill="#9fb5c2" opacity=".88"/><polygon points="821,286.1 867,277 867,423 821,432.1" fill="#8f9ba0" opacity=".72"/><polygon points="797,277 843,267.9 867,277 821,286.1" fill="#eef1ea"/><path d="M805 287h30" stroke="#fff" stroke-opacity=".45"/></g><g class="b"><polygon points="884,373 913,384 913,435 884,424" fill="#9fb5c2" opacity=".88"/><polygon points="913,384 966,373 966,424 913,435" fill="#8f9ba0" opacity=".72"/><polygon points="884,373 937,362 966,373 913,384" fill="#eef1ea"/><path d="M892 383h37" stroke="#fff" stroke-opacity=".45"/></g><g class="b"><polygon points="971,361 989,367.8 989,431.8 971,425" fill="#9fb5c2" opacity=".88"/><polygon points="989,367.8 1049,361 1049,425 989,431.8" fill="#8f9ba0" opacity=".72"/><polygon points="971,361 1031,354.2 1049,361 989,367.8" fill="#eef1ea"/><path d="M979 371h44" stroke="#fff" stroke-opacity=".45"/></g><g class="b"><polygon points="1058,349 1081,357.7 1081,434.7 1058,426" fill="#9fb5c2" opacity=".88"/><polygon points="1081,357.7 1118,349 1118,426 1081,434.7" fill="#8f9ba0" opacity=".72"/><polygon points="1058,349 1095,340.3 1118,349 1081,357.7" fill="#eef1ea"/><path d="M1066 359h21" stroke="#fff" stroke-opacity=".45"/></g><g class="b"><polygon points="113,367 141,377.6 141,467.6 113,457" fill="#9fb5c2" opacity=".88"/><polygon points="141,377.6 185,367 185,457 141,467.6" fill="#8f9ba0" opacity=".72"/><polygon points="113,367 157,356.4 185,367 141,377.6" fill="#eef1ea"/><path d="M121 377h28" stroke="#fff" stroke-opacity=".45"/></g><g class="b"><polygon points="200,413 233,425.5 233,470.5 200,458" fill="#9fb5c2" opacity=".88"/><polygon points="233,425.5 284,413 284,458 233,470.5" fill="#8f9ba0" opacity=".72"/><polygon points="200,413 251,400.5 284,413 233,425.5" fill="#eef1ea"/><path d="M208 423h35" stroke="#fff" stroke-opacity=".45"/></g><g class="b"><polygon points="287,401 309,409.4 309,467.4 287,459" fill="#9fb5c2" opacity=".88"/><polygon points="309,409.4 367,401 367,459 309,467.4" fill="#8f9ba0" opacity=".72"/><polygon points="287,401 345,392.6 367,401 309,409.4" fill="#eef1ea"/><path d="M295 411h42" stroke="#fff" stroke-opacity=".45"/></g><g class="b"><polygon points="398,389 425,399.3 425,470.3 398,460" fill="#d5e6ed" opacity=".88"/><polygon points="425,399.3 460,389 460,460 425,470.3" fill="#8f9ba0" opacity=".72"/><polygon points="398,389 433,378.7 460,389 425,399.3" fill="#ffffff"/><path d="M406 399h19" stroke="#fff" stroke-opacity=".45"/></g><g class="b"><polygon points="485,327 517,339.2 517,473.2 485,461" fill="#d5e6ed" opacity=".88"/><polygon points="517,339.2 559,327 559,461 517,473.2" fill="#8f9ba0" opacity=".72"/><polygon points="485,327 527,314.8 559,327 517,339.2" fill="#ffffff"/><path d="M493 337h26" stroke="#fff" stroke-opacity=".45"/></g><g class="b"><polygon points="572,315 593,323 593,470 572,462" fill="#d5e6ed" opacity=".88"/><polygon points="593,323 642,315 642,462 593,470" fill="#8f9ba0" opacity=".72"/><polygon points="572,315 621,307 642,315 593,323" fill="#ffffff"/><path d="M580 325h33" stroke="#fff" stroke-opacity=".45"/></g></g>
<circle cx="470" cy="500" r="142" fill="#ffd66b" opacity=".18"/><circle cx="470" cy="500" r="88" fill="none" stroke="#ffe08a" stroke-width="7" opacity=".9"/>
<g transform="translate(360 250)" filter="url(#softShadow)">
      <ellipse cx="0" cy="28" rx="92" ry="34" fill="#263238" opacity=".16"/>
      <rect x="-54" y="-58" width="108" height="96" rx="6" fill="#f6f1de" opacity=".98"/>
      <path d="M-54 -58 L0 -84 L54 -58 Z" fill="#d9e6ea"/>
      <path d="M-36 -30 H36 M-36 -6 H36 M-36 18 H36" stroke="#8a9aa0" stroke-width="4" opacity=".55"/>
    </g><g transform="translate(360 156)" class="marker">
    <path d="M0 -22 C24 -22 40 -7 40 13 C40 43 0 64 0 64 C0 64 -40 43 -40 13 C-40 -7 -24 -22 0 -22Z" fill="#f4ead1" stroke="#5a533f" stroke-width="3"/>
    <circle cx="0" cy="12" r="13" fill="#b8c9d0"/>
    <text x="0" y="92" text-anchor="middle" font-size="21" font-weight="800" fill="#2f312d" paint-order="stroke" stroke="#fff5da" stroke-width="5">公司大堂</text>
  </g><g transform="translate(610 245)" filter="url(#softShadow)">
      <ellipse cx="0" cy="28" rx="92" ry="34" fill="#263238" opacity=".16"/>
      <rect x="-54" y="-58" width="108" height="96" rx="6" fill="#f6f1de" opacity=".98"/>
      <path d="M-54 -58 L0 -84 L54 -58 Z" fill="#d9e6ea"/>
      <path d="M-36 -30 H36 M-36 -6 H36 M-36 18 H36" stroke="#8a9aa0" stroke-width="4" opacity=".55"/>
    </g><g transform="translate(610 151)" class="marker">
    <path d="M0 -22 C24 -22 40 -7 40 13 C40 43 0 64 0 64 C0 64 -40 43 -40 13 C-40 -7 -24 -22 0 -22Z" fill="#f4ead1" stroke="#5a533f" stroke-width="3"/>
    <circle cx="0" cy="12" r="13" fill="#b8c9d0"/>
    <text x="0" y="92" text-anchor="middle" font-size="21" font-weight="800" fill="#2f312d" paint-order="stroke" stroke="#fff5da" stroke-width="5">开放工位</text>
  </g><g transform="translate(780 390)" filter="url(#softShadow)">
      <ellipse cx="0" cy="28" rx="92" ry="34" fill="#263238" opacity=".16"/>
      <rect x="-54" y="-58" width="108" height="96" rx="6" fill="#f6f1de" opacity=".98"/>
      <path d="M-54 -58 L0 -84 L54 -58 Z" fill="#d9e6ea"/>
      <path d="M-36 -30 H36 M-36 -6 H36 M-36 18 H36" stroke="#8a9aa0" stroke-width="4" opacity=".55"/>
    </g><g transform="translate(780 296)" class="marker">
    <path d="M0 -22 C24 -22 40 -7 40 13 C40 43 0 64 0 64 C0 64 -40 43 -40 13 C-40 -7 -24 -22 0 -22Z" fill="#f4ead1" stroke="#5a533f" stroke-width="3"/>
    <circle cx="0" cy="12" r="13" fill="#b8c9d0"/>
    <text x="0" y="92" text-anchor="middle" font-size="21" font-weight="800" fill="#2f312d" paint-order="stroke" stroke="#fff5da" stroke-width="5">会议室</text>
  </g><g transform="translate(470 500)" filter="url(#softShadow)">
      <ellipse cx="0" cy="28" rx="92" ry="34" fill="#263238" opacity=".16"/>
      <rect x="-54" y="-58" width="108" height="96" rx="6" fill="#fff7c2" opacity=".98"/>
      <path d="M-54 -58 L0 -84 L54 -58 Z" fill="#d9e6ea"/>
      <path d="M-36 -30 H36 M-36 -6 H36 M-36 18 H36" stroke="#8a9aa0" stroke-width="4" opacity=".55"/>
    </g><g transform="translate(470 406)" class="marker">
    <path d="M0 -22 C24 -22 40 -7 40 13 C40 43 0 64 0 64 C0 64 -40 43 -40 13 C-40 -7 -24 -22 0 -22Z" fill="#ffd66b" stroke="#5a533f" stroke-width="3"/>
    <circle cx="0" cy="12" r="13" fill="#fff7cf"/>
    <text x="0" y="92" text-anchor="middle" font-size="25" font-weight="800" fill="#2f312d" paint-order="stroke" stroke="#fff5da" stroke-width="5">楼下咖啡</text>
  </g><g transform="translate(910 555)" filter="url(#softShadow)">
    <rect x="-82" y="-26" width="164" height="52" rx="8" fill="#d7d9d5"/>
    <path d="M-70 6 H70" stroke="#6c7172" stroke-width="8"/>
    <path d="M-48 -11 H48" stroke="#9aa1a2" stroke-width="4"/>
    <circle cx="-36" cy="19" r="6" fill="#44525a"/><circle cx="36" cy="19" r="6" fill="#44525a"/>
  </g><g transform="translate(955 441)" class="marker">
    <path d="M0 -22 C24 -22 40 -7 40 13 C40 43 0 64 0 64 C0 64 -40 43 -40 13 C-40 -7 -24 -22 0 -22Z" fill="#f4ead1" stroke="#5a533f" stroke-width="3"/>
    <circle cx="0" cy="12" r="13" fill="#b8c9d0"/>
    <text x="0" y="92" text-anchor="middle" font-size="21" font-weight="800" fill="#2f312d" paint-order="stroke" stroke="#fff5da" stroke-width="5">地铁站</text>
  </g>
<g>
  <rect x="44" y="38" width="430" height="86" rx="12" fill="#fff8e7" opacity=".86"/>
  <text x="68" y="82" font-size="34" fill="#263238" font-weight="800">楼下咖啡</text>
  <text x="70" y="110" font-size="18" fill="#627073">高新区写字楼 · 设施放大图</text>
</g>
<g opacity=".42" filter="url(#blur)">
    <ellipse cx="80" cy="40" rx="130" ry="42" fill="#fff"/>
    <ellipse cx="1230" cy="62" rx="145" ry="46" fill="#fff"/>
    <ellipse cx="1160" cy="695" rx="170" ry="50" fill="#fff"/>
    <ellipse cx="35" cy="680" rx="140" ry="44" fill="#fff"/>
  </g>
<rect width="1280" height="720" fill="url(#v)"/>
</svg>