<svg xmlns="http://www.w3.org/2000/svg" width="1280" height="720" viewBox="0 0 1280 720">
<defs>
    <linearGradient id="ground" x1="0" y1="0" x2="1" y2="1"><stop stop-color="#ded8cc"/><stop offset=".58" stop-color="#d3d6cb"/><stop offset="1" stop-color="#b7926b"/></linearGradient>
    <filter id="softShadow"><feDropShadow dx="0" dy="10" stdDeviation="8" flood-color="#1a2327" flood-opacity=".28"/></filter>
    <filter id="blur"><feGaussianBlur stdDeviation="13"/></filter>
    <radialGradient id="sun" cx="12%" cy="5%" r="75%"><stop stop-color="#fff6d6" stop-opacity=".68"/><stop offset=".42" stop-color="#fff" stop-opacity="0"/></radialGradient>
    <linearGradient id="v" x1="0" y1="0" x2="0" y2="1"><stop stop-color="#ffffff" stop-opacity=".04"/><stop offset="1" stop-color="#775a45" stop-opacity=".18"/></linearGradient>
  </defs>
<rect width="1280" height="720" fill="url(#ground)"/>
<rect width="1280" height="720" fill="url(#sun)"/>
<path d="M-30 125 C150 215 245 55 405 125 C535 180 675 120 805 65 C955 0 1115 45 1320 -25 L1320 0 C1110 90 970 55 820 120 C660 190 525 230 375 170 C225 115 155 265 -30 185Z" fill="#5f8fa3" opacity=".78"/><g opacity=".88">
    <path d="M40 410 C155 345 260 350 365 420 C245 500 135 510 40 410Z" fill="#75a766"/>
    <path d="M875 125 C980 80 1130 100 1230 175 C1100 245 980 235 875 125Z" fill="#7ca56b"/>
    <circle cx="60" cy="125" r="2" fill="#436b3c" opacity=".55"/><circle cx="133" cy="166" r="3" fill="#436b3c" opacity=".55"/><circle cx="206" cy="207" r="4" fill="#436b3c" opacity=".55"/><circle cx="279" cy="248" r="5" fill="#436b3c" opacity=".55"/><circle cx="352" cy="289" r="2" fill="#436b3c" opacity=".55"/><circle cx="425" cy="330" r="3" fill="#436b3c" opacity=".55"/><circle cx="498" cy="371" r="4" fill="#436b3c" opacity=".55"/><circle cx="571" cy="412" r="5" fill="#436b3c" opacity=".55"/><circle cx="644" cy="453" r="2" fill="#436b3c" opacity=".55"/><circle cx="717" cy="494" r="3" fill="#436b3c" opacity=".55"/><circle cx="790" cy="535" r="4" fill="#436b3c" opacity=".55"/><circle cx="863" cy="576" r="5" fill="#436b3c" opacity=".55"/><circle cx="936" cy="617" r="2" fill="#436b3c" opacity=".55"/><circle cx="1009" cy="158" r="3" fill="#436b3c" opacity=".55"/><circle cx="1082" cy="199" r="4" fill="#436b3c" opacity=".55"/><circle cx="1155" cy="240" r="5" fill="#436b3c" opacity=".55"/><circle cx="108" cy="281" r="2" fill="#436b3c" opacity=".55"/><circle cx="181" cy="322" r="3" fill="#436b3c" opacity=".55"/><circle cx="254" cy="363" r="4" fill="#436b3c" opacity=".55"/><circle cx="327" cy="404" r="5" fill="#436b3c" opacity=".55"/><circle cx="400" cy="445" r="2" fill="#436b3c" opacity=".55"/><circle cx="473" cy="486" r="3" fill="#436b3c" opacity=".55"/><circle cx="546" cy="527" r="4" fill="#436b3c" opacity=".55"/><circle cx="619" cy="568" r="5" fill="#436b3c" opacity=".55"/><circle cx="692" cy="609" r="2" fill="#436b3c" opacity=".55"/><circle cx="765" cy="150" r="3" fill="#436b3c" opacity=".55"/><circle cx="838" cy="191" r="4" fill="#436b3c" opacity=".55"/><circle cx="911" cy="232" r="5" fill="#436b3c" opacity=".55"/><circle cx="984" cy="273" r="2" fill="#436b3c" opacity=".55"/><circle cx="1057" cy="314" r="3" fill="#436b3c" opacity=".55"/><circle cx="1130" cy="355" r="4" fill="#436b3c" opacity=".55"/><circle cx="83" cy="396" r="5" fill="#436b3c" opacity=".55"/><circle cx="156" cy="437" r="2" fill="#436b3c" opacity=".55"/><circle cx="229" cy="478" r="3" fill="#436b3c" opacity=".55"/><circle cx="302" cy="519" r="4" fill="#436b3c" opacity=".55"/><circle cx="375" cy="560" r="5" fill="#436b3c" opacity=".55"/><circle cx="448" cy="601" r="2" fill="#436b3c" opacity=".55"/><circle cx="521" cy="142" r="3" fill="#436b3c" opacity=".55"/><circle cx="594" cy="183" r="4" fill="#436b3c" opacity=".55"/><circle cx="667" cy="224" r="5" fill="#436b3c" opacity=".55"/><circle cx="740" cy="265" r="2" fill="#436b3c" opacity=".55"/><circle cx="813" cy="306" r="3" fill="#436b3c" opacity=".55"/><circle cx="886" cy="347" r="4" fill="#436b3c" opacity=".55"/><circle cx="959" cy="388" r="5" fill="#436b3c" opacity=".55"/><circle cx="1032" cy="429" r="2" fill="#436b3c" opacity=".55"/><circle cx="1105" cy="470" r="3" fill="#436b3c" opacity=".55"/><circle cx="1178" cy="511" r="4" fill="#436b3c" opacity=".55"/><circle cx="131" cy="552" r="5" fill="#436b3c" opacity=".55"/><circle cx="204" cy="593" r="2" fill="#436b3c" opacity=".55"/><circle cx="277" cy="134" r="3" fill="#436b3c" opacity=".55"/><circle cx="350" cy="175" r="4" fill="#436b3c" opacity=".55"/><circle cx="423" cy="216" r="5" fill="#436b3c" opacity=".55"/><circle cx="496" cy="257" r="2" fill="#436b3c" opacity=".55"/><circle cx="569" cy="298" r="3" fill="#436b3c" opacity=".55"/><circle cx="642" cy="339" r="4" fill="#436b3c" opacity=".55"/><circle cx="715" cy="380" r="5" fill="#436b3c" opacity=".55"/><circle cx="788" cy="421" r="2" fill="#436b3c" opacity=".55"/><circle cx="861" cy="462" r="3" fill="#436b3c" opacity=".55"/><circle cx="934" cy="503" r="4" fill="#436b3c" opacity=".55"/><circle cx="1007" cy="544" r="5" fill="#436b3c" opacity=".55"/><circle cx="1080" cy="585" r="2" fill="#436b3c" opacity=".55"/><circle cx="1153" cy="126" r="3" fill="#436b3c" opacity=".55"/><circle cx="106" cy="167" r="4" fill="#436b3c" opacity=".55"/><circle cx="179" cy="208" r="5" fill="#436b3c" opacity=".55"/><circle cx="252" cy="249" r="2" fill="#436b3c" opacity=".55"/><circle cx="325" cy="290" r="3" fill="#436b3c" opacity=".55"/><circle cx="398" cy="331" r="4" fill="#436b3c" opacity=".55"/><circle cx="471" cy="372" r="5" fill="#436b3c" opacity=".55"/><circle cx="544" cy="413" r="2" fill="#436b3c" opacity=".55"/><circle cx="617" cy="454" r="3" fill="#436b3c" opacity=".55"/><circle cx="690" cy="495" r="4" fill="#436b3c" opacity=".55"/><circle cx="763" cy="536" r="5" fill="#436b3c" opacity=".55"/><circle cx="836" cy="577" r="2" fill="#436b3c" opacity=".55"/><circle cx="909" cy="618" r="3" fill="#436b3c" opacity=".55"/><circle cx="982" cy="159" r="4" fill="#436b3c" opacity=".55"/><circle cx="1055" cy="200" r="5" fill="#436b3c" opacity=".55"/><circle cx="1128" cy="241" r="2" fill="#436b3c" opacity=".55"/><circle cx="81" cy="282" r="3" fill="#436b3c" opacity=".55"/><circle cx="154" cy="323" r="4" fill="#436b3c" opacity=".55"/><circle cx="227" cy="364" r="5" fill="#436b3c" opacity=".55"/>
  </g>
<g class="roads">
    <path d="M-40 575 C190 500 365 500 565 545 C775 595 1005 575 1320 455" stroke="#464d50" stroke-width="54" fill="none"/>
    <path d="M-40 575 C190 500 365 500 565 545 C775 595 1005 575 1320 455" stroke="#eef0e8" stroke-width="4" fill="none" opacity=".65"/>
    <path d="M1020 -30 C900 120 850 285 900 505 C925 610 1005 685 1115 760" stroke="#4c5356" stroke-width="36" fill="none"/>
    <path d="M130 720 C235 540 330 390 445 270 C560 150 740 85 1110 35" stroke="#454c50" stroke-width="34" fill="none"/>
    <path d="M120 365 C330 305 520 315 685 365 C815 405 915 405 1045 360" stroke="#595f62" stroke-width="18" fill="none" opacity=".92"/>
    <path d="M120 365 C330 305 520 315 685 365 C815 405 915 405 1045 360" stroke="#f5f1df" stroke-width="2" fill="none" opacity=".6"/>
  </g>
<g filter="url(#softShadow)"><g class="b"><polygon points="95,127 111,133.1 111,151.1 95,145" fill="#a98669" opacity=".88"/><polygon points="111,133.1 135,127 135,145 111,151.1" fill="#8f9ba0" opacity=".72"/><polygon points="95,127 119,120.9 135,127 111,133.1" fill="#eef1ea"/><path d="M103 137h12" stroke="#fff" stroke-opacity=".45"/></g><g class="b"><polygon points="206,121 222,127.1 222,152.1 206,146" fill="#a98669" opacity=".88"/><polygon points="222,127.1 251,121 251,146 222,152.1" fill="#8f9ba0" opacity=".72"/><polygon points="206,121 235,114.9 251,121 222,127.1" fill="#eef1ea"/><path d="M214 131h13" stroke="#fff" stroke-opacity=".45"/></g><g class="b"><polygon points="293,115 309,121.1 309,153.1 293,147" fill="#a98669" opacity=".88"/><polygon points="309,121.1 343,115 343,147 309,153.1" fill="#8f9ba0" opacity=".72"/><polygon points="293,115 327,108.9 343,115 309,121.1" fill="#eef1ea"/><path d="M301 125h18" stroke="#fff" stroke-opacity=".45"/></g><g class="b"><polygon points="380,109 396,115.1 396,154.1 380,148" fill="#d5e6ed" opacity=".88"/><polygon points="396,115.1 435,109 435,148 396,154.1" fill="#8f9ba0" opacity=".72"/><polygon points="380,109 419,102.9 435,109 396,115.1" fill="#ffffff"/><path d="M388 119h23" stroke="#fff" stroke-opacity=".45"/></g><g class="b"><polygon points="491,103 507,109.1 507,155.1 491,149" fill="#a98669" opacity=".88"/><polygon points="507,109.1 551,103 551,149 507,155.1" fill="#8f9ba0" opacity=".72"/><polygon points="491,103 535,96.9 551,103 507,109.1" fill="#eef1ea"/><path d="M499 113h28" stroke="#fff" stroke-opacity=".45"/></g><g class="b"><polygon points="578,97 594,103.1 594,156.1 578,150" fill="#a98669" opacity=".88"/><polygon points="594,103.1 621,97 621,150 594,156.1" fill="#8f9ba0" opacity=".72"/><polygon points="578,97 605,90.9 621,97 594,103.1" fill="#eef1ea"/><path d="M586 107h12" stroke="#fff" stroke-opacity=".45"/></g><g class="b"><polygon points="665,127 681,133.1 681,157.1 665,151" fill="#a98669" opacity=".88"/><polygon points="681,133.1 713,127 713,151 681,157.1" fill="#8f9ba0" opacity=".72"/><polygon points="665,127 697,120.9 713,127 681,133.1" fill="#eef1ea"/><path d="M673 137h16" stroke="#fff" stroke-opacity=".45"/></g><g class="b"><polygon points="776,121 792,127.1 792,158.1 776,152" fill="#a98669" opacity=".88"/><polygon points="792,127.1 829,121 829,152 792,158.1" fill="#8f9ba0" opacity=".72"/><polygon points="776,121 813,114.9 829,121 792,127.1" fill="#eef1ea"/><path d="M784 131h21" stroke="#fff" stroke-opacity=".45"/></g><g class="b"><polygon points="863,115 879,121.1 879,159.1 863,153" fill="#a98669" opacity=".88"/><polygon points="879,121.1 921,115 921,153 879,159.1" fill="#8f9ba0" opacity=".72"/><polygon points="863,115 905,108.9 921,115 879,121.1" fill="#eef1ea"/><path d="M871 125h26" stroke="#fff" stroke-opacity=".45"/></g><g class="b"><polygon points="950,109 966,115.1 966,160.1 950,154" fill="#a98669" opacity=".88"/><polygon points="966,115.1 991,109 991,154 966,160.1" fill="#8f9ba0" opacity=".72"/><polygon points="950,109 975,102.9 991,109 966,115.1" fill="#eef1ea"/><path d="M958 119h12" stroke="#fff" stroke-opacity=".45"/></g><g class="b"><polygon points="1037,103 1053,109.1 1053,161.1 1037,155" fill="#a98669" opacity=".88"/><polygon points="1053,109.1 1083,103 1083,155 1053,161.1" fill="#8f9ba0" opacity=".72"/><polygon points="1037,103 1067,96.9 1083,103 1053,109.1" fill="#eef1ea"/><path d="M1045 113h14" stroke="#fff" stroke-opacity=".45"/></g><g class="b"><polygon points="136,185 152,191.1 152,214.1 136,208" fill="#a98669" opacity=".88"/><polygon points="152,191.1 187,185 187,208 152,214.1" fill="#8f9ba0" opacity=".72"/><polygon points="136,185 171,178.9 187,185 152,191.1" fill="#eef1ea"/><path d="M144 195h19" stroke="#fff" stroke-opacity=".45"/></g><g class="b"><polygon points="223,179 239,185.1 239,215.1 223,209" fill="#a98669" opacity=".88"/><polygon points="239,185.1 279,179 279,209 239,215.1" fill="#8f9ba0" opacity=".72"/><polygon points="223,179 263,172.9 279,179 239,185.1" fill="#eef1ea"/><path d="M231 189h24" stroke="#fff" stroke-opacity=".45"/></g><g class="b"><polygon points="310,173 326,179.1 326,216.1 310,210" fill="#d5e6ed" opacity=".88"/><polygon points="326,179.1 371,173 371,210 326,216.1" fill="#8f9ba0" opacity=".72"/><polygon points="310,173 355,166.9 371,173 326,179.1" fill="#ffffff"/><path d="M318 183h29" stroke="#fff" stroke-opacity=".45"/></g><g class="b"><polygon points="421,167 437,173.1 437,217.1 421,211" fill="#d5e6ed" opacity=".88"/><polygon points="437,173.1 465,167 465,211 437,217.1" fill="#8f9ba0" opacity=".72"/><polygon points="421,167 449,160.9 465,167 437,173.1" fill="#ffffff"/><path d="M429 177h12" stroke="#fff" stroke-opacity=".45"/></g><g class="b"><polygon points="508,161 524,167.1 524,218.1 508,212" fill="#a98669" opacity=".88"/><polygon points="524,167.1 557,161 557,212 524,218.1" fill="#8f9ba0" opacity=".72"/><polygon points="508,161 541,154.9 557,161 524,167.1" fill="#eef1ea"/><path d="M516 171h17" stroke="#fff" stroke-opacity=".45"/></g><g class="b"><polygon points="595,191 611,197.1 611,219.1 595,213" fill="#a98669" opacity=".88"/><polygon points="611,197.1 649,191 649,213 611,219.1" fill="#8f9ba0" opacity=".72"/><polygon points="595,191 633,184.9 649,191 611,197.1" fill="#eef1ea"/><path d="M603 201h22" stroke="#fff" stroke-opacity=".45"/></g><g class="b"><polygon points="682,185 698,191.1 698,220.1 682,214" fill="#a98669" opacity=".88"/><polygon points="698,191.1 741,185 741,214 698,220.1" fill="#8f9ba0" opacity=".72"/><polygon points="682,185 725,178.9 741,185 698,191.1" fill="#eef1ea"/><path d="M690 195h27" stroke="#fff" stroke-opacity=".45"/></g><g class="b"><polygon points="793,179 809,185.1 809,221.1 793,215" fill="#a98669" opacity=".88"/><polygon points="809,185.1 835,179 835,215 809,221.1" fill="#8f9ba0" opacity=".72"/><polygon points="793,179 819,172.9 835,179 809,185.1" fill="#eef1ea"/><path d="M801 189h12" stroke="#fff" stroke-opacity=".45"/></g><g class="b"><polygon points="880,173 896,179.1 896,222.1 880,216" fill="#a98669" opacity=".88"/><polygon points="896,179.1 927,173 927,216 896,222.1" fill="#8f9ba0" opacity=".72"/><polygon points="880,173 911,166.9 927,173 896,179.1" fill="#eef1ea"/><path d="M888 183h15" stroke="#fff" stroke-opacity=".45"/></g><g class="b"><polygon points="967,167 983,173.1 983,223.1 967,217" fill="#a98669" opacity=".88"/><polygon points="983,173.1 1019,167 1019,217 983,223.1" fill="#8f9ba0" opacity=".72"/><polygon points="967,167 1003,160.9 1019,167 983,173.1" fill="#eef1ea"/><path d="M975 177h20" stroke="#fff" stroke-opacity=".45"/></g><g class="b"><polygon points="1078,197 1094,203.1 1094,224.1 1078,218" fill="#a98669" opacity=".88"/><polygon points="1094,203.1 1135,197 1135,218 1094,224.1" fill="#8f9ba0" opacity=".72"/><polygon points="1078,197 1119,190.9 1135,197 1094,203.1" fill="#eef1ea"/><path d="M1086 207h25" stroke="#fff" stroke-opacity=".45"/></g><g class="b"><polygon points="109,221 125,227.1 125,255.1 109,249" fill="#a98669" opacity=".88"/><polygon points="125,227.1 149,221 149,249 125,255.1" fill="#8f9ba0" opacity=".72"/><polygon points="109,221 133,214.9 149,221 125,227.1" fill="#eef1ea"/><path d="M117 231h12" stroke="#fff" stroke-opacity=".45"/></g><g class="b"><polygon points="196,215 212,221.1 212,256.1 196,250" fill="#a98669" opacity=".88"/><polygon points="212,221.1 241,215 241,250 212,256.1" fill="#8f9ba0" opacity=".72"/><polygon points="196,215 225,208.9 241,215 212,221.1" fill="#eef1ea"/><path d="M204 225h13" stroke="#fff" stroke-opacity=".45"/></g><g class="b"><polygon points="283,209 299,215.1 299,257.1 283,251" fill="#d5e6ed" opacity=".88"/><polygon points="299,215.1 333,209 333,251 299,257.1" fill="#8f9ba0" opacity=".72"/><polygon points="283,209 317,202.9 333,209 299,215.1" fill="#ffffff"/><path d="M291 219h18" stroke="#fff" stroke-opacity=".45"/></g><g class="b"><polygon points="394,203 410,209.1 410,258.1 394,252" fill="#d5e6ed" opacity=".88"/><polygon points="410,209.1 449,203 449,252 410,258.1" fill="#8f9ba0" opacity=".72"/><polygon points="394,203 433,196.9 449,203 410,209.1" fill="#ffffff"/><path d="M402 213h23" stroke="#fff" stroke-opacity=".45"/></g><g class="b"><polygon points="481,233 497,239.1 497,259.1 481,253" fill="#a98669" opacity=".88"/><polygon points="497,239.1 541,233 541,253 497,259.1" fill="#8f9ba0" opacity=".72"/><polygon points="481,233 525,226.9 541,233 497,239.1" fill="#eef1ea"/><path d="M489 243h28" stroke="#fff" stroke-opacity=".45"/></g><g class="b"><polygon points="568,227 584,233.1 584,260.1 568,254" fill="#a98669" opacity=".88"/><polygon points="584,233.1 611,227 611,254 584,260.1" fill="#8f9ba0" opacity=".72"/><polygon points="568,227 595,220.9 611,227 584,233.1" fill="#eef1ea"/><path d="M576 237h12" stroke="#fff" stroke-opacity=".45"/></g><g class="b"><polygon points="679,221 695,227.1 695,261.1 679,255" fill="#a98669" opacity=".88"/><polygon points="695,227.1 727,221 727,255 695,261.1" fill="#8f9ba0" opacity=".72"/><polygon points="679,221 711,214.9 727,221 695,227.1" fill="#eef1ea"/><path d="M687 231h16" stroke="#fff" stroke-opacity=".45"/></g><g class="b"><polygon points="766,215 782,221.1 782,262.1 766,256" fill="#a98669" opacity=".88"/><polygon points="782,221.1 819,215 819,256 782,262.1" fill="#8f9ba0" opacity=".72"/><polygon points="766,215 803,208.9 819,215 782,221.1" fill="#eef1ea"/><path d="M774 225h21" stroke="#fff" stroke-opacity=".45"/></g><g class="b"><polygon points="853,209 869,215.1 869,263.1 853,257" fill="#a98669" opacity=".88"/><polygon points="869,215.1 911,209 911,257 869,263.1" fill="#8f9ba0" opacity=".72"/><polygon points="853,209 895,202.9 911,209 869,215.1" fill="#eef1ea"/><path d="M861 219h26" stroke="#fff" stroke-opacity=".45"/></g><g class="b"><polygon points="964,239 980,245.1 980,264.1 964,258" fill="#a98669" opacity=".88"/><polygon points="980,245.1 1005,239 1005,258 980,264.1" fill="#8f9ba0" opacity=".72"/><polygon points="964,239 989,232.9 1005,239 980,245.1" fill="#eef1ea"/><path d="M972 249h12" stroke="#fff" stroke-opacity=".45"/></g><g class="b"><polygon points="1051,233 1067,239.1 1067,265.1 1051,259" fill="#a98669" opacity=".88"/><polygon points="1067,239.1 1097,233 1097,259 1067,265.1" fill="#8f9ba0" opacity=".72"/><polygon points="1051,233 1081,226.9 1097,233 1067,239.1" fill="#eef1ea"/><path d="M1059 243h14" stroke="#fff" stroke-opacity=".45"/></g><g class="b"><polygon points="126,279 142,285.1 142,318.1 126,312" fill="#a98669" opacity=".88"/><polygon points="142,285.1 177,279 177,312 142,318.1" fill="#8f9ba0" opacity=".72"/><polygon points="126,279 161,272.9 177,279 142,285.1" fill="#eef1ea"/><path d="M134 289h19" stroke="#fff" stroke-opacity=".45"/></g><g class="b"><polygon points="213,273 229,279.1 229,319.1 213,313" fill="#a98669" opacity=".88"/><polygon points="229,279.1 269,273 269,313 229,319.1" fill="#8f9ba0" opacity=".72"/><polygon points="213,273 253,266.9 269,273 229,279.1" fill="#eef1ea"/><path d="M221 283h24" stroke="#fff" stroke-opacity=".45"/></g><g class="b"><polygon points="324,267 340,273.1 340,320.1 324,314" fill="#d5e6ed" opacity=".88"/><polygon points="340,273.1 385,267 385,314 340,320.1" fill="#8f9ba0" opacity=".72"/><polygon points="324,267 369,260.9 385,267 340,273.1" fill="#ffffff"/><path d="M332 277h29" stroke="#fff" stroke-opacity=".45"/></g><g class="b"><polygon points="411,297 427,303.1 427,321.1 411,315" fill="#d5e6ed" opacity=".88"/><polygon points="427,303.1 455,297 455,315 427,321.1" fill="#8f9ba0" opacity=".72"/><polygon points="411,297 439,290.9 455,297 427,303.1" fill="#ffffff"/><path d="M419 307h12" stroke="#fff" stroke-opacity=".45"/></g><g class="b"><polygon points="498,291 514,297.1 514,322.1 498,316" fill="#a98669" opacity=".88"/><polygon points="514,297.1 547,291 547,316 514,322.1" fill="#8f9ba0" opacity=".72"/><polygon points="498,291 531,284.9 547,291 514,297.1" fill="#eef1ea"/><path d="M506 301h17" stroke="#fff" stroke-opacity=".45"/></g><g class="b"><polygon points="609,285 625,291.1 625,323.1 609,317" fill="#a98669" opacity=".88"/><polygon points="625,291.1 663,285 663,317 625,323.1" fill="#8f9ba0" opacity=".72"/><polygon points="609,285 647,278.9 663,285 625,291.1" fill="#eef1ea"/><path d="M617 295h22" stroke="#fff" stroke-opacity=".45"/></g><g class="b"><polygon points="696,279 712,285.1 712,324.1 696,318" fill="#a98669" opacity=".88"/><polygon points="712,285.1 755,279 755,318 712,324.1" fill="#8f9ba0" opacity=".72"/><polygon points="696,279 739,272.9 755,279 712,285.1" fill="#eef1ea"/><path d="M704 289h27" stroke="#fff" stroke-opacity=".45"/></g><g class="b"><polygon points="783,273 799,279.1 799,325.1 783,319" fill="#a98669" opacity=".88"/><polygon points="799,279.1 825,273 825,319 799,325.1" fill="#8f9ba0" opacity=".72"/><polygon points="783,273 809,266.9 825,273 799,279.1" fill="#eef1ea"/><path d="M791 283h12" stroke="#fff" stroke-opacity=".45"/></g><g class="b"><polygon points="870,267 886,273.1 886,326.1 870,320" fill="#a98669" opacity=".88"/><polygon points="886,273.1 917,267 917,320 886,326.1" fill="#8f9ba0" opacity=".72"/><polygon points="870,267 901,260.9 917,267 886,273.1" fill="#eef1ea"/><path d="M878 277h15" stroke="#fff" stroke-opacity=".45"/></g><g class="b"><polygon points="981,297 997,303.1 997,327.1 981,321" fill="#a98669" opacity=".88"/><polygon points="997,303.1 1033,297 1033,321 997,327.1" fill="#8f9ba0" opacity=".72"/><polygon points="981,297 1017,290.9 1033,297 997,303.1" fill="#eef1ea"/><path d="M989 307h20" stroke="#fff" stroke-opacity=".45"/></g><g class="b"><polygon points="1068,291 1084,297.1 1084,328.1 1068,322" fill="#a98669" opacity=".88"/><polygon points="1084,297.1 1125,291 1125,322 1084,328.1" fill="#8f9ba0" opacity=".72"/><polygon points="1068,291 1109,284.9 1125,291 1084,297.1" fill="#eef1ea"/><path d="M1076 301h25" stroke="#fff" stroke-opacity=".45"/></g><g class="b"><polygon points="99,315 115,321.1 115,359.1 99,353" fill="#a98669" opacity=".88"/><polygon points="115,321.1 139,315 139,353 115,359.1" fill="#8f9ba0" opacity=".72"/><polygon points="99,315 123,308.9 139,315 115,321.1" fill="#eef1ea"/><path d="M107 325h12" stroke="#fff" stroke-opacity=".45"/></g><g class="b"><polygon points="210,309 226,315.1 226,360.1 210,354" fill="#a98669" opacity=".88"/><polygon points="226,315.1 255,309 255,354 226,360.1" fill="#8f9ba0" opacity=".72"/><polygon points="210,309 239,302.9 255,309 226,315.1" fill="#eef1ea"/><path d="M218 319h13" stroke="#fff" stroke-opacity=".45"/></g><g class="b"><polygon points="297,303 313,309.1 313,361.1 297,355" fill="#a98669" opacity=".88"/><polygon points="313,309.1 347,303 347,355 313,361.1" fill="#8f9ba0" opacity=".72"/><polygon points="297,303 331,296.9 347,303 313,309.1" fill="#eef1ea"/><path d="M305 313h18" stroke="#fff" stroke-opacity=".45"/></g><g class="b"><polygon points="384,333 400,339.1 400,362.1 384,356" fill="#d5e6ed" opacity=".88"/><polygon points="400,339.1 439,333 439,356 400,362.1" fill="#8f9ba0" opacity=".72"/><polygon points="384,333 423,326.9 439,333 400,339.1" fill="#ffffff"/><path d="M392 343h23" stroke="#fff" stroke-opacity=".45"/></g><g class="b"><polygon points="471,327 487,333.1 487,363.1 471,357" fill="#a98669" opacity=".88"/><polygon points="487,333.1 531,327 531,357 487,363.1" fill="#8f9ba0" opacity=".72"/><polygon points="471,327 515,320.9 531,327 487,333.1" fill="#eef1ea"/><path d="M479 337h28" stroke="#fff" stroke-opacity=".45"/></g><g class="b"><polygon points="582,321 598,327.1 598,364.1 582,358" fill="#a98669" opacity=".88"/><polygon points="598,327.1 625,321 625,358 598,364.1" fill="#8f9ba0" opacity=".72"/><polygon points="582,321 609,314.9 625,321 598,327.1" fill="#eef1ea"/><path d="M590 331h12" stroke="#fff" stroke-opacity=".45"/></g><g class="b"><polygon points="669,315 685,321.1 685,365.1 669,359" fill="#a98669" opacity=".88"/><polygon points="685,321.1 717,315 717,359 685,365.1" fill="#8f9ba0" opacity=".72"/><polygon points="669,315 701,308.9 717,315 685,321.1" fill="#eef1ea"/><path d="M677 325h16" stroke="#fff" stroke-opacity=".45"/></g><g class="b"><polygon points="756,309 772,315.1 772,366.1 756,360" fill="#a98669" opacity=".88"/><polygon points="772,315.1 809,309 809,360 772,366.1" fill="#8f9ba0" opacity=".72"/><polygon points="756,309 793,302.9 809,309 772,315.1" fill="#eef1ea"/><path d="M764 319h21" stroke="#fff" stroke-opacity=".45"/></g><g class="b"><polygon points="867,339 883,345.1 883,367.1 867,361" fill="#a98669" opacity=".88"/><polygon points="883,345.1 925,339 925,361 883,367.1" fill="#8f9ba0" opacity=".72"/><polygon points="867,339 909,332.9 925,339 883,345.1" fill="#eef1ea"/><path d="M875 349h26" stroke="#fff" stroke-opacity=".45"/></g><g class="b"><polygon points="954,333 970,339.1 970,368.1 954,362" fill="#a98669" opacity=".88"/><polygon points="970,339.1 995,333 995,362 970,368.1" fill="#8f9ba0" opacity=".72"/><polygon points="954,333 979,326.9 995,333 970,339.1" fill="#eef1ea"/><path d="M962 343h12" stroke="#fff" stroke-opacity=".45"/></g><g class="b"><polygon points="1041,327 1057,333.1 1057,369.1 1041,363" fill="#a98669" opacity=".88"/><polygon points="1057,333.1 1087,327 1087,363 1057,369.1" fill="#8f9ba0" opacity=".72"/><polygon points="1041,327 1071,320.9 1087,327 1057,333.1" fill="#eef1ea"/><path d="M1049 337h14" stroke="#fff" stroke-opacity=".45"/></g><g class="b"><polygon points="140,373 156,379.1 156,422.1 140,416" fill="#a98669" opacity=".88"/><polygon points="156,379.1 191,373 191,416 156,422.1" fill="#8f9ba0" opacity=".72"/><polygon points="140,373 175,366.9 191,373 156,379.1" fill="#eef1ea"/><path d="M148 383h19" stroke="#fff" stroke-opacity=".45"/></g><g class="b"><polygon points="227,367 243,373.1 243,423.1 227,417" fill="#a98669" opacity=".88"/><polygon points="243,373.1 283,367 283,417 243,423.1" fill="#8f9ba0" opacity=".72"/><polygon points="227,367 267,360.9 283,367 243,373.1" fill="#eef1ea"/><path d="M235 377h24" stroke="#fff" stroke-opacity=".45"/></g><g class="b"><polygon points="314,397 330,403.1 330,424.1 314,418" fill="#a98669" opacity=".88"/><polygon points="330,403.1 375,397 375,418 330,424.1" fill="#8f9ba0" opacity=".72"/><polygon points="314,397 359,390.9 375,397 330,403.1" fill="#eef1ea"/><path d="M322 407h29" stroke="#fff" stroke-opacity=".45"/></g><g class="b"><polygon points="401,391 417,397.1 417,425.1 401,419" fill="#a98669" opacity=".88"/><polygon points="417,397.1 445,391 445,419 417,425.1" fill="#8f9ba0" opacity=".72"/><polygon points="401,391 429,384.9 445,391 417,397.1" fill="#eef1ea"/><path d="M409 401h12" stroke="#fff" stroke-opacity=".45"/></g><g class="b"><polygon points="512,385 528,391.1 528,426.1 512,420" fill="#a98669" opacity=".88"/><polygon points="528,391.1 561,385 561,420 528,426.1" fill="#8f9ba0" opacity=".72"/><polygon points="512,385 545,378.9 561,385 528,391.1" fill="#eef1ea"/><path d="M520 395h17" stroke="#fff" stroke-opacity=".45"/></g><g class="b"><polygon points="599,379 615,385.1 615,427.1 599,421" fill="#a98669" opacity=".88"/><polygon points="615,385.1 653,379 653,421 615,427.1" fill="#8f9ba0" opacity=".72"/><polygon points="599,379 637,372.9 653,379 615,385.1" fill="#eef1ea"/><path d="M607 389h22" stroke="#fff" stroke-opacity=".45"/></g><g class="b"><polygon points="686,373 702,379.1 702,428.1 686,422" fill="#a98669" opacity=".88"/><polygon points="702,379.1 745,373 745,422 702,428.1" fill="#8f9ba0" opacity=".72"/><polygon points="686,373 729,366.9 745,373 702,379.1" fill="#eef1ea"/><path d="M694 383h27" stroke="#fff" stroke-opacity=".45"/></g><g class="b"><polygon points="797,403 813,409.1 813,429.1 797,423" fill="#a98669" opacity=".88"/><polygon points="813,409.1 839,403 839,423 813,429.1" fill="#8f9ba0" opacity=".72"/><polygon points="797,403 823,396.9 839,403 813,409.1" fill="#eef1ea"/><path d="M805 413h12" stroke="#fff" stroke-opacity=".45"/></g><g class="b"><polygon points="884,397 900,403.1 900,430.1 884,424" fill="#a98669" opacity=".88"/><polygon points="900,403.1 931,397 931,424 900,430.1" fill="#8f9ba0" opacity=".72"/><polygon points="884,397 915,390.9 931,397 900,403.1" fill="#eef1ea"/><path d="M892 407h15" stroke="#fff" stroke-opacity=".45"/></g><g class="b"><polygon points="971,391 987,397.1 987,431.1 971,425" fill="#a98669" opacity=".88"/><polygon points="987,397.1 1023,391 1023,425 987,431.1" fill="#8f9ba0" opacity=".72"/><polygon points="971,391 1007,384.9 1023,391 987,397.1" fill="#eef1ea"/><path d="M979 401h20" stroke="#fff" stroke-opacity=".45"/></g><g class="b"><polygon points="1058,385 1074,391.1 1074,432.1 1058,426" fill="#a98669" opacity=".88"/><polygon points="1074,391.1 1115,385 1115,426 1074,432.1" fill="#8f9ba0" opacity=".72"/><polygon points="1058,385 1099,378.9 1115,385 1074,391.1" fill="#eef1ea"/><path d="M1066 395h25" stroke="#fff" stroke-opacity=".45"/></g><g class="b"><polygon points="113,409 129,415.1 129,463.1 113,457" fill="#a98669" opacity=".88"/><polygon points="129,415.1 153,409 153,457 129,463.1" fill="#8f9ba0" opacity=".72"/><polygon points="113,409 137,402.9 153,409 129,415.1" fill="#eef1ea"/><path d="M121 419h12" stroke="#fff" stroke-opacity=".45"/></g><g class="b"><polygon points="200,439 216,445.1 216,464.1 200,458" fill="#a98669" opacity=".88"/><polygon points="216,445.1 245,439 245,458 216,464.1" fill="#8f9ba0" opacity=".72"/><polygon points="200,439 229,432.9 245,439 216,445.1" fill="#eef1ea"/><path d="M208 449h13" stroke="#fff" stroke-opacity=".45"/></g><g class="b"><polygon points="287,433 303,439.1 303,465.1 287,459" fill="#a98669" opacity=".88"/><polygon points="303,439.1 337,433 337,459 303,465.1" fill="#8f9ba0" opacity=".72"/><polygon points="287,433 321,426.9 337,433 303,439.1" fill="#eef1ea"/><path d="M295 443h18" stroke="#fff" stroke-opacity=".45"/></g><g class="b"><polygon points="398,427 414,433.1 414,466.1 398,460" fill="#a98669" opacity=".88"/><polygon points="414,433.1 453,427 453,460 414,466.1" fill="#8f9ba0" opacity=".72"/><polygon points="398,427 437,420.9 453,427 414,433.1" fill="#eef1ea"/><path d="M406 437h23" stroke="#fff" stroke-opacity=".45"/></g><g class="b"><polygon points="485,421 501,427.1 501,467.1 485,461" fill="#a98669" opacity=".88"/><polygon points="501,427.1 545,421 545,461 501,467.1" fill="#8f9ba0" opacity=".72"/><polygon points="485,421 529,414.9 545,421 501,427.1" fill="#eef1ea"/><path d="M493 431h28" stroke="#fff" stroke-opacity=".45"/></g><g class="b"><polygon points="572,415 588,421.1 588,468.1 572,462" fill="#a98669" opacity=".88"/><polygon points="588,421.1 615,415 615,462 588,468.1" fill="#8f9ba0" opacity=".72"/><polygon points="572,415 599,408.9 615,415 588,421.1" fill="#eef1ea"/><path d="M580 425h12" stroke="#fff" stroke-opacity=".45"/></g><g class="b"><polygon points="659,445 675,451.1 675,469.1 659,463" fill="#a98669" opacity=".88"/><polygon points="675,451.1 707,445 707,463 675,469.1" fill="#8f9ba0" opacity=".72"/><polygon points="659,445 691,438.9 707,445 675,451.1" fill="#eef1ea"/><path d="M667 455h16" stroke="#fff" stroke-opacity=".45"/></g><g class="b"><polygon points="770,439 786,445.1 786,470.1 770,464" fill="#a98669" opacity=".88"/><polygon points="786,445.1 823,439 823,464 786,470.1" fill="#8f9ba0" opacity=".72"/><polygon points="770,439 807,432.9 823,439 786,445.1" fill="#eef1ea"/><path d="M778 449h21" stroke="#fff" stroke-opacity=".45"/></g><g class="b"><polygon points="857,433 873,439.1 873,471.1 857,465" fill="#a98669" opacity=".88"/><polygon points="873,439.1 915,433 915,465 873,471.1" fill="#8f9ba0" opacity=".72"/><polygon points="857,433 899,426.9 915,433 873,439.1" fill="#eef1ea"/><path d="M865 443h26" stroke="#fff" stroke-opacity=".45"/></g><g class="b"><polygon points="944,427 960,433.1 960,472.1 944,466" fill="#a98669" opacity=".88"/><polygon points="960,433.1 985,427 985,466 960,472.1" fill="#8f9ba0" opacity=".72"/><polygon points="944,427 969,420.9 985,427 960,433.1" fill="#eef1ea"/><path d="M952 437h12" stroke="#fff" stroke-opacity=".45"/></g><g class="b"><polygon points="1055,421 1071,427.1 1071,473.1 1055,467" fill="#a98669" opacity=".88"/><polygon points="1071,427.1 1101,421 1101,467 1071,473.1" fill="#8f9ba0" opacity=".72"/><polygon points="1055,421 1085,414.9 1101,421 1071,427.1" fill="#eef1ea"/><path d="M1063 431h14" stroke="#fff" stroke-opacity=".45"/></g><g class="b"><polygon points="130,467 146,473.1 146,526.1 130,520" fill="#a98669" opacity=".88"/><polygon points="146,473.1 181,467 181,520 146,526.1" fill="#8f9ba0" opacity=".72"/><polygon points="130,467 165,460.9 181,467 146,473.1" fill="#eef1ea"/><path d="M138 477h19" stroke="#fff" stroke-opacity=".45"/></g><g class="b"><polygon points="217,497 233,503.1 233,527.1 217,521" fill="#a98669" opacity=".88"/><polygon points="233,503.1 273,497 273,521 233,527.1" fill="#8f9ba0" opacity=".72"/><polygon points="217,497 257,490.9 273,497 233,503.1" fill="#eef1ea"/><path d="M225 507h24" stroke="#fff" stroke-opacity=".45"/></g><g class="b"><polygon points="328,491 344,497.1 344,528.1 328,522" fill="#a98669" opacity=".88"/><polygon points="344,497.1 389,491 389,522 344,528.1" fill="#8f9ba0" opacity=".72"/><polygon points="328,491 373,484.9 389,491 344,497.1" fill="#eef1ea"/><path d="M336 501h29" stroke="#fff" stroke-opacity=".45"/></g><g class="b"><polygon points="415,485 431,491.1 431,529.1 415,523" fill="#a98669" opacity=".88"/><polygon points="431,491.1 459,485 459,523 431,529.1" fill="#8f9ba0" opacity=".72"/><polygon points="415,485 443,478.9 459,485 431,491.1" fill="#eef1ea"/><path d="M423 495h12" stroke="#fff" stroke-opacity=".45"/></g><g class="b"><polygon points="502,479 518,485.1 518,530.1 502,524" fill="#a98669" opacity=".88"/><polygon points="518,485.1 551,479 551,524 518,530.1" fill="#8f9ba0" opacity=".72"/><polygon points="502,479 535,472.9 551,479 518,485.1" fill="#eef1ea"/><path d="M510 489h17" stroke="#fff" stroke-opacity=".45"/></g><g class="b"><polygon points="589,473 605,479.1 605,531.1 589,525" fill="#a98669" opacity=".88"/><polygon points="605,479.1 643,473 643,525 605,531.1" fill="#8f9ba0" opacity=".72"/><polygon points="589,473 627,466.9 643,473 605,479.1" fill="#eef1ea"/><path d="M597 483h22" stroke="#fff" stroke-opacity=".45"/></g><g class="b"><polygon points="700,503 716,509.1 716,532.1 700,526" fill="#a98669" opacity=".88"/><polygon points="716,509.1 759,503 759,526 716,532.1" fill="#8f9ba0" opacity=".72"/><polygon points="700,503 743,496.9 759,503 716,509.1" fill="#eef1ea"/><path d="M708 513h27" stroke="#fff" stroke-opacity=".45"/></g><g class="b"><polygon points="787,497 803,503.1 803,533.1 787,527" fill="#a98669" opacity=".88"/><polygon points="803,503.1 829,497 829,527 803,533.1" fill="#8f9ba0" opacity=".72"/><polygon points="787,497 813,490.9 829,497 803,503.1" fill="#eef1ea"/><path d="M795 507h12" stroke="#fff" stroke-opacity=".45"/></g><g class="b"><polygon points="874,491 890,497.1 890,534.1 874,528" fill="#a98669" opacity=".88"/><polygon points="890,497.1 921,491 921,528 890,534.1" fill="#8f9ba0" opacity=".72"/><polygon points="874,491 905,484.9 921,491 890,497.1" fill="#eef1ea"/><path d="M882 501h15" stroke="#fff" stroke-opacity=".45"/></g><g class="b"><polygon points="985,485 1001,491.1 1001,535.1 985,529" fill="#a98669" opacity=".88"/><polygon points="1001,491.1 1037,485 1037,529 1001,535.1" fill="#8f9ba0" opacity=".72"/><polygon points="985,485 1021,478.9 1037,485 1001,491.1" fill="#eef1ea"/><path d="M993 495h20" stroke="#fff" stroke-opacity=".45"/></g><g class="b"><polygon points="1072,479 1088,485.1 1088,536.1 1072,530" fill="#a98669" opacity=".88"/><polygon points="1088,485.1 1129,479 1129,530 1088,536.1" fill="#8f9ba0" opacity=".72"/><polygon points="1072,479 1113,472.9 1129,479 1088,485.1" fill="#eef1ea"/><path d="M1080 489h25" stroke="#fff" stroke-opacity=".45"/></g><g class="b"><polygon points="103,539 119,545.1 119,567.1 103,561" fill="#a98669" opacity=".88"/><polygon points="119,545.1 143,539 143,561 119,567.1" fill="#8f9ba0" opacity=".72"/><polygon points="103,539 127,532.9 143,539 119,545.1" fill="#eef1ea"/><path d="M111 549h12" stroke="#fff" stroke-opacity=".45"/></g><g class="b"><polygon points="190,533 206,539.1 206,568.1 190,562" fill="#a98669" opacity=".88"/><polygon points="206,539.1 235,533 235,562 206,568.1" fill="#8f9ba0" opacity=".72"/><polygon points="190,533 219,526.9 235,533 206,539.1" fill="#eef1ea"/><path d="M198 543h13" stroke="#fff" stroke-opacity=".45"/></g><g class="b"><polygon points="301,527 317,533.1 317,569.1 301,563" fill="#a98669" opacity=".88"/><polygon points="317,533.1 351,527 351,563 317,569.1" fill="#8f9ba0" opacity=".72"/><polygon points="301,527 335,520.9 351,527 317,533.1" fill="#eef1ea"/><path d="M309 537h18" stroke="#fff" stroke-opacity=".45"/></g><g class="b"><polygon points="388,521 404,527.1 404,570.1 388,564" fill="#a98669" opacity=".88"/><polygon points="404,527.1 443,521 443,564 404,570.1" fill="#8f9ba0" opacity=".72"/><polygon points="388,521 427,514.9 443,521 404,527.1" fill="#eef1ea"/><path d="M396 531h23" stroke="#fff" stroke-opacity=".45"/></g></g>
<circle cx="360" cy="250" r="142" fill="#ffd66b" opacity=".18"/><circle cx="360" cy="250" r="88" fill="none" stroke="#ffe08a" stroke-width="7" opacity=".9"/>
<g transform="translate(360 250)" filter="url(#softShadow)">
      <ellipse cx="0" cy="28" rx="92" ry="34" fill="#263238" opacity=".16"/>
      <rect x="-54" y="-58" width="108" height="96" rx="6" fill="#fff7c2" opacity=".98"/>
      <path d="M-54 -58 L0 -84 L54 -58 Z" fill="#d9e6ea"/>
      <path d="M-36 -30 H36 M-36 -6 H36 M-36 18 H36" stroke="#8a9aa0" stroke-width="4" opacity=".55"/>
    </g><g transform="translate(360 156)" class="marker">
    <path d="M0 -22 C24 -22 40 -7 40 13 C40 43 0 64 0 64 C0 64 -40 43 -40 13 C-40 -7 -24 -22 0 -22Z" fill="#ffd66b" stroke="#5a533f" stroke-width="3"/>
    <circle cx="0" cy="12" r="13" fill="#fff7cf"/>
    <text x="0" y="92" text-anchor="middle" font-size="25" font-weight="800" fill="#2f312d" paint-order="stroke" stroke="#fff5da" stroke-width="5">出租屋</text>
  </g><g transform="translate(610 245)" filter="url(#softShadow)">
      <ellipse cx="0" cy="28" rx="92" ry="34" fill="#263238" opacity=".16"/>
      <rect x="-54" y="-58" width="108" height="96" rx="6" fill="#f6f1de" opacity=".98"/>
      <path d="M-54 -58 L0 -84 L54 -58 Z" fill="#d9e6ea"/>
      <path d="M-36 -30 H36 M-36 -6 H36 M-36 18 H36" stroke="#8a9aa0" stroke-width="4" opacity=".55"/>
    </g><g transform="translate(610 151)" class="marker">
    <path d="M0 -22 C24 -22 40 -7 40 13 C40 43 0 64 0 64 C0 64 -40 43 -40 13 C-40 -7 -24 -22 0 -22Z" fill="#f4ead1" stroke="#5a533f" stroke-width="3"/>
    <circle cx="0" cy="12" r="13" fill="#b8c9d0"/>
    <text x="0" y="92" text-anchor="middle" font-size="21" font-weight="800" fill="#2f312d" paint-order="stroke" stroke="#fff5da" stroke-width="5">中介门店</text>
  </g><g transform="translate(780 390)" filter="url(#softShadow)">
      <ellipse cx="0" cy="28" rx="92" ry="34" fill="#263238" opacity=".16"/>
      <rect x="-54" y="-58" width="108" height="96" rx="6" fill="#f6f1de" opacity=".98"/>
      <path d="M-54 -58 L0 -84 L54 -58 Z" fill="#d9e6ea"/>
      <path d="M-36 -30 H36 M-36 -6 H36 M-36 18 H36" stroke="#8a9aa0" stroke-width="4" opacity=".55"/>
    </g><g transform="translate(780 296)" class="marker">
    <path d="M0 -22 C24 -22 40 -7 40 13 C40 43 0 64 0 64 C0 64 -40 43 -40 13 C-40 -7 -24 -22 0 -22Z" fill="#f4ead1" stroke="#5a533f" stroke-width="3"/>
    <circle cx="0" cy="12" r="13" fill="#b8c9d0"/>
    <text x="0" y="92" text-anchor="middle" font-size="21" font-weight="800" fill="#2f312d" paint-order="stroke" stroke="#fff5da" stroke-width="5">菜市场</text>
  </g><g transform="translate(470 500)" filter="url(#softShadow)">
      <ellipse cx="0" cy="28" rx="92" ry="34" fill="#263238" opacity=".16"/>
      <rect x="-54" y="-58" width="108" height="96" rx="6" fill="#f6f1de" opacity=".98"/>
      <path d="M-54 -58 L0 -84 L54 -58 Z" fill="#d9e6ea"/>
      <path d="M-36 -30 H36 M-36 -6 H36 M-36 18 H36" stroke="#8a9aa0" stroke-width="4" opacity=".55"/>
    </g><g transform="translate(470 406)" class="marker">
    <path d="M0 -22 C24 -22 40 -7 40 13 C40 43 0 64 0 64 C0 64 -40 43 -40 13 C-40 -7 -24 -22 0 -22Z" fill="#f4ead1" stroke="#5a533f" stroke-width="3"/>
    <circle cx="0" cy="12" r="13" fill="#b8c9d0"/>
    <text x="0" y="92" text-anchor="middle" font-size="21" font-weight="800" fill="#2f312d" paint-order="stroke" stroke="#fff5da" stroke-width="5">小卖部</text>
  </g><g transform="translate(910 555)" filter="url(#softShadow)">
    <rect x="-82" y="-26" width="164" height="52" rx="8" fill="#d7d9d5"/>
    <path d="M-70 6 H70" stroke="#6c7172" stroke-width="8"/>
    <path d="M-48 -11 H48" stroke="#9aa1a2" stroke-width="4"/>
    <circle cx="-36" cy="19" r="6" fill="#44525a"/><circle cx="36" cy="19" r="6" fill="#44525a"/>
  </g><g transform="translate(955 441)" class="marker">
    <path d="M0 -22 C24 -22 40 -7 40 13 C40 43 0 64 0 64 C0 64 -40 43 -40 13 C-40 -7 -24 -22 0 -22Z" fill="#f4ead1" stroke="#5a533f" stroke-width="3"/>
    <circle cx="0" cy="12" r="13" fill="#b8c9d0"/>
    <text x="0" y="92" text-anchor="middle" font-size="21" font-weight="800" fill="#2f312d" paint-order="stroke" stroke="#fff5da" stroke-width="5">地铁站</text>
  </g>
<g>
  <rect x="44" y="38" width="430" height="86" rx="12" fill="#fff8e7" opacity=".86"/>
  <text x="68" y="82" font-size="34" fill="#263238" font-weight="800">出租屋</text>
  <text x="70" y="110" font-size="18" fill="#627073">城南租住区 · 设施放大图</text>
</g>
<g opacity=".42" filter="url(#blur)">
    <ellipse cx="80" cy="40" rx="130" ry="42" fill="#fff"/>
    <ellipse cx="1230" cy="62" rx="145" ry="46" fill="#fff"/>
    <ellipse cx="1160" cy="695" rx="170" ry="50" fill="#fff"/>
    <ellipse cx="35" cy="680" rx="140" ry="44" fill="#fff"/>
  </g>
<rect width="1280" height="720" fill="url(#v)"/>
</svg>