<svg xmlns="http://www.w3.org/2000/svg" width="1280" height="720" viewBox="0 0 1280 720">
<defs>
    <linearGradient id="ground" x1="0" y1="0" x2="1" y2="1"><stop stop-color="#dfe1dc"/><stop offset=".58" stop-color="#d3d6cb"/><stop offset="1" stop-color="#b8b2a0"/></linearGradient>
    <filter id="softShadow"><feDropShadow dx="0" dy="10" stdDeviation="8" flood-color="#1a2327" flood-opacity=".28"/></filter>
    <filter id="blur"><feGaussianBlur stdDeviation="13"/></filter>
    <radialGradient id="sun" cx="12%" cy="5%" r="75%"><stop stop-color="#fff6d6" stop-opacity=".68"/><stop offset=".42" stop-color="#fff" stop-opacity="0"/></radialGradient>
    <linearGradient id="v" x1="0" y1="0" x2="0" y2="1"><stop stop-color="#ffffff" stop-opacity=".04"/><stop offset="1" stop-color="#6c675d" stop-opacity=".18"/></linearGradient>
  </defs>
<rect width="1280" height="720" fill="url(#ground)"/>
<rect width="1280" height="720" fill="url(#sun)"/>
<path d="M-30 125 C150 215 245 55 405 125 C535 180 675 120 805 65 C955 0 1115 45 1320 -25 L1320 0 C1110 90 970 55 820 120 C660 190 525 230 375 170 C225 115 155 265 -30 185Z" fill="#5f8fa3" opacity=".78"/><g opacity=".88">
    <path d="M40 410 C155 345 260 350 365 420 C245 500 135 510 40 410Z" fill="#75a766"/>
    <path d="M875 125 C980 80 1130 100 1230 175 C1100 245 980 235 875 125Z" fill="#7ca56b"/>
    <circle cx="60" cy="125" r="2" fill="#436b3c" opacity=".55"/><circle cx="133" cy="166" r="3" fill="#436b3c" opacity=".55"/><circle cx="206" cy="207" r="4" fill="#436b3c" opacity=".55"/><circle cx="279" cy="248" r="5" fill="#436b3c" opacity=".55"/><circle cx="352" cy="289" r="2" fill="#436b3c" opacity=".55"/><circle cx="425" cy="330" r="3" fill="#436b3c" opacity=".55"/><circle cx="498" cy="371" r="4" fill="#436b3c" opacity=".55"/><circle cx="571" cy="412" r="5" fill="#436b3c" opacity=".55"/><circle cx="644" cy="453" r="2" fill="#436b3c" opacity=".55"/><circle cx="717" cy="494" r="3" fill="#436b3c" opacity=".55"/><circle cx="790" cy="535" r="4" fill="#436b3c" opacity=".55"/><circle cx="863" cy="576" r="5" fill="#436b3c" opacity=".55"/><circle cx="936" cy="617" r="2" fill="#436b3c" opacity=".55"/><circle cx="1009" cy="158" r="3" fill="#436b3c" opacity=".55"/><circle cx="1082" cy="199" r="4" fill="#436b3c" opacity=".55"/><circle cx="1155" cy="240" r="5" fill="#436b3c" opacity=".55"/><circle cx="108" cy="281" r="2" fill="#436b3c" opacity=".55"/><circle cx="181" cy="322" r="3" fill="#436b3c" opacity=".55"/><circle cx="254" cy="363" r="4" fill="#436b3c" opacity=".55"/><circle cx="327" cy="404" r="5" fill="#436b3c" opacity=".55"/><circle cx="400" cy="445" r="2" fill="#436b3c" opacity=".55"/><circle cx="473" cy="486" r="3" fill="#436b3c" opacity=".55"/><circle cx="546" cy="527" r="4" fill="#436b3c" opacity=".55"/><circle cx="619" cy="568" r="5" fill="#436b3c" opacity=".55"/><circle cx="692" cy="609" r="2" fill="#436b3c" opacity=".55"/><circle cx="765" cy="150" r="3" fill="#436b3c" opacity=".55"/><circle cx="838" cy="191" r="4" fill="#436b3c" opacity=".55"/><circle cx="911" cy="232" r="5" fill="#436b3c" opacity=".55"/><circle cx="984" cy="273" r="2" fill="#436b3c" opacity=".55"/><circle cx="1057" cy="314" r="3" fill="#436b3c" opacity=".55"/><circle cx="1130" cy="355" r="4" fill="#436b3c" opacity=".55"/><circle cx="83" cy="396" r="5" fill="#436b3c" opacity=".55"/><circle cx="156" cy="437" r="2" fill="#436b3c" opacity=".55"/><circle cx="229" cy="478" r="3" fill="#436b3c" opacity=".55"/><circle cx="302" cy="519" r="4" fill="#436b3c" opacity=".55"/><circle cx="375" cy="560" r="5" fill="#436b3c" opacity=".55"/><circle cx="448" cy="601" r="2" fill="#436b3c" opacity=".55"/><circle cx="521" cy="142" r="3" fill="#436b3c" opacity=".55"/><circle cx="594" cy="183" r="4" fill="#436b3c" opacity=".55"/><circle cx="667" cy="224" r="5" fill="#436b3c" opacity=".55"/><circle cx="740" cy="265" r="2" fill="#436b3c" opacity=".55"/><circle cx="813" cy="306" r="3" fill="#436b3c" opacity=".55"/><circle cx="886" cy="347" r="4" fill="#436b3c" opacity=".55"/><circle cx="959" cy="388" r="5" fill="#436b3c" opacity=".55"/><circle cx="1032" cy="429" r="2" fill="#436b3c" opacity=".55"/><circle cx="1105" cy="470" r="3" fill="#436b3c" opacity=".55"/><circle cx="1178" cy="511" r="4" fill="#436b3c" opacity=".55"/><circle cx="131" cy="552" r="5" fill="#436b3c" opacity=".55"/><circle cx="204" cy="593" r="2" fill="#436b3c" opacity=".55"/><circle cx="277" cy="134" r="3" fill="#436b3c" opacity=".55"/><circle cx="350" cy="175" r="4" fill="#436b3c" opacity=".55"/><circle cx="423" cy="216" r="5" fill="#436b3c" opacity=".55"/><circle cx="496" cy="257" r="2" fill="#436b3c" opacity=".55"/><circle cx="569" cy="298" r="3" fill="#436b3c" opacity=".55"/><circle cx="642" cy="339" r="4" fill="#436b3c" opacity=".55"/><circle cx="715" cy="380" r="5" fill="#436b3c" opacity=".55"/><circle cx="788" cy="421" r="2" fill="#436b3c" opacity=".55"/><circle cx="861" cy="462" r="3" fill="#436b3c" opacity=".55"/><circle cx="934" cy="503" r="4" fill="#436b3c" opacity=".55"/><circle cx="1007" cy="544" r="5" fill="#436b3c" opacity=".55"/><circle cx="1080" cy="585" r="2" fill="#436b3c" opacity=".55"/><circle cx="1153" cy="126" r="3" fill="#436b3c" opacity=".55"/><circle cx="106" cy="167" r="4" fill="#436b3c" opacity=".55"/><circle cx="179" cy="208" r="5" fill="#436b3c" opacity=".55"/><circle cx="252" cy="249" r="2" fill="#436b3c" opacity=".55"/><circle cx="325" cy="290" r="3" fill="#436b3c" opacity=".55"/><circle cx="398" cy="331" r="4" fill="#436b3c" opacity=".55"/><circle cx="471" cy="372" r="5" fill="#436b3c" opacity=".55"/><circle cx="544" cy="413" r="2" fill="#436b3c" opacity=".55"/><circle cx="617" cy="454" r="3" fill="#436b3c" opacity=".55"/><circle cx="690" cy="495" r="4" fill="#436b3c" opacity=".55"/><circle cx="763" cy="536" r="5" fill="#436b3c" opacity=".55"/><circle cx="836" cy="577" r="2" fill="#436b3c" opacity=".55"/><circle cx="909" cy="618" r="3" fill="#436b3c" opacity=".55"/><circle cx="982" cy="159" r="4" fill="#436b3c" opacity=".55"/><circle cx="1055" cy="200" r="5" fill="#436b3c" opacity=".55"/><circle cx="1128" cy="241" r="2" fill="#436b3c" opacity=".55"/><circle cx="81" cy="282" r="3" fill="#436b3c" opacity=".55"/><circle cx="154" cy="323" r="4" fill="#436b3c" opacity=".55"/><circle cx="227" cy="364" r="5" fill="#436b3c" opacity=".55"/>
  </g>
<g class="roads">
    <path d="M-40 575 C190 500 365 500 565 545 C775 595 1005 575 1320 455" stroke="#464d50" stroke-width="54" fill="none"/>
    <path d="M-40 575 C190 500 365 500 565 545 C775 595 1005 575 1320 455" stroke="#eef0e8" stroke-width="4" fill="none" opacity=".65"/>
    <path d="M1020 -30 C900 120 850 285 900 505 C925 610 1005 685 1115 760" stroke="#4c5356" stroke-width="36" fill="none"/>
    <path d="M130 720 C235 540 330 390 445 270 C560 150 740 85 1110 35" stroke="#454c50" stroke-width="34" fill="none"/>
    <path d="M120 365 C330 305 520 315 685 365 C815 405 915 405 1045 360" stroke="#595f62" stroke-width="18" fill="none" opacity=".92"/>
    <path d="M120 365 C330 305 520 315 685 365 C815 405 915 405 1045 360" stroke="#f5f1df" stroke-width="2" fill="none" opacity=".6"/>
  </g>
<g filter="url(#softShadow)"><g class="b"><polygon points="95,123 113,129.8 113,151.8 95,145" fill="#b4b9ad" opacity=".88"/><polygon points="113,129.8 145,123 145,145 113,151.8" fill="#8f9ba0" opacity=".72"/><polygon points="95,123 127,116.2 145,123 113,129.8" fill="#eef1ea"/><path d="M103 133h16" stroke="#fff" stroke-opacity=".45"/></g><g class="b"><polygon points="206,111 229,119.7 229,154.7 206,146" fill="#b4b9ad" opacity=".88"/><polygon points="229,119.7 268,111 268,146 229,154.7" fill="#8f9ba0" opacity=".72"/><polygon points="206,111 245,102.3 268,111 229,119.7" fill="#eef1ea"/><path d="M214 121h23" stroke="#fff" stroke-opacity=".45"/></g><g class="b"><polygon points="293,99 321,109.6 321,157.6 293,147" fill="#b4b9ad" opacity=".88"/><polygon points="321,109.6 367,99 367,147 321,157.6" fill="#8f9ba0" opacity=".72"/><polygon points="293,99 339,88.4 367,99 321,109.6" fill="#eef1ea"/><path d="M301 109h30" stroke="#fff" stroke-opacity=".45"/></g><g class="b"><polygon points="380,87 413,99.5 413,160.5 380,148" fill="#b4b9ad" opacity=".88"/><polygon points="413,99.5 466,87 466,148 413,160.5" fill="#8f9ba0" opacity=".72"/><polygon points="380,87 433,74.5 466,87 413,99.5" fill="#eef1ea"/><path d="M388 97h37" stroke="#fff" stroke-opacity=".45"/></g><g class="b"><polygon points="491,75 513,83.4 513,157.4 491,149" fill="#b4b9ad" opacity=".88"/><polygon points="513,83.4 573,75 573,149 513,157.4" fill="#8f9ba0" opacity=".72"/><polygon points="491,75 551,66.6 573,75 513,83.4" fill="#eef1ea"/><path d="M499 85h44" stroke="#fff" stroke-opacity=".45"/></g><g class="b"><polygon points="578,121 605,131.3 605,160.3 578,150" fill="#b4b9ad" opacity=".88"/><polygon points="605,131.3 642,121 642,150 605,160.3" fill="#8f9ba0" opacity=".72"/><polygon points="578,121 615,110.7 642,121 605,131.3" fill="#eef1ea"/><path d="M586 131h21" stroke="#fff" stroke-opacity=".45"/></g><g class="b"><polygon points="665,109 697,121.2 697,163.2 665,151" fill="#b4b9ad" opacity=".88"/><polygon points="697,121.2 741,109 741,151 697,163.2" fill="#8f9ba0" opacity=".72"/><polygon points="665,109 709,96.8 741,109 697,121.2" fill="#eef1ea"/><path d="M673 119h28" stroke="#fff" stroke-opacity=".45"/></g><g class="b"><polygon points="776,97 797,105 797,160 776,152" fill="#b4b9ad" opacity=".88"/><polygon points="797,105 848,97 848,152 797,160" fill="#8f9ba0" opacity=".72"/><polygon points="776,97 827,89 848,97 797,105" fill="#eef1ea"/><path d="M784 107h35" stroke="#fff" stroke-opacity=".45"/></g><g class="b"><polygon points="863,85 889,94.9 889,162.9 863,153" fill="#b4b9ad" opacity=".88"/><polygon points="889,94.9 947,85 947,153 889,162.9" fill="#8f9ba0" opacity=".72"/><polygon points="863,85 921,75.1 947,85 889,94.9" fill="#eef1ea"/><path d="M871 95h42" stroke="#fff" stroke-opacity=".45"/></g><g class="b"><polygon points="950,131 981,142.8 981,165.8 950,154" fill="#b4b9ad" opacity=".88"/><polygon points="981,142.8 1016,131 1016,154 981,165.8" fill="#8f9ba0" opacity=".72"/><polygon points="950,131 985,119.2 1016,131 981,142.8" fill="#eef1ea"/><path d="M958 141h19" stroke="#fff" stroke-opacity=".45"/></g><g class="b"><polygon points="1037,119 1057,126.6 1057,162.6 1037,155" fill="#b4b9ad" opacity=".88"/><polygon points="1057,126.6 1099,119 1099,155 1057,162.6" fill="#8f9ba0" opacity=".72"/><polygon points="1037,119 1079,111.4 1099,119 1057,126.6" fill="#eef1ea"/><path d="M1045 129h26" stroke="#fff" stroke-opacity=".45"/></g><g class="b"><polygon points="136,159 161,168.5 161,217.5 136,208" fill="#b4b9ad" opacity=".88"/><polygon points="161,168.5 210,159 210,208 161,217.5" fill="#8f9ba0" opacity=".72"/><polygon points="136,159 185,149.5 210,159 161,168.5" fill="#eef1ea"/><path d="M144 169h33" stroke="#fff" stroke-opacity=".45"/></g><g class="b"><polygon points="223,147 253,158.4 253,220.4 223,209" fill="#b4b9ad" opacity=".88"/><polygon points="253,158.4 309,147 309,209 253,220.4" fill="#8f9ba0" opacity=".72"/><polygon points="223,147 279,135.6 309,147 253,158.4" fill="#eef1ea"/><path d="M231 157h40" stroke="#fff" stroke-opacity=".45"/></g><g class="b"><polygon points="310,135 329,142.2 329,217.2 310,210" fill="#b4b9ad" opacity=".88"/><polygon points="329,142.2 362,135 362,210 329,217.2" fill="#8f9ba0" opacity=".72"/><polygon points="310,135 343,127.8 362,135 329,142.2" fill="#eef1ea"/><path d="M318 145h17" stroke="#fff" stroke-opacity=".45"/></g><g class="b"><polygon points="421,181 445,190.1 445,220.1 421,211" fill="#b4b9ad" opacity=".88"/><polygon points="445,190.1 485,181 485,211 445,220.1" fill="#8f9ba0" opacity=".72"/><polygon points="421,181 461,171.9 485,181 445,190.1" fill="#eef1ea"/><path d="M429 191h24" stroke="#fff" stroke-opacity=".45"/></g><g class="b"><polygon points="508,169 537,180 537,223 508,212" fill="#b4b9ad" opacity=".88"/><polygon points="537,180 584,169 584,212 537,223" fill="#8f9ba0" opacity=".72"/><polygon points="508,169 555,158 584,169 537,180" fill="#eef1ea"/><path d="M516 179h31" stroke="#fff" stroke-opacity=".45"/></g><g class="b"><polygon points="595,157 613,163.8 613,219.8 595,213" fill="#b4b9ad" opacity=".88"/><polygon points="613,163.8 667,157 667,213 613,219.8" fill="#8f9ba0" opacity=".72"/><polygon points="595,157 649,150.2 667,157 613,163.8" fill="#eef1ea"/><path d="M603 167h38" stroke="#fff" stroke-opacity=".45"/></g><g class="b"><polygon points="682,145 705,153.7 705,222.7 682,214" fill="#b4b9ad" opacity=".88"/><polygon points="705,153.7 766,145 766,214 705,222.7" fill="#8f9ba0" opacity=".72"/><polygon points="682,145 743,136.3 766,145 705,153.7" fill="#eef1ea"/><path d="M690 155h45" stroke="#fff" stroke-opacity=".45"/></g><g class="b"><polygon points="793,191 821,201.6 821,225.6 793,215" fill="#b4b9ad" opacity=".88"/><polygon points="821,201.6 859,191 859,215 821,225.6" fill="#8f9ba0" opacity=".72"/><polygon points="793,191 831,180.4 859,191 821,201.6" fill="#eef1ea"/><path d="M801 201h22" stroke="#fff" stroke-opacity=".45"/></g><g class="b"><polygon points="880,179 913,191.5 913,228.5 880,216" fill="#b4b9ad" opacity=".88"/><polygon points="913,191.5 958,179 958,216 913,228.5" fill="#8f9ba0" opacity=".72"/><polygon points="880,179 925,166.5 958,179 913,191.5" fill="#eef1ea"/><path d="M888 189h29" stroke="#fff" stroke-opacity=".45"/></g><g class="b"><polygon points="967,167 989,175.4 989,225.4 967,217" fill="#b4b9ad" opacity=".88"/><polygon points="989,175.4 1041,167 1041,217 989,225.4" fill="#8f9ba0" opacity=".72"/><polygon points="967,167 1019,158.6 1041,167 989,175.4" fill="#eef1ea"/><path d="M975 177h36" stroke="#fff" stroke-opacity=".45"/></g><g class="b"><polygon points="1078,155 1105,165.3 1105,228.3 1078,218" fill="#b4b9ad" opacity=".88"/><polygon points="1105,165.3 1164,155 1164,218 1105,228.3" fill="#8f9ba0" opacity=".72"/><polygon points="1078,155 1137,144.7 1164,155 1105,165.3" fill="#eef1ea"/><path d="M1086 165h43" stroke="#fff" stroke-opacity=".45"/></g><g class="b"><polygon points="109,173 141,185.2 141,261.2 109,249" fill="#b4b9ad" opacity=".88"/><polygon points="141,185.2 177,173 177,249 141,261.2" fill="#8f9ba0" opacity=".72"/><polygon points="109,173 145,160.8 177,173 141,185.2" fill="#eef1ea"/><path d="M117 183h20" stroke="#fff" stroke-opacity=".45"/></g><g class="b"><polygon points="196,219 217,227 217,258 196,250" fill="#b4b9ad" opacity=".88"/><polygon points="217,227 260,219 260,250 217,258" fill="#8f9ba0" opacity=".72"/><polygon points="196,219 239,211 260,219 217,227" fill="#eef1ea"/><path d="M204 229h27" stroke="#fff" stroke-opacity=".45"/></g><g class="b"><polygon points="283,207 309,216.9 309,260.9 283,251" fill="#b4b9ad" opacity=".88"/><polygon points="309,216.9 359,207 359,251 309,260.9" fill="#8f9ba0" opacity=".72"/><polygon points="283,207 333,197.1 359,207 309,216.9" fill="#eef1ea"/><path d="M291 217h34" stroke="#fff" stroke-opacity=".45"/></g><g class="b"><polygon points="394,195 425,206.8 425,263.8 394,252" fill="#b4b9ad" opacity=".88"/><polygon points="425,206.8 482,195 482,252 425,263.8" fill="#8f9ba0" opacity=".72"/><polygon points="394,195 451,183.2 482,195 425,206.8" fill="#eef1ea"/><path d="M402 205h41" stroke="#fff" stroke-opacity=".45"/></g><g class="b"><polygon points="481,183 501,190.6 501,260.6 481,253" fill="#b4b9ad" opacity=".88"/><polygon points="501,190.6 535,183 535,253 501,260.6" fill="#8f9ba0" opacity=".72"/><polygon points="481,183 515,175.4 535,183 501,190.6" fill="#eef1ea"/><path d="M489 193h18" stroke="#fff" stroke-opacity=".45"/></g><g class="b"><polygon points="568,229 593,238.5 593,263.5 568,254" fill="#b4b9ad" opacity=".88"/><polygon points="593,238.5 634,229 634,254 593,263.5" fill="#8f9ba0" opacity=".72"/><polygon points="568,229 609,219.5 634,229 593,238.5" fill="#eef1ea"/><path d="M576 239h25" stroke="#fff" stroke-opacity=".45"/></g><g class="b"><polygon points="679,217 709,228.4 709,266.4 679,255" fill="#b4b9ad" opacity=".88"/><polygon points="709,228.4 757,217 757,255 709,266.4" fill="#8f9ba0" opacity=".72"/><polygon points="679,217 727,205.6 757,217 709,228.4" fill="#eef1ea"/><path d="M687 227h32" stroke="#fff" stroke-opacity=".45"/></g><g class="b"><polygon points="766,205 785,212.2 785,263.2 766,256" fill="#b4b9ad" opacity=".88"/><polygon points="785,212.2 840,205 840,256 785,263.2" fill="#8f9ba0" opacity=".72"/><polygon points="766,205 821,197.8 840,205 785,212.2" fill="#eef1ea"/><path d="M774 215h39" stroke="#fff" stroke-opacity=".45"/></g><g class="b"><polygon points="853,193 877,202.1 877,266.1 853,257" fill="#b4b9ad" opacity=".88"/><polygon points="877,202.1 909,193 909,257 877,266.1" fill="#8f9ba0" opacity=".72"/><polygon points="853,193 885,183.9 909,193 877,202.1" fill="#eef1ea"/><path d="M861 203h16" stroke="#fff" stroke-opacity=".45"/></g><g class="b"><polygon points="964,181 993,192 993,269 964,258" fill="#b4b9ad" opacity=".88"/><polygon points="993,192 1032,181 1032,258 993,269" fill="#8f9ba0" opacity=".72"/><polygon points="964,181 1003,170 1032,181 993,192" fill="#eef1ea"/><path d="M972 191h23" stroke="#fff" stroke-opacity=".45"/></g><g class="b"><polygon points="1051,227 1069,233.8 1069,265.8 1051,259" fill="#b4b9ad" opacity=".88"/><polygon points="1069,233.8 1115,227 1115,259 1069,265.8" fill="#8f9ba0" opacity=".72"/><polygon points="1051,227 1097,220.2 1115,227 1069,233.8" fill="#eef1ea"/><path d="M1059 237h30" stroke="#fff" stroke-opacity=".45"/></g><g class="b"><polygon points="126,267 149,275.7 149,320.7 126,312" fill="#b4b9ad" opacity=".88"/><polygon points="149,275.7 202,267 202,312 149,320.7" fill="#8f9ba0" opacity=".72"/><polygon points="126,267 179,258.3 202,267 149,275.7" fill="#eef1ea"/><path d="M134 277h37" stroke="#fff" stroke-opacity=".45"/></g><g class="b"><polygon points="213,255 241,265.6 241,323.6 213,313" fill="#b4b9ad" opacity=".88"/><polygon points="241,265.6 301,255 301,313 241,323.6" fill="#8f9ba0" opacity=".72"/><polygon points="213,255 273,244.4 301,255 241,265.6" fill="#eef1ea"/><path d="M221 265h44" stroke="#fff" stroke-opacity=".45"/></g><g class="b"><polygon points="324,243 357,255.5 357,326.5 324,314" fill="#b4b9ad" opacity=".88"/><polygon points="357,255.5 394,243 394,314 357,326.5" fill="#8f9ba0" opacity=".72"/><polygon points="324,243 361,230.5 394,243 357,255.5" fill="#eef1ea"/><path d="M332 253h21" stroke="#fff" stroke-opacity=".45"/></g><g class="b"><polygon points="411,289 433,297.4 433,323.4 411,315" fill="#b4b9ad" opacity=".88"/><polygon points="433,297.4 477,289 477,315 433,323.4" fill="#8f9ba0" opacity=".72"/><polygon points="411,289 455,280.6 477,289 433,297.4" fill="#eef1ea"/><path d="M419 299h28" stroke="#fff" stroke-opacity=".45"/></g><g class="b"><polygon points="498,277 525,287.3 525,326.3 498,316" fill="#b4b9ad" opacity=".88"/><polygon points="525,287.3 576,277 576,316 525,326.3" fill="#8f9ba0" opacity=".72"/><polygon points="498,277 549,266.7 576,277 525,287.3" fill="#eef1ea"/><path d="M506 287h35" stroke="#fff" stroke-opacity=".45"/></g><g class="b"><polygon points="609,265 641,277.2 641,329.2 609,317" fill="#b4b9ad" opacity=".88"/><polygon points="641,277.2 699,265 699,317 641,329.2" fill="#8f9ba0" opacity=".72"/><polygon points="609,265 667,252.8 699,265 641,277.2" fill="#eef1ea"/><path d="M617 275h42" stroke="#fff" stroke-opacity=".45"/></g><g class="b"><polygon points="696,253 717,261 717,326 696,318" fill="#b4b9ad" opacity=".88"/><polygon points="717,261 752,253 752,318 717,326" fill="#8f9ba0" opacity=".72"/><polygon points="696,253 731,245 752,253 717,261" fill="#eef1ea"/><path d="M704 263h19" stroke="#fff" stroke-opacity=".45"/></g><g class="b"><polygon points="783,241 809,250.9 809,328.9 783,319" fill="#b4b9ad" opacity=".88"/><polygon points="809,250.9 851,241 851,319 809,328.9" fill="#8f9ba0" opacity=".72"/><polygon points="783,241 825,231.1 851,241 809,250.9" fill="#eef1ea"/><path d="M791 251h26" stroke="#fff" stroke-opacity=".45"/></g><g class="b"><polygon points="870,287 901,298.8 901,331.8 870,320" fill="#b4b9ad" opacity=".88"/><polygon points="901,298.8 950,287 950,320 901,331.8" fill="#8f9ba0" opacity=".72"/><polygon points="870,287 919,275.2 950,287 901,298.8" fill="#eef1ea"/><path d="M878 297h33" stroke="#fff" stroke-opacity=".45"/></g><g class="b"><polygon points="981,275 1001,282.6 1001,328.6 981,321" fill="#b4b9ad" opacity=".88"/><polygon points="1001,282.6 1057,275 1057,321 1001,328.6" fill="#8f9ba0" opacity=".72"/><polygon points="981,275 1037,267.4 1057,275 1001,282.6" fill="#eef1ea"/><path d="M989 285h40" stroke="#fff" stroke-opacity=".45"/></g><g class="b"><polygon points="1068,263 1093,272.5 1093,331.5 1068,322" fill="#b4b9ad" opacity=".88"/><polygon points="1093,272.5 1126,263 1126,322 1093,331.5" fill="#8f9ba0" opacity=".72"/><polygon points="1068,263 1101,253.5 1126,263 1093,272.5" fill="#eef1ea"/><path d="M1076 273h17" stroke="#fff" stroke-opacity=".45"/></g><g class="b"><polygon points="99,281 129,292.4 129,364.4 99,353" fill="#b4b9ad" opacity=".88"/><polygon points="129,292.4 169,281 169,353 129,364.4" fill="#8f9ba0" opacity=".72"/><polygon points="99,281 139,269.6 169,281 129,292.4" fill="#eef1ea"/><path d="M107 291h24" stroke="#fff" stroke-opacity=".45"/></g><g class="b"><polygon points="210,327 229,334.2 229,361.2 210,354" fill="#b4b9ad" opacity=".88"/><polygon points="229,334.2 276,327 276,354 229,361.2" fill="#8f9ba0" opacity=".72"/><polygon points="210,327 257,319.8 276,327 229,334.2" fill="#eef1ea"/><path d="M218 337h31" stroke="#fff" stroke-opacity=".45"/></g><g class="b"><polygon points="297,315 321,324.1 321,364.1 297,355" fill="#b4b9ad" opacity=".88"/><polygon points="321,324.1 375,315 375,355 321,364.1" fill="#8f9ba0" opacity=".72"/><polygon points="297,315 351,305.9 375,315 321,324.1" fill="#eef1ea"/><path d="M305 325h38" stroke="#fff" stroke-opacity=".45"/></g><g class="b"><polygon points="384,303 413,314 413,367 384,356" fill="#b4b9ad" opacity=".88"/><polygon points="413,314 474,303 474,356 413,367" fill="#8f9ba0" opacity=".72"/><polygon points="384,303 445,292 474,303 413,314" fill="#eef1ea"/><path d="M392 313h45" stroke="#fff" stroke-opacity=".45"/></g><g class="b"><polygon points="471,291 489,297.8 489,363.8 471,357" fill="#b4b9ad" opacity=".88"/><polygon points="489,297.8 527,291 527,357 489,363.8" fill="#8f9ba0" opacity=".72"/><polygon points="471,291 509,284.2 527,291 489,297.8" fill="#eef1ea"/><path d="M479 301h22" stroke="#fff" stroke-opacity=".45"/></g><g class="b"><polygon points="582,279 605,287.7 605,366.7 582,358" fill="#b4b9ad" opacity=".88"/><polygon points="605,287.7 650,279 650,358 605,366.7" fill="#8f9ba0" opacity=".72"/><polygon points="582,279 627,270.3 650,279 605,287.7" fill="#eef1ea"/><path d="M590 289h29" stroke="#fff" stroke-opacity=".45"/></g><g class="b"><polygon points="669,325 697,335.6 697,369.6 669,359" fill="#b4b9ad" opacity=".88"/><polygon points="697,335.6 749,325 749,359 697,369.6" fill="#8f9ba0" opacity=".72"/><polygon points="669,325 721,314.4 749,325 697,335.6" fill="#eef1ea"/><path d="M677 335h36" stroke="#fff" stroke-opacity=".45"/></g><g class="b"><polygon points="756,313 789,325.5 789,372.5 756,360" fill="#b4b9ad" opacity=".88"/><polygon points="789,325.5 848,313 848,360 789,372.5" fill="#8f9ba0" opacity=".72"/><polygon points="756,313 815,300.5 848,313 789,325.5" fill="#eef1ea"/><path d="M764 323h43" stroke="#fff" stroke-opacity=".45"/></g><g class="b"><polygon points="867,301 889,309.4 889,369.4 867,361" fill="#b4b9ad" opacity=".88"/><polygon points="889,309.4 925,301 925,361 889,369.4" fill="#8f9ba0" opacity=".72"/><polygon points="867,301 903,292.6 925,301 889,309.4" fill="#eef1ea"/><path d="M875 311h20" stroke="#fff" stroke-opacity=".45"/></g><g class="b"><polygon points="954,289 981,299.3 981,372.3 954,362" fill="#b4b9ad" opacity=".88"/><polygon points="981,299.3 1024,289 1024,362 981,372.3" fill="#8f9ba0" opacity=".72"/><polygon points="954,289 997,278.7 1024,289 981,299.3" fill="#eef1ea"/><path d="M962 299h27" stroke="#fff" stroke-opacity=".45"/></g><g class="b"><polygon points="1041,335 1073,347.2 1073,375.2 1041,363" fill="#b4b9ad" opacity=".88"/><polygon points="1073,347.2 1123,335 1123,363 1073,375.2" fill="#8f9ba0" opacity=".72"/><polygon points="1041,335 1091,322.8 1123,335 1073,347.2" fill="#eef1ea"/><path d="M1049 345h34" stroke="#fff" stroke-opacity=".45"/></g><g class="b"><polygon points="140,375 161,383 161,424 140,416" fill="#b4b9ad" opacity=".88"/><polygon points="161,383 218,375 218,416 161,424" fill="#8f9ba0" opacity=".72"/><polygon points="140,375 197,367 218,375 161,383" fill="#eef1ea"/><path d="M148 385h41" stroke="#fff" stroke-opacity=".45"/></g></g>

<g transform="translate(360 250)" filter="url(#softShadow)">
      <ellipse cx="0" cy="28" rx="92" ry="34" fill="#263238" opacity=".16"/>
      <rect x="-54" y="-58" width="108" height="96" rx="6" fill="#f6f1de" opacity=".98"/>
      <path d="M-54 -58 L0 -84 L54 -58 Z" fill="#d9e6ea"/>
      <path d="M-36 -30 H36 M-36 -6 H36 M-36 18 H36" stroke="#8a9aa0" stroke-width="4" opacity=".55"/>
    </g><g transform="translate(360 156)" class="marker">
    <path d="M0 -22 C24 -22 40 -7 40 13 C40 43 0 64 0 64 C0 64 -40 43 -40 13 C-40 -7 -24 -22 0 -22Z" fill="#f4ead1" stroke="#5a533f" stroke-width="3"/>
    <circle cx="0" cy="12" r="13" fill="#b8c9d0"/>
    <text x="0" y="92" text-anchor="middle" font-size="21" font-weight="800" fill="#2f312d" paint-order="stroke" stroke="#fff5da" stroke-width="5">仲裁窗口</text>
  </g><g transform="translate(610 245)" filter="url(#softShadow)">
      <ellipse cx="0" cy="28" rx="92" ry="34" fill="#263238" opacity=".16"/>
      <rect x="-54" y="-58" width="108" height="96" rx="6" fill="#f6f1de" opacity=".98"/>
      <path d="M-54 -58 L0 -84 L54 -58 Z" fill="#d9e6ea"/>
      <path d="M-36 -30 H36 M-36 -6 H36 M-36 18 H36" stroke="#8a9aa0" stroke-width="4" opacity=".55"/>
    </g><g transform="translate(610 151)" class="marker">
    <path d="M0 -22 C24 -22 40 -7 40 13 C40 43 0 64 0 64 C0 64 -40 43 -40 13 C-40 -7 -24 -22 0 -22Z" fill="#f4ead1" stroke="#5a533f" stroke-width="3"/>
    <circle cx="0" cy="12" r="13" fill="#b8c9d0"/>
    <text x="0" y="92" text-anchor="middle" font-size="21" font-weight="800" fill="#2f312d" paint-order="stroke" stroke="#fff5da" stroke-width="5">调解室</text>
  </g><g transform="translate(780 390)" filter="url(#softShadow)">
      <ellipse cx="0" cy="28" rx="92" ry="34" fill="#263238" opacity=".16"/>
      <rect x="-54" y="-58" width="108" height="96" rx="6" fill="#f6f1de" opacity=".98"/>
      <path d="M-54 -58 L0 -84 L54 -58 Z" fill="#d9e6ea"/>
      <path d="M-36 -30 H36 M-36 -6 H36 M-36 18 H36" stroke="#8a9aa0" stroke-width="4" opacity=".55"/>
    </g><g transform="translate(780 296)" class="marker">
    <path d="M0 -22 C24 -22 40 -7 40 13 C40 43 0 64 0 64 C0 64 -40 43 -40 13 C-40 -7 -24 -22 0 -22Z" fill="#f4ead1" stroke="#5a533f" stroke-width="3"/>
    <circle cx="0" cy="12" r="13" fill="#b8c9d0"/>
    <text x="0" y="92" text-anchor="middle" font-size="21" font-weight="800" fill="#2f312d" paint-order="stroke" stroke="#fff5da" stroke-width="5">打印店</text>
  </g><g transform="translate(470 500)" filter="url(#softShadow)">
      <ellipse cx="0" cy="28" rx="92" ry="34" fill="#263238" opacity=".16"/>
      <rect x="-54" y="-58" width="108" height="96" rx="6" fill="#f6f1de" opacity=".98"/>
      <path d="M-54 -58 L0 -84 L54 -58 Z" fill="#d9e6ea"/>
      <path d="M-36 -30 H36 M-36 -6 H36 M-36 18 H36" stroke="#8a9aa0" stroke-width="4" opacity=".55"/>
    </g><g transform="translate(470 406)" class="marker">
    <path d="M0 -22 C24 -22 40 -7 40 13 C40 43 0 64 0 64 C0 64 -40 43 -40 13 C-40 -7 -24 -22 0 -22Z" fill="#f4ead1" stroke="#5a533f" stroke-width="3"/>
    <circle cx="0" cy="12" r="13" fill="#b8c9d0"/>
    <text x="0" y="92" text-anchor="middle" font-size="21" font-weight="800" fill="#2f312d" paint-order="stroke" stroke="#fff5da" stroke-width="5">法律咨询台</text>
  </g><g transform="translate(910 555)" filter="url(#softShadow)">
    <rect x="-82" y="-26" width="164" height="52" rx="8" fill="#d7d9d5"/>
    <path d="M-70 6 H70" stroke="#6c7172" stroke-width="8"/>
    <path d="M-48 -11 H48" stroke="#9aa1a2" stroke-width="4"/>
    <circle cx="-36" cy="19" r="6" fill="#44525a"/><circle cx="36" cy="19" r="6" fill="#44525a"/>
  </g><g transform="translate(955 441)" class="marker">
    <path d="M0 -22 C24 -22 40 -7 40 13 C40 43 0 64 0 64 C0 64 -40 43 -40 13 C-40 -7 -24 -22 0 -22Z" fill="#f4ead1" stroke="#5a533f" stroke-width="3"/>
    <circle cx="0" cy="12" r="13" fill="#b8c9d0"/>
    <text x="0" y="92" text-anchor="middle" font-size="21" font-weight="800" fill="#2f312d" paint-order="stroke" stroke="#fff5da" stroke-width="5">地铁站</text>
  </g>
<g>
  <rect x="44" y="38" width="450" height="86" rx="12" fill="#fff8e7" opacity=".86"/>
  <text x="68" y="82" font-size="34" fill="#263238" font-weight="800">法律服务中心</text>
  <text x="70" y="110" font-size="18" fill="#627073">区域放大图 · 与城市总览同一俯瞰角度</text>
</g>
<g opacity=".42" filter="url(#blur)">
    <ellipse cx="80" cy="40" rx="130" ry="42" fill="#fff"/>
    <ellipse cx="1230" cy="62" rx="145" ry="46" fill="#fff"/>
    <ellipse cx="1160" cy="695" rx="170" ry="50" fill="#fff"/>
    <ellipse cx="35" cy="680" rx="140" ry="44" fill="#fff"/>
  </g>
<rect width="1280" height="720" fill="url(#v)"/>
</svg>