<svg xmlns="http://www.w3.org/2000/svg" width="1280" height="720" viewBox="0 0 1280 720">
<defs><linearGradient id="sky" x1="0" x2="0" y1="0" y2="1"><stop stop-color="#26394d"/><stop offset="1" stop-color="#182432"/></linearGradient><pattern id="grid" width="80" height="80" patternUnits="userSpaceOnUse" patternTransform="skewX(-24)"><path d="M80 0H0v80" fill="none" stroke="#ffffff" stroke-opacity=".08"/></pattern><filter id="shadow"><feDropShadow dx="0" dy="12" stdDeviation="12" flood-color="#000" flood-opacity=".35"/></filter></defs>
<rect width="1280" height="720" fill="url(#sky)"/><rect width="1280" height="720" fill="url(#grid)"/><path d="M100 520 C310 405 480 390 670 465 C850 535 1040 500 1190 390" fill="none" stroke="#86c7d9" stroke-opacity=".5" stroke-width="18"/>
<g filter="url(#shadow)"><polygon points="180,565 420,445 705,545 455,675" fill="#2a3138"/><polygon points="500,355 800,235 1100,365 780,525" fill="#313943"/><polygon points="265,285 505,190 735,278 480,390" fill="#38424c"/></g>
<rect x="120" y="108" width="42" height="42" fill="#d6e0e8" opacity="0.28"/><rect x="203" y="136" width="42" height="61" fill="#d6e0e8" opacity="0.36000000000000004"/><rect x="286" y="164" width="42" height="80" fill="#d6e0e8" opacity="0.44000000000000006"/><rect x="369" y="192" width="42" height="99" fill="#d6e0e8" opacity="0.52"/><rect x="452" y="220" width="42" height="118" fill="#d6e0e8" opacity="0.28"/><rect x="535" y="248" width="42" height="137" fill="#d6e0e8" opacity="0.36000000000000004"/><rect x="618" y="276" width="42" height="156" fill="#d6e0e8" opacity="0.44000000000000006"/><rect x="701" y="424" width="42" height="55" fill="#d6e0e8" opacity="0.52"/><rect x="784" y="452" width="42" height="74" fill="#d6e0e8" opacity="0.28"/><rect x="867" y="90" width="42" height="93" fill="#d6e0e8" opacity="0.36000000000000004"/><rect x="950" y="118" width="42" height="112" fill="#d6e0e8" opacity="0.44000000000000006"/><rect x="1033" y="146" width="42" height="131" fill="#d6e0e8" opacity="0.52"/><rect x="1116" y="174" width="42" height="150" fill="#d6e0e8" opacity="0.28"/><rect x="159" y="322" width="42" height="49" fill="#d6e0e8" opacity="0.36000000000000004"/><rect x="242" y="350" width="42" height="68" fill="#d6e0e8" opacity="0.44000000000000006"/><rect x="325" y="378" width="42" height="87" fill="#d6e0e8" opacity="0.52"/><rect x="408" y="406" width="42" height="106" fill="#d6e0e8" opacity="0.28"/><rect x="491" y="44" width="42" height="125" fill="#d6e0e8" opacity="0.36000000000000004"/><rect x="574" y="72" width="42" height="144" fill="#d6e0e8" opacity="0.44000000000000006"/><rect x="657" y="220" width="42" height="43" fill="#d6e0e8" opacity="0.52"/><rect x="740" y="248" width="42" height="62" fill="#d6e0e8" opacity="0.28"/><rect x="823" y="276" width="42" height="81" fill="#d6e0e8" opacity="0.36000000000000004"/><rect x="906" y="304" width="42" height="100" fill="#d6e0e8" opacity="0.44000000000000006"/><rect x="989" y="332" width="42" height="119" fill="#d6e0e8" opacity="0.52"/><rect x="1072" y="360" width="42" height="138" fill="#d6e0e8" opacity="0.28"/><rect x="1155" y="-2" width="42" height="157" fill="#d6e0e8" opacity="0.36000000000000004"/><rect x="198" y="146" width="42" height="56" fill="#d6e0e8" opacity="0.44000000000000006"/><rect x="281" y="174" width="42" height="75" fill="#d6e0e8" opacity="0.52"/>
<text x="70" y="90" font-size="46" fill="#fff2cf" font-weight="800">🏢 高新区写字楼</text><text x="72" y="128" font-size="22" fill="#d8e2ef">区域放大图 · 同一城市俯瞰角度</text><g transform="translate(270 230)"><circle r="34" fill="#8aa4bd" opacity=".92"/><text y="8" text-anchor="middle" font-size="34">🏢</text><text y="56" text-anchor="middle" font-size="22" fill="#f8ead0" font-weight="700">公司大堂</text></g><g transform="translate(560 250)"><circle r="34" fill="#8aa4bd" opacity=".92"/><text y="8" text-anchor="middle" font-size="34">💻</text><text y="56" text-anchor="middle" font-size="22" fill="#f8ead0" font-weight="700">开放工位</text></g><g transform="translate(430 390)"><circle r="34" fill="#8aa4bd" opacity=".92"/><text y="8" text-anchor="middle" font-size="34">📊</text><text y="56" text-anchor="middle" font-size="22" fill="#f8ead0" font-weight="700">会议室</text></g><g transform="translate(285 540)"><circle r="34" fill="#8aa4bd" opacity=".92"/><text y="8" text-anchor="middle" font-size="34">☕</text><text y="56" text-anchor="middle" font-size="22" fill="#f8ead0" font-weight="700">楼下咖啡</text></g><g transform="translate(620 560)"><circle r="34" fill="#8aa4bd" opacity=".92"/><text y="8" text-anchor="middle" font-size="34">🚇</text><text y="56" text-anchor="middle" font-size="22" fill="#f8ead0" font-weight="700">地铁站</text></g></svg>